<svg width="48" height="48" viewBox="0 0 48 48" fill="none" xmlns="http://www.w3.org/2000/svg">
<circle cx="24" cy="24" r="24" fill="#9C9489"/>
<path fill-rule="evenodd" clip-rule="evenodd" d="M17.2502 18.3002C17.1308 18.3002 17.0164 18.3476 16.932 18.432C16.8476 18.5164 16.8002 18.6308 16.8002 18.7502V28.5002C16.8002 29.0801 16.3301 29.5502 15.7502 29.5502C15.1703 29.5502 14.7002 29.0801 14.7002 28.5002V18.7502C14.7002 18.0739 14.9689 17.4253 15.4471 16.9471C15.9253 16.4689 16.5739 16.2002 17.2502 16.2002H30.7502C31.4265 16.2002 32.0751 16.4689 32.5533 16.9471C33.0315 17.4253 33.3002 18.0739 33.3002 18.7502V28.5002C33.3002 29.0801 32.8301 29.5502 32.2502 29.5502C31.6703 29.5502 31.2002 29.0801 31.2002 28.5002V18.7502C31.2002 18.6308 31.1528 18.5164 31.0684 18.432C30.984 18.3476 30.8695 18.3002 30.7502 18.3002H17.2502Z" fill="white"/>
<path fill-rule="evenodd" clip-rule="evenodd" d="M13.2002 28.5002C13.2002 27.9203 13.6703 27.4502 14.2502 27.4502H33.7502C34.3301 27.4502 34.8002 27.9203 34.8002 28.5002V30.0002C34.8002 30.6765 34.5315 31.3251 34.0533 31.8033C33.5751 32.2815 32.9265 32.5502 32.2502 32.5502H15.7502C15.0739 32.5502 14.4253 32.2815 13.9471 31.8033C13.4689 31.3251 13.2002 30.6765 13.2002 30.0002V28.5002ZM15.3002 29.5502V30.0002C15.3002 30.1195 15.3476 30.234 15.432 30.3184C15.5164 30.4028 15.6308 30.4502 15.7502 30.4502H32.2502C32.3695 30.4502 32.484 30.4028 32.5684 30.3184C32.6528 30.234 32.7002 30.1195 32.7002 30.0002V29.5502H15.3002Z" fill="white"/>
<path fill-rule="evenodd" clip-rule="evenodd" d="M21.4502 20.2502C21.4502 19.6703 21.9203 19.2002 22.5002 19.2002H25.5002C26.0801 19.2002 26.5502 19.6703 26.5502 20.2502C26.5502 20.8301 26.0801 21.3002 25.5002 21.3002H22.5002C21.9203 21.3002 21.4502 20.8301 21.4502 20.2502Z" fill="white"/>
</svg>
