<svg width="48" height="48" viewBox="0 0 48 48" fill="none" xmlns="http://www.w3.org/2000/svg">
<circle cx="24" cy="24" r="24" fill="#9C9489"/>
<path fill-rule="evenodd" clip-rule="evenodd" d="M24.0002 17.7002C24.5801 17.7002 25.0502 18.1703 25.0502 18.7502V20.2502C25.0502 20.8301 24.5801 21.3002 24.0002 21.3002C23.4203 21.3002 22.9502 20.8301 22.9502 20.2502V18.7502C22.9502 18.1703 23.4203 17.7002 24.0002 17.7002Z" fill="white"/>
<path fill-rule="evenodd" clip-rule="evenodd" d="M24.0002 26.7002C24.5801 26.7002 25.0502 27.1703 25.0502 27.7502V29.2502C25.0502 29.8301 24.5801 30.3002 24.0002 30.3002C23.4203 30.3002 22.9502 29.8301 22.9502 29.2502V27.7502C22.9502 27.1703 23.4203 26.7002 24.0002 26.7002Z" fill="white"/>
<path fill-rule="evenodd" clip-rule="evenodd" d="M24.0002 16.0502C19.6095 16.0502 16.0502 19.6095 16.0502 24.0002C16.0502 28.3909 19.6095 31.9502 24.0002 31.9502C28.3909 31.9502 31.9502 28.3909 31.9502 24.0002C31.9502 19.6095 28.3909 16.0502 24.0002 16.0502ZM13.9502 24.0002C13.9502 18.4497 18.4497 13.9502 24.0002 13.9502C29.5507 13.9502 34.0502 18.4497 34.0502 24.0002C34.0502 29.5507 29.5507 34.0502 24.0002 34.0502C18.4497 34.0502 13.9502 29.5507 13.9502 24.0002Z" fill="white"/>
<path fill-rule="evenodd" clip-rule="evenodd" d="M22.8752 21.3002C22.6564 21.3002 22.4465 21.3871 22.2918 21.5418C22.1371 21.6965 22.0502 21.9064 22.0502 22.1252C22.0502 22.344 22.1371 22.5538 22.2918 22.7086C22.4465 22.8633 22.6564 22.9502 22.8752 22.9502H25.1252C25.901 22.9502 26.6449 23.2584 27.1935 23.8069C27.742 24.3555 28.0502 25.0994 28.0502 25.8752C28.0502 26.651 27.742 27.3949 27.1935 27.9435C26.6449 28.492 25.901 28.8002 25.1252 28.8002H21.7502C21.1703 28.8002 20.7002 28.3301 20.7002 27.7502C20.7002 27.1703 21.1703 26.7002 21.7502 26.7002H25.1252C25.344 26.7002 25.5538 26.6133 25.7086 26.4586C25.8633 26.3038 25.9502 26.094 25.9502 25.8752C25.9502 25.6564 25.8633 25.4465 25.7086 25.2918C25.5538 25.1371 25.344 25.0502 25.1252 25.0502H22.8752C22.0994 25.0502 21.3555 24.742 20.8069 24.1935C20.2584 23.6449 19.9502 22.901 19.9502 22.1252C19.9502 21.3494 20.2584 20.6055 20.8069 20.0569C21.3555 19.5084 22.0994 19.2002 22.8752 19.2002H26.2502C26.8301 19.2002 27.3002 19.6703 27.3002 20.2502C27.3002 20.8301 26.8301 21.3002 26.2502 21.3002H22.8752Z" fill="white"/>
</svg>
