<svg width="48" height="48" viewBox="0 0 48 48" fill="none" xmlns="http://www.w3.org/2000/svg">
<circle cx="24" cy="24" r="24" fill="#9C9489"/>
<path fill-rule="evenodd" clip-rule="evenodd" d="M22.0502 16.0502V21.0002C22.0502 21.5801 21.5801 22.0502 21.0002 22.0502H16.0502V25.9502H21.0002C21.5801 25.9502 22.0502 26.4203 22.0502 27.0002V31.9502H25.9502V27.0002C25.9502 26.4203 26.4203 25.9502 27.0002 25.9502H31.9502V22.0502H27.0002C26.4203 22.0502 25.9502 21.5801 25.9502 21.0002V16.0502H22.0502ZM20.4774 14.4774C20.815 14.1398 21.2728 13.9502 21.7502 13.9502H26.2502C26.7276 13.9502 27.1854 14.1398 27.523 14.4774C27.8606 14.815 28.0502 15.2728 28.0502 15.7502V19.9502H32.2502C32.7276 19.9502 33.1854 20.1398 33.523 20.4774C33.8606 20.815 34.0502 21.2728 34.0502 21.7502V26.2502C34.0502 26.7276 33.8606 27.1854 33.523 27.523C33.1854 27.8606 32.7276 28.0502 32.2502 28.0502H28.0502V32.2502C28.0502 32.7276 27.8606 33.1854 27.523 33.523C27.1854 33.8606 26.7276 34.0502 26.2502 34.0502H21.7502C21.2728 34.0502 20.815 33.8606 20.4774 33.523C20.1398 33.1854 19.9502 32.7276 19.9502 32.2502V28.0502H15.7502C15.2728 28.0502 14.815 27.8606 14.4774 27.523C14.1398 27.1854 13.9502 26.7276 13.9502 26.2502V21.7502C13.9502 21.2728 14.1398 20.815 14.4774 20.4774C14.815 20.1398 15.2728 19.9502 15.7502 19.9502H19.9502V15.7502C19.9502 15.2728 20.1398 14.815 20.4774 14.4774Z" fill="white"/>
</svg>
