<svg width="48" height="48" viewBox="0 0 48 48" fill="none" xmlns="http://www.w3.org/2000/svg">
<circle cx="24" cy="24" r="24" fill="#9C9489"/>
<path d="M31.875 24C32.9105 24 33.75 23.1605 33.75 22.125C33.75 21.0895 32.9105 20.25 31.875 20.25C30.8395 20.25 30 21.0895 30 22.125C30 23.1605 30.8395 24 31.875 24Z" stroke="white" stroke-width="2" stroke-linecap="round" stroke-linejoin="round"/>
<path d="M16.125 24C17.1605 24 18 23.1605 18 22.125C18 21.0895 17.1605 20.25 16.125 20.25C15.0895 20.25 14.25 21.0895 14.25 22.125C14.25 23.1605 15.0895 24 16.125 24Z" stroke="white" stroke-width="2" stroke-linecap="round" stroke-linejoin="round"/>
<path d="M20.625 19.5C21.6605 19.5 22.5 18.6605 22.5 17.625C22.5 16.5895 21.6605 15.75 20.625 15.75C19.5895 15.75 18.75 16.5895 18.75 17.625C18.75 18.6605 19.5895 19.5 20.625 19.5Z" stroke="white" stroke-width="2" stroke-linecap="round" stroke-linejoin="round"/>
<path d="M27.375 19.5C28.4105 19.5 29.25 18.6605 29.25 17.625C29.25 16.5895 28.4105 15.75 27.375 15.75C26.3395 15.75 25.5 16.5895 25.5 17.625C25.5 18.6605 26.3395 19.5 27.375 19.5Z" stroke="white" stroke-width="2" stroke-linecap="round" stroke-linejoin="round"/>
<path d="M29.1784 26.6113C28.2377 26.0888 27.5414 25.216 27.2409 24.1828L27.2408 24.1829C27.0368 23.4812 26.6106 22.8646 26.0262 22.4259C25.4418 21.9872 24.7308 21.75 24 21.75C23.2693 21.75 22.5583 21.9872 21.9739 22.4259C21.3895 22.8646 20.9633 23.4812 20.7593 24.1829L20.7592 24.1828C20.4587 25.216 19.7624 26.0888 18.8217 26.6113C18.1441 26.9786 17.6338 27.5925 17.3966 28.3259C17.1594 29.0593 17.2135 29.8558 17.5477 30.5503C17.8819 31.2449 18.4705 31.7842 19.1916 32.0565C19.9126 32.3288 20.7108 32.3132 21.4207 32.0129C23.0735 31.3352 24.9266 31.3352 26.5794 32.0129C27.2893 32.3135 28.0877 32.3294 28.809 32.0571C29.5302 31.7849 30.1191 31.2455 30.4533 30.5508C30.7876 29.8561 30.8416 29.0594 30.6043 28.3259C30.3669 27.5924 29.8563 26.9784 29.1784 26.6113H29.1784Z" stroke="white" stroke-width="2" stroke-linecap="round" stroke-linejoin="round"/>
</svg>
