<svg width="48" height="48" viewBox="0 0 48 48" fill="none" xmlns="http://www.w3.org/2000/svg">
<circle cx="24" cy="24" r="24" fill="#9C9489"/>
<path fill-rule="evenodd" clip-rule="evenodd" d="M16.0502 19.8002V31.2002H31.9502V19.8002H16.0502ZM13.9502 19.5002C13.9502 18.5061 14.7561 17.7002 15.7502 17.7002H32.2502C33.2443 17.7002 34.0502 18.5061 34.0502 19.5002V31.5002C34.0502 32.4943 33.2443 33.3002 32.2502 33.3002H15.7502C14.7561 33.3002 13.9502 32.4943 13.9502 31.5002V19.5002Z" fill="white"/>
<path fill-rule="evenodd" clip-rule="evenodd" d="M19.9471 15.4471C20.4253 14.9689 21.0739 14.7002 21.7502 14.7002H26.2502C26.9265 14.7002 27.5751 14.9689 28.0533 15.4471C28.5315 15.9253 28.8002 16.5739 28.8002 17.2502V18.7502C28.8002 19.3301 28.3301 19.8002 27.7502 19.8002C27.1703 19.8002 26.7002 19.3301 26.7002 18.7502V17.2502C26.7002 17.1308 26.6528 17.0164 26.5684 16.932C26.484 16.8476 26.3695 16.8002 26.2502 16.8002H21.7502C21.6308 16.8002 21.5164 16.8476 21.432 16.932C21.3476 17.0164 21.3002 17.1308 21.3002 17.2502V18.7502C21.3002 19.3301 20.8301 19.8002 20.2502 19.8002C19.6703 19.8002 19.2002 19.3301 19.2002 18.7502V17.2502C19.2002 16.5739 19.4689 15.9253 19.9471 15.4471Z" fill="white"/>
<path fill-rule="evenodd" clip-rule="evenodd" d="M24.0002 21.8252C24.5801 21.8252 25.0502 22.2953 25.0502 22.8752V28.1252C25.0502 28.7051 24.5801 29.1752 24.0002 29.1752C23.4203 29.1752 22.9502 28.7051 22.9502 28.1252V22.8752C22.9502 22.2953 23.4203 21.8252 24.0002 21.8252Z" fill="white"/>
<path fill-rule="evenodd" clip-rule="evenodd" d="M20.3252 25.5002C20.3252 24.9203 20.7953 24.4502 21.3752 24.4502H26.6252C27.2051 24.4502 27.6752 24.9203 27.6752 25.5002C27.6752 26.0801 27.2051 26.5502 26.6252 26.5502H21.3752C20.7953 26.5502 20.3252 26.0801 20.3252 25.5002Z" fill="white"/>
</svg>
