<svg width="36" height="37" viewBox="0 0 36 37" fill="none" xmlns="http://www.w3.org/2000/svg">
<rect y="0.5" width="36" height="36" rx="18" fill="#9C9489"/>
<g opacity="0.66">
<path d="M18 26.0938C22.1939 26.0938 25.5938 22.6939 25.5938 18.5C25.5938 14.3061 22.1939 10.9062 18 10.9062C13.8061 10.9062 10.4062 14.3061 10.4062 18.5C10.4062 22.6939 13.8061 26.0938 18 26.0938Z" stroke="white" stroke-width="1.4" stroke-miterlimit="10"/>
<path d="M18 19.4492C18.5242 19.4492 18.9492 19.0242 18.9492 18.5C18.9492 17.9758 18.5242 17.5508 18 17.5508C17.4758 17.5508 17.0508 17.9758 17.0508 18.5C17.0508 19.0242 17.4758 19.4492 18 19.4492Z" fill="white"/>
<path d="M21.7969 19.4492C22.3211 19.4492 22.7461 19.0242 22.7461 18.5C22.7461 17.9758 22.3211 17.5508 21.7969 17.5508C21.2726 17.5508 20.8477 17.9758 20.8477 18.5C20.8477 19.0242 21.2726 19.4492 21.7969 19.4492Z" fill="white"/>
<path d="M14.2031 19.4492C14.7274 19.4492 15.1523 19.0242 15.1523 18.5C15.1523 17.9758 14.7274 17.5508 14.2031 17.5508C13.6789 17.5508 13.2539 17.9758 13.2539 18.5C13.2539 19.0242 13.6789 19.4492 14.2031 19.4492Z" fill="white"/>
</g>
</svg>
