<svg width="48" height="48" viewBox="0 0 48 48" fill="none" xmlns="http://www.w3.org/2000/svg">
<circle cx="24" cy="24" r="24" fill="#9C9489"/>
<path fill-rule="evenodd" clip-rule="evenodd" d="M29.0887 15.2294C29.3764 14.7259 30.0178 14.551 30.5213 14.8387L35.1553 17.4867C35.5548 17.715 35.8517 18.0876 35.985 18.5279C36.1184 18.9683 36.078 19.443 35.8722 19.8545L34.1468 23.3054C33.9973 23.6044 33.7675 23.8558 33.4832 24.0315C33.1988 24.2073 32.8711 24.3004 32.5368 24.3004H30.0004C29.4205 24.3004 28.9504 23.8303 28.9504 23.2504C28.9504 22.6705 29.4205 22.2004 30.0004 22.2004H32.3514L33.867 19.1692L29.4794 16.662C28.9759 16.3743 28.801 15.7329 29.0887 15.2294Z" fill="white"/>
<path fill-rule="evenodd" clip-rule="evenodd" d="M18.912 15.2294C19.1997 15.7329 19.0248 16.3743 18.5213 16.662L14.1337 19.1692L15.6493 22.2004H18.0004C18.5803 22.2004 19.0504 22.6705 19.0504 23.2504C19.0504 23.8303 18.5803 24.3004 18.0004 24.3004H15.4639C15.1296 24.3004 14.8019 24.2073 14.5176 24.0315C14.2332 23.8558 14.0034 23.6044 13.8539 23.3054L12.1285 19.8545C11.9227 19.443 11.8824 18.9683 12.0157 18.5279C12.149 18.0876 12.4459 17.715 12.8454 17.4867L17.4794 14.8387C17.9829 14.551 18.6243 14.7259 18.912 15.2294Z" fill="white"/>
<path fill-rule="evenodd" clip-rule="evenodd" d="M16.9502 15.7502C16.9502 15.1703 17.4203 14.7002 18.0002 14.7002H21.0002C21.5801 14.7002 22.0502 15.1703 22.0502 15.7502C22.0502 16.2674 22.2556 16.7634 22.6213 17.1291C22.987 17.4947 23.483 17.7002 24.0002 17.7002C24.5174 17.7002 25.0134 17.4947 25.3791 17.1291C25.7447 16.7634 25.9502 16.2674 25.9502 15.7502C25.9502 15.1703 26.4203 14.7002 27.0002 14.7002H30.0002C30.5801 14.7002 31.0502 15.1703 31.0502 15.7502V31.5002C31.0502 31.9776 30.8606 32.4354 30.523 32.773C30.1854 33.1106 29.7276 33.3002 29.2502 33.3002H18.7502C18.2728 33.3002 17.815 33.1106 17.4774 32.773C17.1398 32.4354 16.9502 31.9776 16.9502 31.5002V15.7502ZM19.0502 16.8002V31.2002H28.9502V16.8002H27.9117C27.7291 17.4804 27.3706 18.1074 26.864 18.614C26.1045 19.3735 25.0743 19.8002 24.0002 19.8002C22.9261 19.8002 21.8959 19.3735 21.1364 18.614C20.6298 18.1074 20.2713 17.4804 20.0887 16.8002H19.0502Z" fill="white"/>
</svg>
