<svg width="48" height="48" viewBox="0 0 48 48" fill="none" xmlns="http://www.w3.org/2000/svg">
<circle cx="24" cy="24" r="24" fill="#9C9489"/>
<path fill-rule="evenodd" clip-rule="evenodd" d="M15.2992 18.3002V29.7002H32.6992V18.3002H15.2992ZM13.1992 18.0002C13.1992 17.0061 14.0051 16.2002 14.9992 16.2002H32.9992C33.9933 16.2002 34.7992 17.0061 34.7992 18.0002V30.0002C34.7992 30.9943 33.9933 31.8002 32.9992 31.8002H14.9992C14.0051 31.8002 13.1992 30.9943 13.1992 30.0002V18.0002Z" fill="white"/>
<path fill-rule="evenodd" clip-rule="evenodd" d="M26.6992 27.7502C26.6992 27.1703 27.1693 26.7002 27.7492 26.7002H30.7492C31.3291 26.7002 31.7992 27.1703 31.7992 27.7502C31.7992 28.3301 31.3291 28.8002 30.7492 28.8002H27.7492C27.1693 28.8002 26.6992 28.3301 26.6992 27.7502Z" fill="white"/>
<path fill-rule="evenodd" clip-rule="evenodd" d="M22.1992 27.7502C22.1992 27.1703 22.6693 26.7002 23.2492 26.7002H24.7492C25.3291 26.7002 25.7992 27.1703 25.7992 27.7502C25.7992 28.3301 25.3291 28.8002 24.7492 28.8002H23.2492C22.6693 28.8002 22.1992 28.3301 22.1992 27.7502Z" fill="white"/>
<path fill-rule="evenodd" clip-rule="evenodd" d="M13.1992 21.0803C13.1992 20.5004 13.6693 20.0303 14.2492 20.0303H33.7492C34.3291 20.0303 34.7992 20.5004 34.7992 21.0803C34.7992 21.6602 34.3291 22.1303 33.7492 22.1303H14.2492C13.6693 22.1303 13.1992 21.6602 13.1992 21.0803Z" fill="white"/>
</svg>
