<svg width="48" height="48" viewBox="0 0 48 48" fill="none" xmlns="http://www.w3.org/2000/svg">
<circle cx="24" cy="24" r="24" fill="#9C9489"/>
<path d="M32.2421 15.1691C31.5978 15.0592 30.9454 15.0027 30.2917 15C28.0611 14.9982 25.8771 15.6315 24 16.8244C22.118 15.6472 19.9344 15.0294 17.7083 15.0445C17.0546 15.0472 16.4022 15.1037 15.7579 15.2136C15.5469 15.2496 15.3558 15.3591 15.219 15.5222C15.0823 15.6854 15.0088 15.8915 15.0119 16.1036V26.7832C15.01 26.914 15.0372 27.0436 15.0916 27.1627C15.146 27.2819 15.2263 27.3877 15.3267 27.4727C15.4271 27.5577 15.5451 27.6197 15.6725 27.6544C15.7999 27.689 15.9334 27.6954 16.0635 27.6732C17.3515 27.4524 18.6712 27.489 19.9446 27.7809C21.2181 28.0729 22.4197 28.6142 23.4787 29.373L23.5865 29.4353H23.6854C23.7851 29.4765 23.892 29.4976 24 29.4976C24.108 29.4976 24.2149 29.4765 24.3146 29.4353H24.4135L24.5213 29.373C25.5729 28.5972 26.771 28.0384 28.0448 27.7296C29.3185 27.4208 30.6419 27.3683 31.9365 27.5753C32.0666 27.5975 32.2001 27.5911 32.3275 27.5565C32.4548 27.5218 32.5729 27.4598 32.6733 27.3748C32.7737 27.2898 32.854 27.184 32.9084 27.0648C32.9628 26.9457 32.99 26.8161 32.9881 26.6853V16.0057C32.9787 15.8029 32.8996 15.6094 32.764 15.4572C32.6283 15.3051 32.4441 15.2034 32.2421 15.1691ZM23.1012 26.9968C21.4383 26.1306 19.5873 25.6785 17.7083 25.6797C17.4117 25.6797 17.1151 25.6797 16.8095 25.6797V16.7799C17.1089 16.7629 17.409 16.7629 17.7083 16.7799C19.6259 16.7778 21.5015 17.335 23.1012 18.3819V26.9968ZM31.1905 25.7152C30.8849 25.7152 30.5883 25.7152 30.2917 25.7152C28.4127 25.7141 26.5617 26.1662 24.8988 27.0324V18.3819C26.4985 17.335 28.3741 16.7778 30.2917 16.7799C30.591 16.7629 30.8911 16.7629 31.1905 16.7799V25.7152ZM32.2421 29.4086C31.5978 29.2987 30.9454 29.2422 30.2917 29.2395C28.0611 29.2377 25.8771 29.871 24 31.064C22.1229 29.871 19.9389 29.2377 17.7083 29.2395C17.0546 29.2422 16.4022 29.2987 15.7579 29.4086C15.6409 29.427 15.5288 29.4681 15.4279 29.5296C15.327 29.591 15.2393 29.6716 15.17 29.7668C15.1007 29.8619 15.051 29.9696 15.0239 30.0838C14.9968 30.198 14.9927 30.3164 15.0119 30.4321C15.0576 30.6632 15.1939 30.867 15.391 30.9988C15.5881 31.1305 15.83 31.1796 16.0635 31.1352C17.3515 30.9144 18.6712 30.951 19.9446 31.2429C21.2181 31.5349 22.4197 32.0762 23.4787 32.835C23.6309 32.9423 23.8131 33 24 33C24.1869 33 24.3691 32.9423 24.5213 32.835C25.5803 32.0762 26.7819 31.5349 28.0554 31.2429C29.3288 30.951 30.6485 30.9144 31.9365 31.1352C32.17 31.1796 32.4119 31.1305 32.609 30.9988C32.8061 30.867 32.9424 30.6632 32.9881 30.4321C33.0073 30.3164 33.0032 30.198 32.9761 30.0838C32.949 29.9696 32.8993 29.8619 32.83 29.7668C32.7607 29.6716 32.673 29.591 32.5721 29.5296C32.4712 29.4681 32.3591 29.427 32.2421 29.4086V29.4086Z" fill="white"/>
</svg>
