<svg width="48" height="48" viewBox="0 0 48 48" fill="none" xmlns="http://www.w3.org/2000/svg">
<circle cx="24" cy="24" r="24" fill="#9C9489"/>
<path d="M32.685 15.217C32.5869 15.1328 32.4718 15.0708 32.3476 15.035C32.2233 14.9993 32.0928 14.9908 31.965 15.01L20.265 16.8099C20.0519 16.8422 19.8575 16.9499 19.7172 17.1134C19.5768 17.2769 19.4997 17.4854 19.5 17.7009V27.0153C19.0795 26.81 18.618 26.7023 18.15 26.7004C17.527 26.7004 16.918 26.8851 16.4 27.2312C15.8819 27.5773 15.4782 28.0692 15.2398 28.6448C15.0014 29.2203 14.939 29.8537 15.0605 30.4647C15.1821 31.0757 15.4821 31.6369 15.9226 32.0774C16.3632 32.5179 16.9244 32.8179 17.5355 32.9395C18.1465 33.061 18.7799 32.9986 19.3555 32.7602C19.931 32.5218 20.423 32.1181 20.7691 31.6001C21.1153 31.0821 21.3 30.4732 21.3 29.8502V22.9746L31.2 21.4536V25.2154C30.7795 25.0101 30.318 24.9024 29.85 24.9005C29.227 24.9005 28.618 25.0852 28.1 25.4313C27.5819 25.7774 27.1782 26.2693 26.9398 26.8449C26.7014 27.4204 26.639 28.0538 26.7605 28.6648C26.8821 29.2758 27.1821 29.837 27.6226 30.2775C28.0631 30.7181 28.6244 31.018 29.2355 31.1396C29.8465 31.2611 30.4799 31.1987 31.0555 30.9603C31.631 30.7219 32.123 30.3182 32.4691 29.8002C32.8153 29.2822 33 28.6733 33 28.0503V15.901C33 15.771 32.9719 15.6425 32.9175 15.5245C32.8631 15.4064 32.7838 15.3015 32.685 15.217ZM18.15 31.2001C17.883 31.2001 17.622 31.1209 17.4 30.9726C17.178 30.8243 17.0049 30.6134 16.9028 30.3668C16.8006 30.1201 16.7739 29.8487 16.8259 29.5868C16.878 29.325 17.0066 29.0844 17.1954 28.8956C17.3842 28.7068 17.6248 28.5783 17.8866 28.5262C18.1485 28.4741 18.4199 28.5008 18.6666 28.603C18.9133 28.7052 19.1241 28.8782 19.2725 29.1002C19.4208 29.3222 19.5 29.5832 19.5 29.8502C19.5 30.2082 19.3578 30.5516 19.1046 30.8047C18.8514 31.0579 18.508 31.2001 18.15 31.2001ZM29.85 29.4002C29.583 29.4002 29.322 29.321 29.1 29.1727C28.878 29.0244 28.7049 28.8135 28.6028 28.5669C28.5006 28.3202 28.4739 28.0488 28.5259 27.7869C28.578 27.5251 28.7066 27.2845 28.8954 27.0957C29.0842 26.9069 29.3248 26.7784 29.5866 26.7263C29.8485 26.6742 30.1199 26.7009 30.3666 26.8031C30.6133 26.9053 30.8241 27.0783 30.9725 27.3003C31.1208 27.5223 31.2 27.7833 31.2 28.0503C31.2 28.4083 31.0578 28.7517 30.8046 29.0048C30.5514 29.258 30.208 29.4002 29.85 29.4002ZM31.2 19.6268L21.3 21.1477V18.4478L31.2 16.9539V19.6268Z" fill="white"/>
</svg>
