<svg width="48" height="48" viewBox="0 0 48 48" fill="none" xmlns="http://www.w3.org/2000/svg">
<circle cx="24" cy="24" r="24" fill="#9C9489"/>
<path d="M24 33C28.9706 33 33 28.9706 33 24C33 19.0294 28.9706 15 24 15C19.0294 15 15 19.0294 15 24C15 28.9706 19.0294 33 24 33Z" stroke="white" stroke-width="2" stroke-miterlimit="10"/>
<path d="M24 25.125C24.6213 25.125 25.125 24.6213 25.125 24C25.125 23.3787 24.6213 22.875 24 22.875C23.3787 22.875 22.875 23.3787 22.875 24C22.875 24.6213 23.3787 25.125 24 25.125Z" fill="white"/>
<path d="M28.5 25.125C29.1213 25.125 29.625 24.6213 29.625 24C29.625 23.3787 29.1213 22.875 28.5 22.875C27.8787 22.875 27.375 23.3787 27.375 24C27.375 24.6213 27.8787 25.125 28.5 25.125Z" fill="white"/>
<path d="M19.5 25.125C20.1213 25.125 20.625 24.6213 20.625 24C20.625 23.3787 20.1213 22.875 19.5 22.875C18.8787 22.875 18.375 23.3787 18.375 24C18.375 24.6213 18.8787 25.125 19.5 25.125Z" fill="white"/>
</svg>
