<svg width="48" height="48" viewBox="0 0 48 48" fill="none" xmlns="http://www.w3.org/2000/svg">
<circle cx="24" cy="24" r="24" fill="#9C9489"/>
<path fill-rule="evenodd" clip-rule="evenodd" d="M25.2002 22.1252C25.2002 21.5453 25.6703 21.0752 26.2502 21.0752H29.2502C29.8301 21.0752 30.3002 21.5453 30.3002 22.1252C30.3002 22.7051 29.8301 23.1752 29.2502 23.1752H26.2502C25.6703 23.1752 25.2002 22.7051 25.2002 22.1252Z" fill="white"/>
<path fill-rule="evenodd" clip-rule="evenodd" d="M17.7002 22.1252C17.7002 21.5453 18.1703 21.0752 18.7502 21.0752H21.7502C22.3301 21.0752 22.8002 21.5453 22.8002 22.1252C22.8002 22.7051 22.3301 23.1752 21.7502 23.1752H18.7502C18.1703 23.1752 17.7002 22.7051 17.7002 22.1252Z" fill="white"/>
<path fill-rule="evenodd" clip-rule="evenodd" d="M20.2502 19.5752C20.8301 19.5752 21.3002 20.0453 21.3002 20.6252V23.6252C21.3002 24.2051 20.8301 24.6752 20.2502 24.6752C19.6703 24.6752 19.2002 24.2051 19.2002 23.6252V20.6252C19.2002 20.0453 19.6703 19.5752 20.2502 19.5752Z" fill="white"/>
<path fill-rule="evenodd" clip-rule="evenodd" d="M28.1264 16.1758C29.6979 16.1758 31.2049 16.8 32.3161 17.9112C33.4272 19.0223 34.0514 20.5294 34.0514 22.1008C34.0514 23.6722 33.4272 25.1792 32.3161 26.2904C31.2055 27.401 29.6994 28.0252 28.1288 28.0258C28.128 28.0258 28.1272 28.0258 28.1264 28.0258L22.5024 28.0483L18.7758 32.1678C18.7593 32.1868 18.742 32.2055 18.7239 32.2236C18.1712 32.7762 17.4567 33.1382 16.6843 33.257C15.9118 33.3759 15.1216 33.2454 14.4283 32.8845C13.7351 32.5236 13.1749 31.9511 12.8293 31.2502C12.4836 30.5492 12.3703 29.7563 12.506 28.9867L12.5092 28.9685L12.5094 28.9685L14.0356 21.1189C14.0368 21.1112 14.0381 21.1036 14.0394 21.0959C14.2817 19.7241 14.9994 18.4816 16.0665 17.5863C17.1333 16.6914 18.4811 16.2007 19.8735 16.2002L19.872 16.2002L19.8751 17.2502L19.8751 16.2002M28.1264 16.1758V17.2258ZM28.1264 18.2758L19.8783 18.3002L19.8752 18.3002C18.9759 18.3002 18.1052 18.6171 17.4162 19.1951C16.7366 19.7653 16.2764 20.5537 16.114 21.4251C16.1114 21.4431 16.1084 21.4611 16.1049 21.479L14.5727 29.3591C14.5168 29.6865 14.5657 30.0233 14.7127 30.3213C14.8608 30.6217 15.1009 30.8671 15.398 31.0218C15.6951 31.1765 16.0338 31.2324 16.3649 31.1814C16.6873 31.1318 16.9861 30.9834 17.2203 30.757L21.256 26.2958C21.4541 26.0768 21.7352 25.9514 22.0305 25.9502L28.1222 25.9258L28.1264 25.9258C29.1409 25.9258 30.1138 25.5228 30.8311 24.8055C31.5485 24.0881 31.9514 23.1152 31.9514 22.1008C31.9514 21.0863 31.5485 20.1134 30.8311 19.3961C30.1141 18.6791 29.1418 18.2762 28.1279 18.2758C28.1274 18.2758 28.1269 18.2758 28.1264 18.2758Z" fill="white"/>
<path fill-rule="evenodd" clip-rule="evenodd" d="M32.7282 20.2235C33.2975 20.1132 33.8484 20.4853 33.9587 21.0546L35.495 28.9867C35.6306 29.7564 35.5172 30.5493 35.1716 31.2502C34.8259 31.9512 34.2657 32.5237 33.5725 32.8845C32.8792 33.2454 32.089 33.3759 31.3166 33.2571C30.5441 33.1382 29.8296 32.7762 29.2769 32.2236C29.2582 32.2049 29.2404 32.1857 29.2234 32.166L25.1888 27.6872C24.8007 27.2564 24.8353 26.5925 25.2662 26.2043C25.697 25.8162 26.361 25.8508 26.7491 26.2817L30.7811 30.7577C31.0152 30.9837 31.3138 31.1319 31.6359 31.1815C31.967 31.2324 32.3057 31.1765 32.6028 31.0218C32.8999 30.8672 33.14 30.6218 33.2882 30.3214C33.4352 30.0232 33.4841 29.6863 33.428 29.3588L31.897 21.4539C31.7867 20.8846 32.1589 20.3337 32.7282 20.2235Z" fill="white"/>
</svg>
