<svg width="48" height="48" viewBox="0 0 48 48" fill="none" xmlns="http://www.w3.org/2000/svg">
<circle cx="24" cy="24" r="24" fill="#9C9489"/>
<path d="M29.1042 24.8737V17.325C29.1042 17.1062 29.0156 16.8964 28.8581 16.7416C28.7005 16.5869 28.4867 16.5 28.2639 16.5C28.041 16.5 27.8273 16.5869 27.6697 16.7416C27.5121 16.8964 27.4236 17.1062 27.4236 17.325V24.8737C26.6959 25.0812 26.0565 25.5152 25.6019 26.1104C25.1472 26.7056 24.9019 27.4298 24.9028 28.1737C24.9028 29.865 26.18 32.9588 28.2639 32.9588C30.3478 32.9588 31.625 29.865 31.625 28.1737C31.6259 27.4298 31.3806 26.7056 30.9259 26.1104C30.4712 25.5152 29.8319 25.0812 29.1042 24.8737V24.8737ZM28.2639 31.35C27.5917 31.35 26.5833 29.4773 26.5833 28.215C26.5628 27.7559 26.7279 27.3075 27.0427 26.9675C27.3575 26.6275 27.7965 26.4235 28.2639 26.4C28.7313 26.4235 29.1703 26.6275 29.4851 26.9675C29.7999 27.3075 29.965 27.7559 29.9444 28.215C29.9444 29.4773 28.9361 31.35 28.2639 31.35ZM22.3819 16.5C22.1591 16.5 21.9454 16.5869 21.7878 16.7416C21.6302 16.8964 21.5417 17.1062 21.5417 17.325V21.8295L20.7014 22.3823V17.325C20.7014 17.1062 20.6129 16.8964 20.4553 16.7416C20.2977 16.5869 20.084 16.5 19.8611 16.5C19.6383 16.5 19.4245 16.5869 19.2669 16.7416C19.1094 16.8964 19.0208 17.1062 19.0208 17.325V22.3823L18.1806 21.8295V17.325C18.1806 17.1062 18.092 16.8964 17.9344 16.7416C17.7769 16.5869 17.5631 16.5 17.3403 16.5C17.1174 16.5 16.9037 16.5869 16.7461 16.7416C16.5885 16.8964 16.5 17.1062 16.5 17.325V22.275C16.5007 22.4109 16.5356 22.5445 16.6016 22.6639C16.6675 22.7834 16.7625 22.885 16.8781 22.9597L19.0208 24.3705V32.175C19.0208 32.3938 19.1094 32.6036 19.2669 32.7584C19.4245 32.9131 19.6383 33 19.8611 33C20.084 33 20.2977 32.9131 20.4553 32.7584C20.6129 32.6036 20.7014 32.3938 20.7014 32.175V24.3705L22.8441 22.9597C22.9597 22.885 23.0547 22.7834 23.1206 22.6639C23.1866 22.5445 23.2215 22.4109 23.2222 22.275V17.325C23.2222 17.1062 23.1337 16.8964 22.9761 16.7416C22.8185 16.5869 22.6048 16.5 22.3819 16.5V16.5Z" fill="white"/>
</svg>
