<svg width="48" height="48" viewBox="0 0 48 48" fill="none" xmlns="http://www.w3.org/2000/svg">
<circle cx="24" cy="24" r="24" fill="#9C9489"/>
<path d="M31.5 25.875C31.5 27.8641 30.7098 29.7718 29.3033 31.1783C27.8968 32.5848 25.9891 33.375 24 33.375C22.0109 33.375 20.1032 32.5848 18.6967 31.1783C17.2902 29.7718 16.5 27.8641 16.5 25.875V22.125C16.5 20.1359 17.2902 18.2282 18.6967 16.8217C20.1032 15.4152 22.0109 14.625 24 14.625C25.9891 14.625 27.8968 15.4152 29.3033 16.8217C30.7098 18.2282 31.5 20.1359 31.5 22.125V25.875Z" stroke="white" stroke-width="1.4" stroke-linecap="round" stroke-linejoin="round"/>
<path d="M22.5 24H16.5" stroke="white" stroke-width="1.4" stroke-linecap="round" stroke-linejoin="round"/>
<path d="M30.75 24H22.5" stroke="white" stroke-width="1.4" stroke-linecap="round" stroke-linejoin="round"/>
<path d="M26.625 21.75C27.2463 21.75 27.75 21.2463 27.75 20.625C27.75 20.0037 27.2463 19.5 26.625 19.5C26.0037 19.5 25.5 20.0037 25.5 20.625C25.5 21.2463 26.0037 21.75 26.625 21.75Z" fill="white"/>
<path d="M21.375 21.75C21.9963 21.75 22.5 21.2463 22.5 20.625C22.5 20.0037 21.9963 19.5 21.375 19.5C20.7537 19.5 20.25 20.0037 20.25 20.625C20.25 21.2463 20.7537 21.75 21.375 21.75Z" fill="white"/>
</svg>
