<svg width="48" height="48" viewBox="0 0 48 48" fill="none" xmlns="http://www.w3.org/2000/svg">
<circle cx="24" cy="24" r="24" fill="#9C9489"/>
<path fill-rule="evenodd" clip-rule="evenodd" d="M23.45 14.106C23.7875 13.8983 24.2131 13.8983 24.5506 14.106L34.3006 20.106C34.7007 20.3522 34.8885 20.8341 34.7606 21.2862C34.6327 21.7382 34.2201 22.0502 33.7503 22.0502H14.2503C13.7805 22.0502 13.3679 21.7382 13.24 21.2862C13.112 20.8341 13.2999 20.3522 13.7 20.106L23.45 14.106ZM17.96 19.9502H30.0406L24.0003 16.2331L17.96 19.9502Z" fill="white"/>
<path fill-rule="evenodd" clip-rule="evenodd" d="M17.2502 19.9502C17.8301 19.9502 18.3002 20.4203 18.3002 21.0002V28.5002C18.3002 29.0801 17.8301 29.5502 17.2502 29.5502C16.6703 29.5502 16.2002 29.0801 16.2002 28.5002V21.0002C16.2002 20.4203 16.6703 19.9502 17.2502 19.9502Z" fill="white"/>
<path fill-rule="evenodd" clip-rule="evenodd" d="M21.7502 19.9502C22.3301 19.9502 22.8002 20.4203 22.8002 21.0002V28.5002C22.8002 29.0801 22.3301 29.5502 21.7502 29.5502C21.1703 29.5502 20.7002 29.0801 20.7002 28.5002V21.0002C20.7002 20.4203 21.1703 19.9502 21.7502 19.9502Z" fill="white"/>
<path fill-rule="evenodd" clip-rule="evenodd" d="M26.2502 19.9502C26.8301 19.9502 27.3002 20.4203 27.3002 21.0002V28.5002C27.3002 29.0801 26.8301 29.5502 26.2502 29.5502C25.6703 29.5502 25.2002 29.0801 25.2002 28.5002V21.0002C25.2002 20.4203 25.6703 19.9502 26.2502 19.9502Z" fill="white"/>
<path fill-rule="evenodd" clip-rule="evenodd" d="M30.7502 19.9502C31.3301 19.9502 31.8002 20.4203 31.8002 21.0002V28.5002C31.8002 29.0801 31.3301 29.5502 30.7502 29.5502C30.1703 29.5502 29.7002 29.0801 29.7002 28.5002V21.0002C29.7002 20.4203 30.1703 19.9502 30.7502 19.9502Z" fill="white"/>
<path fill-rule="evenodd" clip-rule="evenodd" d="M13.9502 28.5002C13.9502 27.9203 14.4203 27.4502 15.0002 27.4502H33.0002C33.5801 27.4502 34.0502 27.9203 34.0502 28.5002C34.0502 29.0801 33.5801 29.5502 33.0002 29.5502H15.0002C14.4203 29.5502 13.9502 29.0801 13.9502 28.5002Z" fill="white"/>
<path fill-rule="evenodd" clip-rule="evenodd" d="M12.4502 31.5002C12.4502 30.9203 12.9203 30.4502 13.5002 30.4502H34.5002C35.0801 30.4502 35.5502 30.9203 35.5502 31.5002C35.5502 32.0801 35.0801 32.5502 34.5002 32.5502H13.5002C12.9203 32.5502 12.4502 32.0801 12.4502 31.5002Z" fill="white"/>
</svg>
