<svg width="48" height="48" viewBox="0 0 48 48" fill="none" xmlns="http://www.w3.org/2000/svg">
<circle cx="24" cy="24" r="24" fill="#9C9489"/>
<path fill-rule="evenodd" clip-rule="evenodd" d="M24.0002 16.0502C19.6095 16.0502 16.0502 19.6095 16.0502 24.0002C16.0502 28.3909 19.6095 31.9502 24.0002 31.9502C28.3909 31.9502 31.9502 28.3909 31.9502 24.0002C31.9502 19.6095 28.3909 16.0502 24.0002 16.0502ZM13.9502 24.0002C13.9502 18.4497 18.4497 13.9502 24.0002 13.9502C29.5507 13.9502 34.0502 18.4497 34.0502 24.0002C34.0502 29.5507 29.5507 34.0502 24.0002 34.0502C18.4497 34.0502 13.9502 29.5507 13.9502 24.0002Z" fill="white"/>
<ellipse cx="27" cy="22.5" rx="2" ry="1.5" fill="white"/>
<ellipse cx="24" cy="27.5" rx="2" ry="1.5" fill="white"/>
<ellipse cx="21" cy="22.5" rx="2" ry="1.5" fill="white"/>
</svg>
