<svg width="48" height="48" viewBox="0 0 48 48" fill="none" xmlns="http://www.w3.org/2000/svg">
<circle cx="24" cy="24" r="24" fill="#9C9489"/>
<path d="M31.6441 19.5375L28.4893 22.4998L31.4893 30.7498L29.2393 32.9998L24.7573 26.4392L22.4893 28.4998V30.7498L20.2393 32.9998L18.9087 29.076L14.9893 27.7498L17.2393 25.4998H19.4893L21.7393 23.2498L14.9893 18.7498L17.2393 16.4998L25.4893 19.4998L28.4621 16.3555L28.3983 16.4088C28.6071 16.1995 28.8552 16.0334 29.1283 15.92C29.4013 15.8067 29.6941 15.7482 29.9898 15.748C30.2855 15.7479 30.5783 15.806 30.8515 15.9191C31.1247 16.0322 31.3729 16.198 31.582 16.4071C31.7911 16.6161 31.9569 16.8644 32.07 17.1376C32.183 17.4108 32.2412 17.7036 32.241 17.9993C32.2408 18.295 32.1824 18.5877 32.069 18.8608C31.9556 19.1339 31.7896 19.3819 31.5802 19.5908L31.6441 19.5375Z" stroke="white" stroke-width="2" stroke-linecap="round" stroke-linejoin="round"/>
</svg>
