<svg width="48" height="48" viewBox="0 0 48 48" fill="none" xmlns="http://www.w3.org/2000/svg">
<circle cx="24" cy="24" r="24" fill="#9C9489"/>
<path d="M34.5673 23.4172L32.25 24.5759L29.25 18.8307L31.5909 17.6602C31.7667 17.5723 31.9701 17.5569 32.1572 17.6175C32.3443 17.678 32.5001 17.8096 32.5911 17.9839L34.8967 22.3992C34.9428 22.4875 34.9708 22.5841 34.9792 22.6834C34.9876 22.7826 34.9761 22.8825 34.9454 22.9773C34.9148 23.0721 34.8655 23.1598 34.8006 23.2353C34.7357 23.3108 34.6564 23.3727 34.5673 23.4172V23.4172Z" stroke="white" stroke-width="2" stroke-linecap="round" stroke-linejoin="round"/>
<path d="M15.7504 24.4753L13.4331 23.3166C13.3441 23.2721 13.2647 23.2103 13.1998 23.1347C13.1349 23.0592 13.0856 22.9715 13.055 22.8767C13.0243 22.782 13.0128 22.682 13.0212 22.5828C13.0296 22.4835 13.0576 22.387 13.1037 22.2987L15.4093 17.8833C15.5003 17.709 15.6562 17.5774 15.8432 17.5169C16.0303 17.4564 16.2337 17.4717 16.4096 17.5596L18.7504 18.7301L15.7504 24.4753Z" stroke="white" stroke-width="2" stroke-linecap="round" stroke-linejoin="round"/>
<path d="M32.25 24.5761L30.75 26.3309L27.3003 29.7806C27.2087 29.8722 27.095 29.9385 26.9701 29.9731C26.8453 30.0076 26.7137 30.0093 26.588 29.9779L21.1546 28.6195C21.0527 28.594 20.9572 28.5474 20.8745 28.4827L15.75 24.4756" stroke="white" stroke-width="2" stroke-linecap="round" stroke-linejoin="round"/>
<path d="M30.7498 26.3311L26.6248 23.3311L25.4248 24.2311C24.9055 24.6205 24.2739 24.8311 23.6248 24.8311C22.9757 24.8311 22.3441 24.6205 21.8248 24.2311L21.3166 23.8499C21.2306 23.7854 21.1595 23.7032 21.1081 23.6089C21.0567 23.5146 21.0261 23.4103 21.0185 23.3031C21.0109 23.1959 21.0264 23.0883 21.0639 22.9877C21.1015 22.887 21.1603 22.7956 21.2363 22.7196L24.9051 19.0507C24.9748 18.9811 25.0574 18.9258 25.1484 18.8881C25.2394 18.8505 25.337 18.8311 25.4355 18.8311H29.2498" stroke="white" stroke-width="2" stroke-linecap="round" stroke-linejoin="round"/>
<path d="M18.8037 18.7305L23.615 17.3278C23.7868 17.2777 23.971 17.2907 24.1341 17.3645L27.3749 18.831" stroke="white" stroke-width="2" stroke-linecap="round" stroke-linejoin="round"/>
<path d="M22.5 31.9558L19.6744 31.2494C19.5598 31.2207 19.4535 31.1654 19.3643 31.0878L17.25 29.25" stroke="white" stroke-width="2" stroke-linecap="round" stroke-linejoin="round"/>
</svg>
