<svg width="36" height="36" viewBox="0 0 36 36" fill="none" xmlns="http://www.w3.org/2000/svg">
<rect width="36" height="36" rx="18" fill="#9C9489"/>
<g opacity="0.66">
<path fill-rule="evenodd" clip-rule="evenodd" d="M11.2924 14.4564V24.0752H24.708V14.4564H11.2924ZM9.52051 14.2033C9.52051 13.3645 10.2005 12.6846 11.0393 12.6846H24.9611C25.7999 12.6846 26.4799 13.3645 26.4799 14.2033V24.3283C26.4799 25.1671 25.7999 25.8471 24.9611 25.8471H11.0393C10.2005 25.8471 9.52051 25.1671 9.52051 24.3283V14.2033Z" fill="white"/>
<path fill-rule="evenodd" clip-rule="evenodd" d="M14.5804 10.7835C14.9839 10.38 15.5311 10.1533 16.1018 10.1533H19.8986C20.4693 10.1533 21.0165 10.38 21.42 10.7835C21.8235 11.187 22.0502 11.7343 22.0502 12.3049V13.5705C22.0502 14.0598 21.6535 14.4564 21.1643 14.4564C20.675 14.4564 20.2783 14.0598 20.2783 13.5705V12.3049C20.2783 12.2042 20.2383 12.1076 20.1671 12.0364C20.0959 11.9652 19.9993 11.9252 19.8986 11.9252H16.1018C16.0011 11.9252 15.9045 11.9652 15.8333 12.0364C15.7621 12.1076 15.7221 12.2042 15.7221 12.3049V13.5705C15.7221 14.0598 15.3254 14.4564 14.8361 14.4564C14.3468 14.4564 13.9502 14.0598 13.9502 13.5705V12.3049C13.9502 11.7343 14.1769 11.187 14.5804 10.7835Z" fill="white"/>
<path fill-rule="evenodd" clip-rule="evenodd" d="M26.3611 17.4224C26.6061 17.8459 26.4614 18.3879 26.0379 18.6329C23.5951 20.0462 20.822 20.7884 17.9998 20.7842C15.1781 20.7884 12.4055 20.0465 9.963 18.6336C9.53946 18.3886 9.39472 17.8467 9.63971 17.4231C9.8847 16.9996 10.4266 16.8549 10.8502 17.0999C13.0226 18.3565 15.4887 19.0163 17.9984 19.0123H18.0012C20.5113 19.0163 22.9779 18.3562 25.1506 17.0992C25.5741 16.8542 26.116 16.9989 26.3611 17.4224Z" fill="white"/>
<path fill-rule="evenodd" clip-rule="evenodd" d="M16.165 17.3674C16.165 16.8781 16.5617 16.4814 17.051 16.4814H18.9494C19.4387 16.4814 19.8354 16.8781 19.8354 17.3674C19.8354 17.8567 19.4387 18.2533 18.9494 18.2533H17.051C16.5617 18.2533 16.165 17.8567 16.165 17.3674Z" fill="white"/>
</g>
</svg>
