<svg width="48" height="48" viewBox="0 0 48 48" fill="none" xmlns="http://www.w3.org/2000/svg">
<circle cx="24" cy="24" r="24" fill="#9C9489"/>
<path d="M32.25 19.5H15.75C15.3358 19.5 15 19.8358 15 20.25V23.25C15 23.6642 15.3358 24 15.75 24H32.25C32.6642 24 33 23.6642 33 23.25V20.25C33 19.8358 32.6642 19.5 32.25 19.5Z" stroke="white" stroke-width="2" stroke-linecap="round" stroke-linejoin="round"/>
<path d="M31.5 24V30.75C31.5 30.9489 31.421 31.1397 31.2803 31.2803C31.1397 31.421 30.9489 31.5 30.75 31.5H17.25C17.0511 31.5 16.8603 31.421 16.7197 31.2803C16.579 31.1397 16.5 30.9489 16.5 30.75V24" stroke="white" stroke-width="2" stroke-linecap="round" stroke-linejoin="round"/>
<path d="M24 19.5V31.5" stroke="white" stroke-width="2" stroke-linecap="round" stroke-linejoin="round"/>
<path d="M28.2426 18.4397C27.182 19.5004 24 19.5004 24 19.5004C24 19.5004 24 16.3184 25.0607 15.2577C25.4827 14.8362 26.0549 14.5994 26.6514 14.5996C27.2479 14.5998 27.8199 14.8368 28.2417 15.2586C28.6635 15.6804 28.9006 16.2525 28.9007 16.849C28.9009 17.4455 28.6642 18.0177 28.2426 18.4397V18.4397Z" stroke="white" stroke-width="2" stroke-linecap="round" stroke-linejoin="round"/>
<path d="M19.7577 18.4397C20.8184 19.5004 24.0004 19.5004 24.0004 19.5004C24.0004 19.5004 24.0004 16.3184 22.9397 15.2577C22.5177 14.8362 21.9455 14.5994 21.349 14.5996C20.7525 14.5998 20.1804 14.8368 19.7586 15.2586C19.3368 15.6804 19.0998 16.2525 19.0996 16.849C19.0994 17.4455 19.3362 18.0177 19.7577 18.4397V18.4397Z" stroke="white" stroke-width="2" stroke-linecap="round" stroke-linejoin="round"/>
</svg>
