<svg width="36" height="37" viewBox="0 0 36 37" fill="none" xmlns="http://www.w3.org/2000/svg">
<rect y="0.5" width="36" height="36" rx="18" fill="#9C9489"/>
<path d="M14.1469 21.9875C14.4378 21.9875 14.7168 21.8719 14.9225 21.6662C15.1282 21.4605 15.2437 21.1815 15.2437 20.8906C15.2473 20.8542 15.2473 20.8174 15.2437 20.7809L17.2839 18.7408H17.4521H17.6203L18.7976 19.9181C18.7976 19.9181 18.7976 19.9546 18.7976 19.9766C18.7976 20.2675 18.9132 20.5465 19.1189 20.7522C19.3246 20.9579 19.6036 21.0734 19.8945 21.0734C20.1854 21.0734 20.4644 20.9579 20.6701 20.7522C20.8758 20.5465 20.9914 20.2675 20.9914 19.9766V19.9181L23.6531 17.2344C23.8701 17.2344 24.0821 17.17 24.2625 17.0495C24.4429 16.929 24.5835 16.7577 24.6665 16.5573C24.7495 16.3568 24.7712 16.1363 24.7289 15.9235C24.6866 15.7107 24.5821 15.5153 24.4287 15.3619C24.2753 15.2085 24.0799 15.104 23.8671 15.0617C23.6543 15.0194 23.4338 15.0411 23.2334 15.1241C23.0329 15.2071 22.8616 15.3477 22.7411 15.5281C22.6206 15.7085 22.5562 15.9206 22.5562 16.1375C22.5527 16.174 22.5527 16.2107 22.5562 16.2472L19.9164 18.887H19.7994L18.5344 17.6C18.5344 17.3091 18.4188 17.0301 18.2131 16.8244C18.0074 16.6187 17.7284 16.5031 17.4375 16.5031C17.1466 16.5031 16.8676 16.6187 16.6619 16.8244C16.4562 17.0301 16.3406 17.3091 16.3406 17.6L14.1469 19.7938C13.856 19.7938 13.577 19.9093 13.3713 20.115C13.1656 20.3207 13.05 20.5997 13.05 20.8906C13.05 21.1815 13.1656 21.4605 13.3713 21.6662C13.577 21.8719 13.856 21.9875 14.1469 21.9875ZM24.0187 24.9125H11.5875V12.4813C11.5875 12.2873 11.5105 12.1013 11.3733 11.9642C11.2362 11.827 11.0502 11.75 10.8562 11.75C10.6623 11.75 10.4763 11.827 10.3392 11.9642C10.202 12.1013 10.125 12.2873 10.125 12.4813V25.6438C10.125 25.8377 10.202 26.0237 10.3392 26.1608C10.4763 26.298 10.6623 26.375 10.8562 26.375H24.0187C24.2127 26.375 24.3987 26.298 24.5358 26.1608C24.673 26.0237 24.75 25.8377 24.75 25.6438C24.75 25.4498 24.673 25.2638 24.5358 25.1267C24.3987 24.9895 24.2127 24.9125 24.0187 24.9125Z" fill="#E1DFDB"/>
</svg>
