<svg width="36" height="36" viewBox="0 0 36 36" fill="none" xmlns="http://www.w3.org/2000/svg">
<rect width="36" height="36" rx="18" fill="#9C9489"/>
<path d="M23.3037 14.3036H20.893V13.4679C20.893 12.5813 20.5543 11.731 19.9515 11.1041C19.3487 10.4772 18.5312 10.125 17.6787 10.125C16.8262 10.125 16.0086 10.4772 15.4058 11.1041C14.8031 11.731 14.4644 12.5813 14.4644 13.4679V14.3036H12.0537C11.8406 14.3036 11.6362 14.3916 11.4855 14.5483C11.3348 14.7051 11.2501 14.9176 11.2501 15.1393V24.3321C11.2501 24.9971 11.5041 25.6348 11.9562 26.105C12.4083 26.5751 13.0215 26.8393 13.6608 26.8393H21.6965C22.3359 26.8393 22.9491 26.5751 23.4012 26.105C23.8533 25.6348 24.1073 24.9971 24.1073 24.3321V15.1393C24.1073 14.9176 24.0226 14.7051 23.8719 14.5483C23.7212 14.3916 23.5168 14.3036 23.3037 14.3036ZM16.0716 13.4679C16.0716 13.0246 16.2409 12.5994 16.5423 12.286C16.8437 11.9725 17.2525 11.7964 17.6787 11.7964C18.1049 11.7964 18.5137 11.9725 18.8151 12.286C19.1165 12.5994 19.2858 13.0246 19.2858 13.4679V14.3036H16.0716V13.4679ZM22.5001 24.3321C22.5001 24.5538 22.4155 24.7664 22.2648 24.9231C22.1141 25.0798 21.9097 25.1679 21.6965 25.1679H13.6608C13.4477 25.1679 13.2433 25.0798 13.0926 24.9231C12.9419 24.7664 12.8573 24.5538 12.8573 24.3321V15.975H14.4644V16.8107C14.4644 17.0324 14.5491 17.2449 14.6998 17.4017C14.8505 17.5584 15.0549 17.6464 15.268 17.6464C15.4811 17.6464 15.6855 17.5584 15.8362 17.4017C15.9869 17.2449 16.0716 17.0324 16.0716 16.8107V15.975H19.2858V16.8107C19.2858 17.0324 19.3705 17.2449 19.5212 17.4017C19.6719 17.5584 19.8763 17.6464 20.0894 17.6464C20.3025 17.6464 20.5069 17.5584 20.6576 17.4017C20.8083 17.2449 20.893 17.0324 20.893 16.8107V15.975H22.5001V24.3321Z" fill="#E1DFDB"/>
</svg>
