<svg width="48" height="48" viewBox="0 0 48 48" fill="none" xmlns="http://www.w3.org/2000/svg">
<circle cx="24" cy="24" r="24" fill="#9C9489"/>
<path d="M30.3 22H30.012L28.887 19.504C28.6861 19.0602 28.3405 18.6799 27.8947 18.4119C27.4489 18.1439 26.9232 18.0005 26.385 18H20.985C20.3598 17.9984 19.7533 18.1898 19.2691 18.5414C18.7849 18.893 18.453 19.3831 18.33 19.928L17.862 22H17.7C16.9839 22 16.2972 22.2529 15.7908 22.7029C15.2845 23.153 15 23.7635 15 24.4V26.8C15 27.0122 15.0948 27.2157 15.2636 27.3657C15.4324 27.5157 15.6613 27.6 15.9 27.6H16.8C16.8 28.2365 17.0845 28.847 17.5908 29.2971C18.0972 29.7471 18.7839 30 19.5 30C20.2161 30 20.9028 29.7471 21.4092 29.2971C21.9155 28.847 22.2 28.2365 22.2 27.6H25.8C25.8 28.2365 26.0845 28.847 26.5908 29.2971C27.0972 29.7471 27.7839 30 28.5 30C29.2161 30 29.9028 29.7471 30.4092 29.2971C30.9155 28.847 31.2 28.2365 31.2 27.6H32.1C32.3387 27.6 32.5676 27.5157 32.7364 27.3657C32.9052 27.2157 33 27.0122 33 26.8V24.4C33 23.7635 32.7155 23.153 32.2092 22.7029C31.7028 22.2529 31.0161 22 30.3 22V22ZM24.9 19.6H26.385C26.5637 19.6014 26.7379 19.6501 26.8854 19.7399C27.0328 19.8297 27.1469 19.9564 27.213 20.104L28.068 22H24.9V19.6ZM20.094 20.24C20.1361 20.0566 20.2492 19.8921 20.4136 19.7752C20.5781 19.6582 20.7834 19.5962 20.994 19.6H23.1V22H19.698L20.094 20.24ZM19.5 28.4C19.322 28.4 19.148 28.3531 19 28.2652C18.852 28.1773 18.7366 28.0523 18.6685 27.9061C18.6004 27.76 18.5826 27.5991 18.6173 27.4439C18.652 27.2887 18.7377 27.1462 18.8636 27.0343C18.9895 26.9224 19.1498 26.8462 19.3244 26.8154C19.499 26.7845 19.68 26.8003 19.8444 26.8609C20.0089 26.9214 20.1494 27.024 20.2483 27.1555C20.3472 27.2871 20.4 27.4418 20.4 27.6C20.4 27.8122 20.3052 28.0157 20.1364 28.1657C19.9676 28.3157 19.7387 28.4 19.5 28.4ZM28.5 28.4C28.322 28.4 28.148 28.3531 28 28.2652C27.852 28.1773 27.7366 28.0523 27.6685 27.9061C27.6004 27.76 27.5826 27.5991 27.6173 27.4439C27.652 27.2887 27.7377 27.1462 27.8636 27.0343C27.9895 26.9224 28.1498 26.8462 28.3244 26.8154C28.499 26.7845 28.68 26.8003 28.8444 26.8609C29.0089 26.9214 29.1494 27.024 29.2483 27.1555C29.3472 27.2871 29.4 27.4418 29.4 27.6C29.4 27.8122 29.3052 28.0157 29.1364 28.1657C28.9676 28.3157 28.7387 28.4 28.5 28.4ZM31.2 26H30.498C30.2449 25.7525 29.9365 25.5548 29.5924 25.4195C29.2483 25.2842 28.8762 25.2143 28.5 25.2143C28.1238 25.2143 27.7517 25.2842 27.4076 25.4195C27.0635 25.5548 26.7551 25.7525 26.502 26H21.498C21.2449 25.7525 20.9365 25.5548 20.5924 25.4195C20.2483 25.2842 19.8762 25.2143 19.5 25.2143C19.1238 25.2143 18.7517 25.2842 18.4076 25.4195C18.0635 25.5548 17.7551 25.7525 17.502 26H16.8V24.4C16.8 24.1878 16.8948 23.9843 17.0636 23.8343C17.2324 23.6843 17.4613 23.6 17.7 23.6H30.3C30.5387 23.6 30.7676 23.6843 30.9364 23.8343C31.1052 23.9843 31.2 24.1878 31.2 24.4V26Z" fill="white"/>
</svg>
