<svg width="48" height="48" viewBox="0 0 48 48" fill="none" xmlns="http://www.w3.org/2000/svg">
<circle cx="24" cy="24" r="24" fill="#9C9489"/>
<path fill-rule="evenodd" clip-rule="evenodd" d="M20.2492 18.3002C18.1367 18.3002 16.4242 20.0127 16.4242 22.1252C16.4242 24.2377 18.1367 25.9502 20.2492 25.9502C22.3617 25.9502 24.0742 24.2377 24.0742 22.1252C24.0742 20.0127 22.3617 18.3002 20.2492 18.3002ZM14.3242 22.1252C14.3242 18.8529 16.9769 16.2002 20.2492 16.2002C23.5215 16.2002 26.1742 18.8529 26.1742 22.1252C26.1742 25.3975 23.5215 28.0502 20.2492 28.0502C16.9769 28.0502 14.3242 25.3975 14.3242 22.1252Z" fill="white"/>
<path fill-rule="evenodd" clip-rule="evenodd" d="M28.4727 18.3435C27.9324 18.2606 27.3807 18.2943 26.8546 18.4426C26.2964 18.5998 25.7164 18.2748 25.5591 17.7167C25.4019 17.1585 25.7269 16.5785 26.285 16.4213C27.1 16.1917 27.9546 16.1394 28.7915 16.2679C29.6283 16.3964 30.4279 16.7028 31.1364 17.1663C31.8448 17.6299 32.4457 18.2399 32.8986 18.9552C33.3515 19.6706 33.6458 20.4746 33.7617 21.3133C33.8777 22.152 33.8126 23.0058 33.5707 23.8172C33.3289 24.6285 32.9161 25.3787 32.3599 26.0171C31.8038 26.6554 31.1173 27.1672 30.3467 27.518C29.5761 27.8687 28.7393 28.0502 27.8927 28.0503C27.3128 28.0504 26.8426 27.5804 26.8426 27.0005C26.8425 26.4206 27.3126 25.9504 27.8925 25.9503C28.4391 25.9503 28.9793 25.8331 29.4768 25.6066C29.9743 25.3802 30.4175 25.0498 30.7765 24.6377C31.1356 24.2255 31.4021 23.7412 31.5582 23.2174C31.7143 22.6936 31.7564 22.1423 31.6815 21.6009C31.6067 21.0594 31.4167 20.5403 31.1243 20.0785C30.8319 19.6167 30.444 19.2228 29.9866 18.9236C29.5292 18.6243 29.013 18.4265 28.4727 18.3435Z" fill="white"/>
<path fill-rule="evenodd" clip-rule="evenodd" d="M20.2494 28.0502C19.094 28.0502 17.9556 28.3283 16.9303 28.8608C15.9049 29.3934 15.0228 30.1648 14.3583 31.11C14.0248 31.5844 13.3698 31.6986 12.8954 31.3651C12.421 31.0316 12.3068 30.3767 12.6403 29.9023C13.4986 28.6814 14.638 27.6851 15.9623 26.9972C17.2866 26.3094 18.757 25.9503 20.2493 25.9502C21.7417 25.9501 23.2121 26.3091 24.5365 26.9969C25.8608 27.6846 27.0003 28.6809 27.8587 29.9017C28.1922 30.376 28.078 31.031 27.6037 31.3645C27.1293 31.6981 26.4744 31.5839 26.1408 31.1096C25.4762 30.1644 24.594 29.3931 23.5686 28.8606C22.5433 28.3281 21.4048 28.0502 20.2494 28.0502Z" fill="white"/>
<path fill-rule="evenodd" clip-rule="evenodd" d="M31.2125 28.8593C30.1873 28.3269 29.0488 28.0494 27.8935 28.0502C27.3136 28.0506 26.8432 27.5809 26.8428 27.001C26.8424 26.4211 27.3121 25.9506 27.892 25.9502C29.3847 25.9491 30.8557 26.3077 32.1804 26.9957C33.5051 27.6836 34.6445 28.6806 35.5022 29.9023C35.8354 30.3769 35.7207 31.0318 35.2461 31.365C34.7715 31.6982 34.1166 31.5836 33.7834 31.1089C33.1196 30.1634 32.2378 29.3918 31.2125 28.8593Z" fill="white"/>
</svg>
