<svg width="48" height="48" viewBox="0 0 48 48" fill="none" xmlns="http://www.w3.org/2000/svg">
<circle cx="24" cy="24" r="24" fill="#9C9489"/>
<path fill-rule="evenodd" clip-rule="evenodd" d="M16.0502 17.5502V29.8013L17.5306 29.061C17.8262 28.9132 18.1742 28.9132 18.4698 29.061L21.0002 30.3263L23.5306 29.061C23.8262 28.9132 24.1742 28.9132 24.4698 29.061L27.0002 30.3263L29.5306 29.061C29.8262 28.9132 30.1742 28.9132 30.4698 29.061L31.9502 29.8013V17.5502H16.0502ZM14.4774 15.9774C14.815 15.6398 15.2728 15.4502 15.7502 15.4502H32.2502C32.7276 15.4502 33.1854 15.6398 33.523 15.9774C33.8606 16.315 34.0502 16.7728 34.0502 17.2502V31.5002C34.0502 31.8641 33.8618 32.2021 33.5522 32.3934C33.2427 32.5847 32.8561 32.6021 32.5306 32.4393L30.0002 31.1741L27.4698 32.4393C27.1742 32.5871 26.8262 32.5871 26.5306 32.4393L24.0002 31.1741L21.4698 32.4393C21.1742 32.5871 20.8262 32.5871 20.5306 32.4393L18.0002 31.1741L15.4698 32.4393C15.1443 32.6021 14.7577 32.5847 14.4482 32.3934C14.1386 32.2021 13.9502 31.8641 13.9502 31.5002V17.2502C13.9502 16.7728 14.1398 16.315 14.4774 15.9774ZM18.0752 21.7502C18.0752 21.1703 18.5453 20.7002 19.1252 20.7002H28.8752C29.4551 20.7002 29.9252 21.1703 29.9252 21.7502C29.9252 22.3301 29.4551 22.8002 28.8752 22.8002H19.1252C18.5453 22.8002 18.0752 22.3301 18.0752 21.7502ZM18.0752 24.7502C18.0752 24.1703 18.5453 23.7002 19.1252 23.7002H28.8752C29.4551 23.7002 29.9252 24.1703 29.9252 24.7502C29.9252 25.3301 29.4551 25.8002 28.8752 25.8002H19.1252C18.5453 25.8002 18.0752 25.3301 18.0752 24.7502Z" fill="white"/>
</svg>
