<svg width="48" height="48" viewBox="0 0 48 48" fill="none" xmlns="http://www.w3.org/2000/svg">
<circle cx="24" cy="24" r="24" fill="#9C9489"/>
<path d="M32.6962 22.4243L24.5942 15.2239C24.4299 15.0796 24.2187 15 24 15C23.7813 15 23.5701 15.0796 23.4058 15.2239L15.3038 22.4243C15.1661 22.5461 15.069 22.7071 15.0255 22.8857C14.9821 23.0644 14.9943 23.252 15.0607 23.4234C15.126 23.5925 15.2408 23.738 15.3902 23.8408C15.5396 23.9436 15.7166 23.9989 15.8979 23.9994H16.7982V32.0999C16.7982 32.3387 16.893 32.5676 17.0618 32.7364C17.2306 32.9052 17.4596 33 17.6984 33H30.3016C30.5404 33 30.7693 32.9052 30.9382 32.7364C31.107 32.5676 31.2018 32.3387 31.2018 32.0999V23.9994H32.1021C32.2834 23.9989 32.4604 23.9436 32.6098 23.8408C32.7592 23.738 32.874 23.5925 32.9393 23.4234C33.0057 23.252 33.0179 23.0644 32.9745 22.8857C32.931 22.7071 32.8339 22.5461 32.6962 22.4243V22.4243ZM24.9002 31.1999H23.0998V28.4997C23.0998 28.261 23.1946 28.0321 23.3634 27.8633C23.5323 27.6945 23.7612 27.5997 24 27.5997C24.2388 27.5997 24.4677 27.6945 24.6366 27.8633C24.8054 28.0321 24.9002 28.261 24.9002 28.4997V31.1999ZM29.4014 31.1999H26.7007V28.4997C26.7007 27.7836 26.4162 27.0968 25.9097 26.5904C25.4032 26.084 24.7163 25.7995 24 25.7995C23.2837 25.7995 22.5968 26.084 22.0903 26.5904C21.5838 27.0968 21.2993 27.7836 21.2993 28.4997V31.1999H18.5986V23.9994H29.4014V31.1999ZM18.2655 22.1993L24 17.105L29.7345 22.1993H18.2655Z" fill="white"/>
</svg>
