<svg width="48" height="48" viewBox="0 0 48 48" fill="none" xmlns="http://www.w3.org/2000/svg">
<circle cx="24" cy="24" r="24" fill="#9C9489"/>
<path fill-rule="evenodd" clip-rule="evenodd" d="M18.3002 18.3002V29.7002H19.9502V18.3002H18.3002ZM16.2002 18.0002C16.2002 17.0061 17.0061 16.2002 18.0002 16.2002H20.2502C21.2443 16.2002 22.0502 17.0061 22.0502 18.0002V30.0002C22.0502 30.9943 21.2443 31.8002 20.2502 31.8002H18.0002C17.0061 31.8002 16.2002 30.9943 16.2002 30.0002V18.0002Z" fill="white"/>
<path fill-rule="evenodd" clip-rule="evenodd" d="M28.0502 18.3002V29.7002H29.7002V18.3002H28.0502ZM25.9502 18.0002C25.9502 17.0061 26.7561 16.2002 27.7502 16.2002H30.0002C30.9943 16.2002 31.8002 17.0061 31.8002 18.0002V30.0002C31.8002 30.9943 30.9943 31.8002 30.0002 31.8002H27.7502C26.7561 31.8002 25.9502 30.9943 25.9502 30.0002V18.0002Z" fill="white"/>
<path fill-rule="evenodd" clip-rule="evenodd" d="M29.7002 19.5002C29.7002 18.9203 30.1703 18.4502 30.7502 18.4502H33.0002C33.4776 18.4502 33.9354 18.6398 34.273 18.9774C34.6106 19.315 34.8002 19.7728 34.8002 20.2502V27.7502C34.8002 28.2276 34.6106 28.6854 34.273 29.023C33.9354 29.3606 33.4776 29.5502 33.0002 29.5502H30.7502C30.1703 29.5502 29.7002 29.0801 29.7002 28.5002C29.7002 27.9203 30.1703 27.4502 30.7502 27.4502H32.7002V20.5502H30.7502C30.1703 20.5502 29.7002 20.0801 29.7002 19.5002Z" fill="white"/>
<path fill-rule="evenodd" clip-rule="evenodd" d="M15.3002 20.5502H17.2502C17.8301 20.5502 18.3002 20.0801 18.3002 19.5002C18.3002 18.9203 17.8301 18.4502 17.2502 18.4502H15.0002C14.5228 18.4502 14.065 18.6398 13.7274 18.9774C13.3898 19.315 13.2002 19.7728 13.2002 20.2502V27.7502C13.2002 28.2276 13.3898 28.6854 13.7274 29.023C14.065 29.3606 14.5228 29.5502 15.0002 29.5502H17.2502C17.8301 29.5502 18.3002 29.0801 18.3002 28.5002C18.3002 27.9203 17.8301 27.4502 17.2502 27.4502H15.3002V20.5502Z" fill="white"/>
<path fill-rule="evenodd" clip-rule="evenodd" d="M19.9502 24.0002C19.9502 23.4203 20.4203 22.9502 21.0002 22.9502H27.0002C27.5801 22.9502 28.0502 23.4203 28.0502 24.0002C28.0502 24.5801 27.5801 25.0502 27.0002 25.0502H21.0002C20.4203 25.0502 19.9502 24.5801 19.9502 24.0002Z" fill="white"/>
<path fill-rule="evenodd" clip-rule="evenodd" d="M32.7002 24.0002C32.7002 23.4203 33.1703 22.9502 33.7502 22.9502H35.2502C35.8301 22.9502 36.3002 23.4203 36.3002 24.0002C36.3002 24.5801 35.8301 25.0502 35.2502 25.0502H33.7502C33.1703 25.0502 32.7002 24.5801 32.7002 24.0002Z" fill="white"/>
<path fill-rule="evenodd" clip-rule="evenodd" d="M11.7002 24.0002C11.7002 23.4203 12.1703 22.9502 12.7502 22.9502H14.2502C14.8301 22.9502 15.3002 23.4203 15.3002 24.0002C15.3002 24.5801 14.8301 25.0502 14.2502 25.0502H12.7502C12.1703 25.0502 11.7002 24.5801 11.7002 24.0002Z" fill="white"/>
</svg>
