<svg width="18" height="16" viewBox="0 0 18 16" fill="none" xmlns="http://www.w3.org/2000/svg">
<path d="M3.50093 8.31701L1.95608 7.54459C1.89669 7.51489 1.84381 7.47367 1.80052 7.42331C1.75724 7.37296 1.72442 7.31449 1.70397 7.25131C1.68353 7.18814 1.67588 7.12152 1.68146 7.05536C1.68704 6.98919 1.70574 6.9248 1.73647 6.86594L3.27353 3.92238C3.33421 3.80618 3.43809 3.71846 3.56281 3.6781C3.68753 3.63774 3.82311 3.64797 3.94035 3.70659L5.50093 4.48689L3.50093 8.31701Z" stroke="white" stroke-width="1.4" stroke-linecap="round" stroke-linejoin="round"/>
<path d="M14.5 8.38388L13.5 9.55376L11.2002 11.8536C11.1391 11.9146 11.0633 11.9588 10.9801 11.9819C10.8969 12.0049 10.8091 12.006 10.7254 11.9851L7.10305 11.0795C7.03511 11.0625 6.97149 11.0315 6.91632 10.9883L3.5 8.31689" stroke="white" stroke-width="1.4" stroke-linecap="round" stroke-linejoin="round"/>
<path d="M13.5005 9.55371L10.7505 7.55371L9.95051 8.15371C9.60432 8.41336 9.18326 8.55371 8.75051 8.55371C8.31777 8.55371 7.89671 8.41336 7.55052 8.15371L7.21172 7.89961C7.15441 7.85663 7.10701 7.80184 7.07272 7.73894C7.03843 7.67604 7.01805 7.60651 7.01298 7.53506C7.0079 7.4636 7.01823 7.39189 7.04328 7.32478C7.06833 7.25766 7.10751 7.19671 7.15817 7.14606L9.60407 4.70016C9.6505 4.65373 9.70562 4.6169 9.76628 4.59177C9.82694 4.56664 9.89196 4.55371 9.95762 4.55371H12.5005" stroke="white" stroke-width="1.4" stroke-linecap="round" stroke-linejoin="round"/>
<path d="M5.53516 4.48682L8.74266 3.55172C8.85724 3.51832 8.97998 3.527 9.08872 3.5762L11.2493 4.5538" stroke="white" stroke-width="1.4" stroke-linecap="round" stroke-linejoin="round"/>
<path d="M8 13.3038L6.11628 12.8329C6.03984 12.8138 5.969 12.7769 5.90953 12.7252L4.5 11.5" stroke="white" stroke-width="1.4" stroke-linecap="round" stroke-linejoin="round"/>
<path d="M16.0449 7.61148L14.5 8.38391L12.5 4.55378L14.0606 3.77349C14.1778 3.71487 14.3134 3.70463 14.4381 3.74499C14.5628 3.78535 14.6667 3.87307 14.7274 3.98927L16.2645 6.93283C16.2952 6.99169 16.3139 7.05608 16.3195 7.12225C16.3251 7.18841 16.3174 7.25503 16.297 7.3182C16.2765 7.38138 16.2437 7.43985 16.2004 7.4902C16.1571 7.54056 16.1042 7.58178 16.0449 7.61148V7.61148Z" stroke="white" stroke-width="1.4" stroke-linecap="round" stroke-linejoin="round"/>
</svg>
