<svg width="18" height="18" viewBox="0 0 18 18" fill="none" xmlns="http://www.w3.org/2000/svg">
<path d="M13.4947 2.11273C13.0652 2.03948 12.6303 2.00177 12.1944 2C10.7074 1.9988 9.25143 2.421 8 3.2163C6.74535 2.43144 5.28959 2.0196 3.80557 2.02967C3.36973 2.03144 2.9348 2.06914 2.50529 2.1424C2.3646 2.16641 2.23719 2.23938 2.14602 2.34815C2.05484 2.45693 2.00587 2.59437 2.00795 2.73571V9.85548C2.00667 9.94265 2.0248 10.029 2.06107 10.1085C2.09734 10.1879 2.15084 10.2585 2.21778 10.3151C2.28471 10.3718 2.36343 10.4131 2.44834 10.4362C2.53325 10.4593 2.62225 10.4636 2.70902 10.4488C3.56769 10.3016 4.44743 10.326 5.29643 10.5206C6.14542 10.7152 6.94649 11.0761 7.65246 11.582L7.72437 11.6236H7.79028C7.85673 11.651 7.92801 11.6651 8 11.6651C8.07199 11.6651 8.14327 11.651 8.20972 11.6236H8.27563L8.34754 11.582C9.04858 11.0648 9.84736 10.6922 10.6965 10.4864C11.5457 10.2805 12.4279 10.2455 13.291 10.3835C13.3777 10.3984 13.4668 10.3941 13.5517 10.371C13.6366 10.3479 13.7153 10.3065 13.7822 10.2499C13.8492 10.1932 13.9027 10.1227 13.9389 10.0432C13.9752 9.96378 13.9933 9.87739 13.992 9.79021V2.67045C13.9858 2.53526 13.9331 2.40625 13.8426 2.30481C13.7522 2.20337 13.6294 2.1356 13.4947 2.11273ZM7.40079 9.99787C6.2922 9.42039 5.05821 9.119 3.80557 9.11977C3.60783 9.11977 3.41009 9.11977 3.20636 9.11977V3.18663C3.40593 3.17524 3.606 3.17524 3.80557 3.18663C5.0839 3.18523 6.33434 3.55667 7.40079 4.25459V9.99787ZM12.7936 9.1435C12.5899 9.1435 12.3922 9.1435 12.1944 9.1435C10.9418 9.14273 9.7078 9.44412 8.59921 10.0216V4.25459C9.66566 3.55667 10.9161 3.18523 12.1944 3.18663C12.394 3.17524 12.5941 3.17524 12.7936 3.18663V9.1435ZM13.4947 11.6058C13.0652 11.5325 12.6303 11.4948 12.1944 11.493C10.7074 11.4918 9.25143 11.914 8 12.7093C6.74857 11.914 5.29257 11.4918 3.80557 11.493C3.36973 11.4948 2.9348 11.5325 2.50529 11.6058C2.42729 11.618 2.35251 11.6454 2.28524 11.6864C2.21797 11.7274 2.15955 11.7811 2.11333 11.8445C2.06711 11.9079 2.03401 11.9797 2.01592 12.0559C1.99784 12.132 1.99513 12.2109 2.00795 12.2881C2.0384 12.4421 2.12928 12.578 2.26069 12.6658C2.39209 12.7537 2.55331 12.7864 2.70902 12.7568C3.56769 12.6096 4.44743 12.634 5.29643 12.8286C6.14542 13.0232 6.94649 13.3841 7.65246 13.89C7.75394 13.9616 7.87542 14 8 14C8.12458 14 8.24606 13.9616 8.34754 13.89C9.05351 13.3841 9.85458 13.0232 10.7036 12.8286C11.5526 12.634 12.4323 12.6096 13.291 12.7568C13.4467 12.7864 13.6079 12.7537 13.7393 12.6658C13.8707 12.578 13.9616 12.4421 13.992 12.2881C14.0049 12.2109 14.0022 12.132 13.9841 12.0559C13.966 11.9797 13.9329 11.9079 13.8867 11.8445C13.8404 11.7811 13.782 11.7274 13.7148 11.6864C13.6475 11.6454 13.5727 11.618 13.4947 11.6058Z" fill="white"/>
</svg>
