<svg width="16" height="16" viewBox="0 0 16 16" fill="none" xmlns="http://www.w3.org/2000/svg">
<path fill-rule="evenodd" clip-rule="evenodd" d="M5.49883 4.20029C4.0905 4.20029 2.94883 5.34197 2.94883 6.75029C2.94883 8.15862 4.0905 9.30029 5.49883 9.30029C6.90715 9.30029 8.04883 8.15862 8.04883 6.75029C8.04883 5.34197 6.90715 4.20029 5.49883 4.20029ZM1.54883 6.75029C1.54883 4.56877 3.3173 2.80029 5.49883 2.80029C7.68035 2.80029 9.44883 4.56877 9.44883 6.75029C9.44883 8.93182 7.68035 10.7003 5.49883 10.7003C3.3173 10.7003 1.54883 8.93182 1.54883 6.75029Z" fill="white"/>
<path fill-rule="evenodd" clip-rule="evenodd" d="M10.9805 4.22887C10.6203 4.17356 10.2525 4.19607 9.90173 4.29489C9.52962 4.39973 9.14297 4.18307 9.03813 3.81096C8.93329 3.43885 9.14995 3.0522 9.52206 2.94736C10.0653 2.79429 10.6351 2.75942 11.193 2.84509C11.7509 2.93077 12.284 3.13501 12.7563 3.44404C13.2286 3.75308 13.6292 4.15974 13.9311 4.63664C14.233 5.11354 14.4292 5.6496 14.5065 6.20872C14.5838 6.76783 14.5404 7.33702 14.3792 7.87794C14.218 8.41887 13.9427 8.91896 13.572 9.34455C13.2012 9.77014 12.7436 10.1113 12.2299 10.3452C11.7161 10.579 11.1583 10.7 10.5938 10.7001C10.2072 10.7001 9.89379 10.3867 9.89375 10.0001C9.8937 9.61354 10.2071 9.3001 10.5937 9.30006C10.9581 9.30002 11.3182 9.22189 11.6499 9.07093C11.9815 8.91998 12.277 8.6997 12.5164 8.42494C12.7557 8.15018 12.9334 7.82732 13.0375 7.47809C13.1416 7.12887 13.1696 6.7614 13.1197 6.40044C13.0698 6.03947 12.9431 5.69339 12.7482 5.3855C12.5533 5.07761 12.2947 4.81507 11.9897 4.61555C11.6848 4.41604 11.3407 4.28418 10.9805 4.22887Z" fill="white"/>
<path fill-rule="evenodd" clip-rule="evenodd" d="M5.49897 10.7003C4.7287 10.7003 3.96975 10.8857 3.28619 11.2407C2.60263 11.5958 2.01453 12.11 1.57153 12.7402C1.34919 13.0564 0.912567 13.1326 0.596302 12.9102C0.280037 12.6879 0.203898 12.2513 0.426239 11.935C0.998412 11.1211 1.75801 10.4569 2.64089 9.9983C3.52378 9.53974 4.50404 9.30033 5.49891 9.30029C6.49378 9.30026 7.47406 9.53959 8.35698 9.99809C9.23991 10.4566 9.99955 11.1208 10.5718 11.9346C10.7942 12.2509 10.718 12.6875 10.4018 12.9099C10.0856 13.1322 9.64892 13.0561 9.42655 12.7399C8.98351 12.1098 8.39537 11.5955 7.71178 11.2405C7.02819 10.8856 6.26923 10.7003 5.49897 10.7003Z" fill="white"/>
<path fill-rule="evenodd" clip-rule="evenodd" d="M12.8077 11.2397C12.1242 10.8848 11.3652 10.6997 10.595 10.7003C10.2084 10.7006 9.89481 10.3874 9.89453 10.0008C9.89425 9.6142 10.2074 9.30057 10.594 9.30029C11.5891 9.29957 12.5698 9.53865 13.4529 9.99728C14.3361 10.4559 15.0957 11.1206 15.6675 11.935C15.8896 12.2514 15.8132 12.688 15.4968 12.9102C15.1804 13.1323 14.7438 13.0559 14.5216 12.7395C14.0791 12.1091 13.4912 11.5947 12.8077 11.2397Z" fill="white"/>
</svg>
