<svg width="16" height="16" viewBox="0 0 16 16" fill="none" xmlns="http://www.w3.org/2000/svg">
<path fill-rule="evenodd" clip-rule="evenodd" d="M3.50078 4.1998C3.42122 4.1998 3.34491 4.23141 3.28865 4.28767C3.23239 4.34393 3.20078 4.42024 3.20078 4.4998V10.9998C3.20078 11.3864 2.88738 11.6998 2.50078 11.6998C2.11418 11.6998 1.80078 11.3864 1.80078 10.9998V4.4998C1.80078 4.04894 1.97989 3.61654 2.2987 3.29772C2.61751 2.97891 3.04991 2.7998 3.50078 2.7998H12.5008C12.9516 2.7998 13.3841 2.97891 13.7029 3.29772C14.0217 3.61653 14.2008 4.04894 14.2008 4.4998V10.9998C14.2008 11.3864 13.8874 11.6998 13.5008 11.6998C13.1142 11.6998 12.8008 11.3864 12.8008 10.9998V4.4998C12.8008 4.42024 12.7692 4.34393 12.7129 4.28767C12.6567 4.23141 12.5803 4.1998 12.5008 4.1998H3.50078Z" fill="white"/>
<path fill-rule="evenodd" clip-rule="evenodd" d="M0.800781 10.9998C0.800781 10.6132 1.11418 10.2998 1.50078 10.2998H14.5008C14.8874 10.2998 15.2008 10.6132 15.2008 10.9998V11.9998C15.2008 12.4507 15.0217 12.8831 14.7029 13.2019C14.3841 13.5207 13.9516 13.6998 13.5008 13.6998H2.50078C2.04991 13.6998 1.61751 13.5207 1.2987 13.2019C0.979888 12.8831 0.800781 12.4507 0.800781 11.9998V10.9998ZM2.20078 11.6998V11.9998C2.20078 12.0794 2.23239 12.1557 2.28865 12.2119C2.34491 12.2682 2.42122 12.2998 2.50078 12.2998H13.5008C13.5803 12.2998 13.6567 12.2682 13.7129 12.2119C13.7692 12.1557 13.8008 12.0794 13.8008 11.9998V11.6998H2.20078Z" fill="white"/>
<path fill-rule="evenodd" clip-rule="evenodd" d="M6.30078 5.4998C6.30078 5.11321 6.61418 4.7998 7.00078 4.7998H9.00078C9.38738 4.7998 9.70078 5.11321 9.70078 5.4998C9.70078 5.8864 9.38738 6.1998 9.00078 6.1998H7.00078C6.61418 6.1998 6.30078 5.8864 6.30078 5.4998Z" fill="white"/>
</svg>
