<svg width="16" height="16" viewBox="0 0 16 16" fill="none" xmlns="http://www.w3.org/2000/svg">
<path fill-rule="evenodd" clip-rule="evenodd" d="M5.2987 2.29772C5.61751 1.97891 6.04991 1.7998 6.50078 1.7998H9.50078C9.95165 1.7998 10.3841 1.97891 10.7029 2.29772C11.0217 2.61653 11.2008 3.04894 11.2008 3.4998V4.4998C11.2008 4.8864 10.8874 5.1998 10.5008 5.1998C10.1142 5.1998 9.80078 4.8864 9.80078 4.4998V3.4998C9.80078 3.42024 9.76917 3.34393 9.71291 3.28767C9.65665 3.23141 9.58035 3.1998 9.50078 3.1998H6.50078C6.42122 3.1998 6.34491 3.23141 6.28865 3.28767C6.23239 3.34393 6.20078 3.42024 6.20078 3.4998V4.4998C6.20078 4.8864 5.88738 5.1998 5.50078 5.1998C5.11418 5.1998 4.80078 4.8864 4.80078 4.4998V3.4998C4.80078 3.04894 4.97989 2.61653 5.2987 2.29772Z" fill="white"/>
<path fill-rule="evenodd" clip-rule="evenodd" d="M2.70098 5.1998V12.7998H13.301V5.1998H2.70098ZM1.30098 4.9998C1.30098 4.33706 1.83823 3.7998 2.50098 3.7998H13.501C14.1637 3.7998 14.701 4.33706 14.701 4.9998V12.9998C14.701 13.6625 14.1637 14.1998 13.501 14.1998H2.50098C1.83823 14.1998 1.30098 13.6625 1.30098 12.9998V4.9998Z" fill="white"/>
<path fill-rule="evenodd" clip-rule="evenodd" d="M14.6069 7.54358C14.8005 7.87821 14.6862 8.30642 14.3515 8.50002C12.4214 9.6167 10.2303 10.2031 8.00049 10.1998C5.77101 10.2031 3.58029 9.6169 1.6504 8.50059C1.31576 8.30701 1.20139 7.87881 1.39496 7.54416C1.58854 7.20951 2.01674 7.09515 2.35139 7.28872C4.06789 8.2816 6.01642 8.80292 7.99939 8.7998H8.00159C9.9849 8.80292 11.9337 8.28143 13.6504 7.28822C13.9851 7.09462 14.4133 7.20895 14.6069 7.54358Z" fill="white"/>
<path fill-rule="evenodd" clip-rule="evenodd" d="M6.55078 7.4998C6.55078 7.11321 6.86418 6.7998 7.25078 6.7998H8.75078C9.13738 6.7998 9.45078 7.11321 9.45078 7.4998C9.45078 7.8864 9.13738 8.1998 8.75078 8.1998H7.25078C6.86418 8.1998 6.55078 7.8864 6.55078 7.4998Z" fill="white"/>
</svg>
