<svg width="16" height="16" viewBox="0 0 16 16" fill="none" xmlns="http://www.w3.org/2000/svg">
<path fill-rule="evenodd" clip-rule="evenodd" d="M3.50078 5.2998C3.88738 5.2998 4.20078 5.61321 4.20078 5.9998V10.9998C4.20078 11.3864 3.88738 11.6998 3.50078 11.6998C3.11418 11.6998 2.80078 11.3864 2.80078 10.9998V5.9998C2.80078 5.61321 3.11418 5.2998 3.50078 5.2998Z" fill="white"/>
<path fill-rule="evenodd" clip-rule="evenodd" d="M6.50078 5.2998C6.88738 5.2998 7.20078 5.61321 7.20078 5.9998V10.9998C7.20078 11.3864 6.88738 11.6998 6.50078 11.6998C6.11418 11.6998 5.80078 11.3864 5.80078 10.9998V5.9998C5.80078 5.61321 6.11418 5.2998 6.50078 5.2998Z" fill="white"/>
<path fill-rule="evenodd" clip-rule="evenodd" d="M9.50078 5.2998C9.88738 5.2998 10.2008 5.61321 10.2008 5.9998V10.9998C10.2008 11.3864 9.88738 11.6998 9.50078 11.6998C9.11418 11.6998 8.80078 11.3864 8.80078 10.9998V5.9998C8.80078 5.61321 9.11418 5.2998 9.50078 5.2998Z" fill="white"/>
<path fill-rule="evenodd" clip-rule="evenodd" d="M12.5008 5.2998C12.8874 5.2998 13.2008 5.61321 13.2008 5.9998V10.9998C13.2008 11.3864 12.8874 11.6998 12.5008 11.6998C12.1142 11.6998 11.8008 11.3864 11.8008 10.9998V5.9998C11.8008 5.61321 12.1142 5.2998 12.5008 5.2998Z" fill="white"/>
<path fill-rule="evenodd" clip-rule="evenodd" d="M1.30078 10.9998C1.30078 10.6132 1.61418 10.2998 2.00078 10.2998H14.0008C14.3874 10.2998 14.7008 10.6132 14.7008 10.9998C14.7008 11.3864 14.3874 11.6998 14.0008 11.6998H2.00078C1.61418 11.6998 1.30078 11.3864 1.30078 10.9998Z" fill="white"/>
<path fill-rule="evenodd" clip-rule="evenodd" d="M0.300781 12.9998C0.300781 12.6132 0.614182 12.2998 1.00078 12.2998H15.0008C15.3874 12.2998 15.7008 12.6132 15.7008 12.9998C15.7008 13.3864 15.3874 13.6998 15.0008 13.6998H1.00078C0.614182 13.6998 0.300781 13.3864 0.300781 12.9998Z" fill="white"/>
<path fill-rule="evenodd" clip-rule="evenodd" d="M7.63397 1.40364C7.85896 1.26519 8.14272 1.26519 8.36771 1.40364L14.8677 5.40364C15.1344 5.56778 15.2597 5.8891 15.1744 6.19044C15.0891 6.49178 14.814 6.6998 14.5008 6.6998H1.50084C1.18766 6.6998 0.912593 6.49178 0.827301 6.19044C0.742009 5.8891 0.867252 5.56778 1.13397 5.40364L7.63397 1.40364ZM3.97397 5.2998H12.0277L8.00084 2.82173L3.97397 5.2998Z" fill="white"/>
</svg>
