<svg width="16" height="16" viewBox="0 0 16 16" fill="none" xmlns="http://www.w3.org/2000/svg">
<path d="M12.9 7.00001H12.676L11.801 5.12801C11.6447 4.79516 11.376 4.50994 11.0292 4.30895C10.6825 4.10796 10.2736 4.00038 9.855 4.00001H5.655C5.1687 3.99881 4.69699 4.14232 4.32039 4.40603C3.94379 4.66975 3.68564 5.03732 3.59 5.44601L3.226 7.00001H3.1C2.54305 7.00001 2.0089 7.18965 1.61508 7.52721C1.22125 7.86478 1 8.32261 1 8.8V10.6C1 10.7591 1.07375 10.9117 1.20503 11.0243C1.3363 11.1368 1.51435 11.2 1.7 11.2H2.4C2.4 11.6774 2.62125 12.1352 3.01508 12.4728C3.4089 12.8104 3.94305 13 4.5 13C5.05695 13 5.5911 12.8104 5.98492 12.4728C6.37875 12.1352 6.6 11.6774 6.6 11.2H9.4C9.4 11.6774 9.62125 12.1352 10.0151 12.4728C10.4089 12.8104 10.943 13 11.5 13C12.057 13 12.5911 12.8104 12.9849 12.4728C13.3788 12.1352 13.6 11.6774 13.6 11.2H14.3C14.4857 11.2 14.6637 11.1368 14.795 11.0243C14.9263 10.9117 15 10.7591 15 10.6V8.8C15 8.32261 14.7788 7.86478 14.3849 7.52721C13.9911 7.18965 13.457 7.00001 12.9 7.00001ZM8.7 5.20001H9.855C9.994 5.20108 10.1295 5.23761 10.2442 5.30493C10.3589 5.37225 10.4476 5.46731 10.499 5.57801L11.164 7.00001H8.7V5.20001ZM4.962 5.68001C4.99473 5.54244 5.0827 5.41907 5.2106 5.33136C5.3385 5.24366 5.49824 5.19718 5.662 5.20001H7.3V7.00001H4.654L4.962 5.68001ZM4.5 11.8C4.36155 11.8 4.22622 11.7648 4.1111 11.6989C3.99599 11.633 3.90627 11.5392 3.85328 11.4296C3.8003 11.32 3.78644 11.1993 3.81345 11.0829C3.84046 10.9666 3.90713 10.8596 4.00503 10.7757C4.10292 10.6918 4.22765 10.6347 4.36344 10.6115C4.49922 10.5884 4.63997 10.6003 4.76788 10.6457C4.89579 10.6911 5.00511 10.768 5.08203 10.8667C5.15895 10.9653 5.2 11.0813 5.2 11.2C5.2 11.3591 5.12625 11.5117 4.99497 11.6243C4.8637 11.7368 4.68565 11.8 4.5 11.8ZM11.5 11.8C11.3616 11.8 11.2262 11.7648 11.1111 11.6989C10.996 11.633 10.9063 11.5392 10.8533 11.4296C10.8003 11.32 10.7864 11.1993 10.8135 11.0829C10.8405 10.9666 10.9071 10.8596 11.005 10.7757C11.1029 10.6918 11.2276 10.6347 11.3634 10.6115C11.4992 10.5884 11.64 10.6003 11.7679 10.6457C11.8958 10.6911 12.0051 10.768 12.082 10.8667C12.1589 10.9653 12.2 11.0813 12.2 11.2C12.2 11.3591 12.1263 11.5117 11.995 11.6243C11.8637 11.7368 11.6857 11.8 11.5 11.8ZM13.6 10H13.054C12.8572 9.81439 12.6173 9.66609 12.3496 9.5646C12.082 9.46312 11.7926 9.4107 11.5 9.4107C11.2074 9.4107 10.918 9.46312 10.6504 9.5646C10.3827 9.66609 10.1428 9.81439 9.946 10H6.054C5.85717 9.81439 5.61726 9.66609 5.34965 9.5646C5.08204 9.46312 4.79263 9.4107 4.5 9.4107C4.20737 9.4107 3.91796 9.46312 3.65035 9.5646C3.38274 9.66609 3.14283 9.81439 2.946 10H2.4V8.8C2.4 8.64087 2.47375 8.48826 2.60503 8.37574C2.7363 8.26322 2.91435 8.2 3.1 8.2H12.9C13.0857 8.2 13.2637 8.26322 13.395 8.37574C13.5263 8.48826 13.6 8.64087 13.6 8.8V10Z" fill="white"/>
</svg>
