<svg width="16" height="16" viewBox="0 0 16 16" fill="none" xmlns="http://www.w3.org/2000/svg">
<path d="M12.375 4.25H10.5V3.6C10.5 2.91044 10.2366 2.24912 9.76777 1.76152C9.29893 1.27393 8.66304 1 8 1C7.33696 1 6.70107 1.27393 6.23223 1.76152C5.76339 2.24912 5.5 2.91044 5.5 3.6V4.25H3.625C3.45924 4.25 3.30027 4.31848 3.18306 4.44038C3.06585 4.56228 3 4.72761 3 4.9V12.05C3 12.5672 3.19754 13.0632 3.54917 13.4289C3.90081 13.7946 4.37772 14 4.875 14H11.125C11.6223 14 12.0992 13.7946 12.4508 13.4289C12.8025 13.0632 13 12.5672 13 12.05V4.9C13 4.72761 12.9342 4.56228 12.8169 4.44038C12.6997 4.31848 12.5408 4.25 12.375 4.25ZM6.75 3.6C6.75 3.25522 6.8817 2.92456 7.11612 2.68076C7.35054 2.43696 7.66848 2.3 8 2.3C8.33152 2.3 8.64946 2.43696 8.88388 2.68076C9.1183 2.92456 9.25 3.25522 9.25 3.6V4.25H6.75V3.6ZM11.75 12.05C11.75 12.2224 11.6842 12.3877 11.5669 12.5096C11.4497 12.6315 11.2908 12.7 11.125 12.7H4.875C4.70924 12.7 4.55027 12.6315 4.43306 12.5096C4.31585 12.3877 4.25 12.2224 4.25 12.05V5.55H5.5V6.2C5.5 6.37239 5.56585 6.53772 5.68306 6.65962C5.80027 6.78152 5.95924 6.85 6.125 6.85C6.29076 6.85 6.44973 6.78152 6.56694 6.65962C6.68415 6.53772 6.75 6.37239 6.75 6.2V5.55H9.25V6.2C9.25 6.37239 9.31585 6.53772 9.43306 6.65962C9.55027 6.78152 9.70924 6.85 9.875 6.85C10.0408 6.85 10.1997 6.78152 10.3169 6.65962C10.4342 6.53772 10.5 6.37239 10.5 6.2V5.55H11.75V12.05Z" fill="white"/>
</svg>
