<svg width="16" height="16" viewBox="0 0 16 16" fill="none" xmlns="http://www.w3.org/2000/svg">
<path fill-rule="evenodd" clip-rule="evenodd" d="M13.8195 5.48214C14.199 5.40863 14.5663 5.65672 14.6398 6.03627L15.664 11.3243C15.7544 11.8374 15.6788 12.366 15.4484 12.8333C15.2179 13.3006 14.8445 13.6823 14.3823 13.9229C13.9202 14.1635 13.3933 14.2505 12.8784 14.1712C12.3634 14.092 11.8871 13.8507 11.5186 13.4823C11.5061 13.4698 11.4942 13.457 11.4829 13.4438L8.79319 10.458C8.53444 10.1708 8.55754 9.72815 8.84477 9.4694C9.13201 9.21064 9.57463 9.23374 9.83338 9.52098L12.5214 12.5049C12.6775 12.6557 12.8765 12.7545 13.0912 12.7875C13.312 12.8215 13.5378 12.7842 13.7358 12.6811C13.9339 12.5779 14.094 12.4144 14.1928 12.2141C14.2908 12.0153 14.3234 11.7907 14.286 11.5724L13.2653 6.30247C13.1918 5.92292 13.4399 5.55565 13.8195 5.48214Z" fill="white"/>
<path fill-rule="evenodd" clip-rule="evenodd" d="M8.80078 6.7498C8.80078 6.36321 9.11418 6.0498 9.50078 6.0498H11.5008C11.8874 6.0498 12.2008 6.36321 12.2008 6.7498C12.2008 7.1364 11.8874 7.4498 11.5008 7.4498H9.50078C9.11418 7.4498 8.80078 7.1364 8.80078 6.7498Z" fill="white"/>
<path fill-rule="evenodd" clip-rule="evenodd" d="M3.80078 6.7498C3.80078 6.36321 4.11418 6.0498 4.50078 6.0498H6.50078C6.88738 6.0498 7.20078 6.36321 7.20078 6.7498C7.20078 7.1364 6.88738 7.4498 6.50078 7.4498H4.50078C4.11418 7.4498 3.80078 7.1364 3.80078 6.7498Z" fill="white"/>
<path fill-rule="evenodd" clip-rule="evenodd" d="M5.50078 5.0498C5.88738 5.0498 6.20078 5.36321 6.20078 5.7498V7.7498C6.20078 8.1364 5.88738 8.4498 5.50078 8.4498C5.11418 8.4498 4.80078 8.1364 4.80078 7.7498V5.7498C4.80078 5.36321 5.11418 5.0498 5.50078 5.0498Z" fill="white"/>
<path fill-rule="evenodd" clip-rule="evenodd" d="M10.7516 2.78369C11.7992 2.78369 12.8039 3.19985 13.5447 3.94062C14.2855 4.68139 14.7016 5.68609 14.7016 6.73369C14.7016 7.7813 14.2855 8.78599 13.5447 9.52676C12.8043 10.2672 11.8002 10.6833 10.7532 10.6837C10.7527 10.6837 10.7521 10.6837 10.7516 10.6837L7.00224 10.6987L4.51788 13.445C4.50686 13.4577 4.49531 13.4701 4.48323 13.4822C4.11477 13.8506 3.63846 14.092 3.12349 14.1712C2.60852 14.2504 2.08169 14.1634 1.61953 13.9228C1.15738 13.6822 0.783949 13.3006 0.553489 12.8333C0.323029 12.366 0.247536 11.8374 0.337977 11.3243L0.340113 11.3122L0.340219 11.3122L1.35772 6.0791C1.35851 6.07399 1.35936 6.06888 1.36026 6.06376C1.52177 5.14927 2.00024 4.32089 2.71168 3.72405C3.42285 3.12743 4.32137 2.80027 5.24963 2.79995L5.24868 2.79996L5.25075 3.49995L5.2507 2.79995M10.7516 2.78369V3.48369V2.78369ZM10.7516 4.18369L5.25282 4.19995L5.2508 4.19995C4.65122 4.2 4.07082 4.41124 3.61147 4.7966C3.15836 5.17672 2.85162 5.70231 2.74328 6.28323C2.74159 6.29524 2.73958 6.30723 2.73726 6.3192L1.71581 11.5726C1.67848 11.7908 1.71111 12.0154 1.80909 12.214C1.90787 12.4143 2.06792 12.5779 2.266 12.681C2.46408 12.7841 2.68988 12.8214 2.91059 12.7875C3.12551 12.7544 3.32471 12.6555 3.48082 12.5045L6.17131 9.53036C6.30337 9.38438 6.49078 9.30075 6.68762 9.29996L10.7488 9.2837L10.7516 9.28369C11.4279 9.28369 12.0765 9.01503 12.5547 8.53681C13.033 8.0586 13.3016 7.40999 13.3016 6.73369C13.3016 6.05739 13.033 5.40879 12.5547 4.93057C12.0768 4.45258 11.4285 4.18395 10.7526 4.18369C10.7523 4.18369 10.7519 4.18369 10.7516 4.18369Z" fill="white"/>
</svg>
