<svg width="16" height="16" viewBox="0 0 16 16" fill="none" xmlns="http://www.w3.org/2000/svg">
<path fill-rule="evenodd" clip-rule="evenodd" d="M8.00078 3.7998C8.38738 3.7998 8.70078 4.11321 8.70078 4.4998V5.4998C8.70078 5.8864 8.38738 6.1998 8.00078 6.1998C7.61418 6.1998 7.30078 5.8864 7.30078 5.4998V4.4998C7.30078 4.11321 7.61418 3.7998 8.00078 3.7998Z" fill="white"/>
<path fill-rule="evenodd" clip-rule="evenodd" d="M8.00078 9.7998C8.38738 9.7998 8.70078 10.1132 8.70078 10.4998V11.4998C8.70078 11.8864 8.38738 12.1998 8.00078 12.1998C7.61418 12.1998 7.30078 11.8864 7.30078 11.4998V10.4998C7.30078 10.1132 7.61418 9.7998 8.00078 9.7998Z" fill="white"/>
<path fill-rule="evenodd" clip-rule="evenodd" d="M8.00078 2.6998C5.07367 2.6998 2.70078 5.0727 2.70078 7.9998C2.70078 10.9269 5.07367 13.2998 8.00078 13.2998C10.9279 13.2998 13.3008 10.9269 13.3008 7.9998C13.3008 5.0727 10.9279 2.6998 8.00078 2.6998ZM1.30078 7.9998C1.30078 4.2995 4.30047 1.2998 8.00078 1.2998C11.7011 1.2998 14.7008 4.2995 14.7008 7.9998C14.7008 11.7001 11.7011 14.6998 8.00078 14.6998C4.30047 14.6998 1.30078 11.7001 1.30078 7.9998Z" fill="white"/>
<path fill-rule="evenodd" clip-rule="evenodd" d="M7.25078 6.1998C7.10491 6.1998 6.96502 6.25775 6.86187 6.3609C6.75873 6.46404 6.70078 6.60394 6.70078 6.7498C6.70078 6.89567 6.75873 7.03557 6.86187 7.13871C6.96502 7.24186 7.10491 7.2998 7.25078 7.2998H8.75078C9.26795 7.2998 9.76394 7.50525 10.1296 7.87095C10.4953 8.23664 10.7008 8.73263 10.7008 9.2498C10.7008 9.76698 10.4953 10.263 10.1296 10.6287C9.76394 10.9944 9.26795 11.1998 8.75078 11.1998H6.50078C6.11418 11.1998 5.80078 10.8864 5.80078 10.4998C5.80078 10.1132 6.11418 9.7998 6.50078 9.7998H8.75078C8.89665 9.7998 9.03655 9.74186 9.13969 9.63871C9.24284 9.53557 9.30078 9.39567 9.30078 9.2498C9.30078 9.10394 9.24284 8.96404 9.13969 8.8609C9.03655 8.75775 8.89665 8.6998 8.75078 8.6998H7.25078C6.73361 8.6998 6.23762 8.49436 5.87192 8.12866C5.50623 7.76297 5.30078 7.26698 5.30078 6.7498C5.30078 6.23263 5.50623 5.73664 5.87192 5.37095C6.23762 5.00525 6.73361 4.7998 7.25078 4.7998H9.50078C9.88738 4.7998 10.2008 5.11321 10.2008 5.4998C10.2008 5.8864 9.88738 6.1998 9.50078 6.1998H7.25078Z" fill="white"/>
</svg>
