<svg width="16" height="16" viewBox="0 0 16 16" fill="none" xmlns="http://www.w3.org/2000/svg">
<path d="M1.33538 2.89491C1.20905 3.52659 1.03218 4.86573 1.33538 5.16893M1.33538 5.16893C1.63859 5.47214 2.97777 4.91627 3.60947 4.78993M1.33538 5.16893C2.4055 2.67341 4.8845 0.925444 7.77179 0.925444C10.7179 0.925444 13.2388 2.7454 14.2718 5.32236M13.9773 11.1676C12.8079 13.4013 10.4678 14.9254 7.77179 14.9254C5.29949 14.9254 3.12655 13.6438 1.88115 11.7086" stroke="white" stroke-linecap="round" stroke-linejoin="round"/>
<path d="M14.5005 13C14.6268 12.3683 14.8037 11.0292 14.5005 10.726C14.1973 10.4228 12.8581 10.9786 12.2264 11.105" stroke="white" stroke-linecap="round" stroke-linejoin="round"/>
<path d="M8 5.6665V6.33317" stroke="white" stroke-linecap="round" stroke-linejoin="round"/>
<path d="M8 9.6665V10.3332" stroke="white" stroke-linecap="round" stroke-linejoin="round"/>
<path d="M8 12C10.2091 12 12 10.2091 12 8C12 5.79086 10.2091 4 8 4C5.79086 4 4 5.79086 4 8C4 10.2091 5.79086 12 8 12Z" stroke="white" stroke-linecap="round" stroke-linejoin="round"/>
<path d="M6.99935 9.66683H8.49935C8.72036 9.66683 8.93232 9.57903 9.0886 9.42275C9.24489 9.26647 9.33268 9.05451 9.33268 8.8335C9.33268 8.61248 9.24489 8.40052 9.0886 8.24424C8.93232 8.08796 8.72036 8.00016 8.49935 8.00016H7.49935C7.27834 8.00016 7.06637 7.91237 6.91009 7.75608C6.75381 7.5998 6.66602 7.38784 6.66602 7.16683C6.66602 6.94582 6.75381 6.73385 6.91009 6.57757C7.06637 6.42129 7.27834 6.3335 7.49935 6.3335H8.99935" stroke="white" stroke-linecap="round" stroke-linejoin="round"/>
</svg>
