<svg width="17" height="16" viewBox="0 0 17 16" fill="none" xmlns="http://www.w3.org/2000/svg">
<path d="M2.61092 14.6159C2.78242 14.6173 2.9526 14.585 3.11181 14.521C3.2719 14.4566 3.41784 14.3613 3.54114 14.2403L3.54115 14.2403L3.54468 14.2368L12.775 5.05C12.8591 4.97019 12.9718 4.92545 13.0894 4.92631C13.2084 4.92718 13.3217 4.97462 13.4049 5.05736C13.4879 5.13999 13.5344 5.25115 13.5354 5.36663C13.5363 5.48211 13.4916 5.59396 13.4099 5.67788L13.4038 5.68415L13.3978 5.69058C13.1672 5.93964 13.0417 6.26846 13.0485 6.60838L13.7484 6.5943L13.0485 6.60839C13.0554 6.9483 13.194 7.27178 13.4344 7.51136C13.6747 7.75084 13.9981 7.88802 14.3367 7.89521C14.6753 7.9024 15.0041 7.77908 15.2544 7.5501L15.267 7.53852L15.2791 7.52633C15.8505 6.94959 16.1703 6.17066 16.1675 5.35926C16.1647 4.54786 15.8396 3.77114 15.2643 3.1983C14.689 2.62557 13.9103 2.30305 13.0981 2.30002C12.2858 2.29699 11.5047 2.6137 10.9251 3.18211L10.9251 3.18209L10.9216 3.18559L1.68564 12.3735L1.68414 12.375C1.50069 12.5587 1.37556 12.7926 1.32502 13.0476C1.27447 13.3025 1.3009 13.5667 1.40082 13.8066C1.50074 14.0464 1.6695 14.2509 1.88535 14.3948L1.88535 14.3948C2.10041 14.538 2.35279 14.6148 2.61092 14.6159ZM2.61092 14.6159C2.60996 14.6159 2.609 14.6159 2.60804 14.6159L2.6151 13.9159L2.61363 14.6159C2.61272 14.6159 2.61182 14.6159 2.61092 14.6159Z" stroke="white" stroke-width="1.4" stroke-miterlimit="10"/>
<path d="M4 11.2144L4.88371 12.0939" stroke="white" stroke-width="1.4" stroke-miterlimit="10" stroke-linecap="round"/>
</svg>
