<svg width="16" height="16" viewBox="0 0 16 16" fill="none" xmlns="http://www.w3.org/2000/svg">
<path d="M13.25 8C13.9404 8 14.5 7.44036 14.5 6.75C14.5 6.05964 13.9404 5.5 13.25 5.5C12.5596 5.5 12 6.05964 12 6.75C12 7.44036 12.5596 8 13.25 8Z" stroke="white" stroke-width="1.4" stroke-linecap="round" stroke-linejoin="round"/>
<path d="M2.75 8C3.44036 8 4 7.44036 4 6.75C4 6.05964 3.44036 5.5 2.75 5.5C2.05964 5.5 1.5 6.05964 1.5 6.75C1.5 7.44036 2.05964 8 2.75 8Z" stroke="white" stroke-width="1.4" stroke-linecap="round" stroke-linejoin="round"/>
<path d="M5.75 5C6.44036 5 7 4.44036 7 3.75C7 3.05964 6.44036 2.5 5.75 2.5C5.05964 2.5 4.5 3.05964 4.5 3.75C4.5 4.44036 5.05964 5 5.75 5Z" stroke="white" stroke-width="1.4" stroke-linecap="round" stroke-linejoin="round"/>
<path d="M10.25 5C10.9404 5 11.5 4.44036 11.5 3.75C11.5 3.05964 10.9404 2.5 10.25 2.5C9.55964 2.5 9 3.05964 9 3.75C9 4.44036 9.55964 5 10.25 5Z" stroke="white" stroke-width="1.4" stroke-linecap="round" stroke-linejoin="round"/>
<path d="M11.4516 9.74084C10.8245 9.39252 10.3603 8.81067 10.1599 8.12186C10.0239 7.65405 9.73974 7.24308 9.35014 6.9506C8.96054 6.65812 8.48654 6.5 7.99937 6.5C7.51221 6.5 7.0382 6.65812 6.6486 6.9506C6.259 7.24308 5.97486 7.65411 5.83888 8.12192C5.63854 8.81074 5.17426 9.39252 4.54714 9.74084C4.0954 9.98572 3.7552 10.395 3.59708 10.8839C3.43895 11.3728 3.47502 11.9039 3.69781 12.3669C3.9206 12.8299 4.31302 13.1895 4.79372 13.371C5.27443 13.5525 5.80656 13.5421 6.27981 13.3419C7.38167 12.8901 8.61708 12.8901 9.71894 13.3419C10.1922 13.5424 10.7245 13.5529 11.2053 13.3714C11.6862 13.1899 12.0787 12.8303 12.3016 12.3672C12.5244 11.9041 12.5604 11.3729 12.4022 10.8839C12.2439 10.3949 11.9035 9.98561 11.4516 9.74084Z" stroke="white" stroke-width="1.4" stroke-linecap="round" stroke-linejoin="round"/>
</svg>
