<svg width="16" height="16" viewBox="0 0 16 16" fill="none" xmlns="http://www.w3.org/2000/svg">
<path fill-rule="evenodd" clip-rule="evenodd" d="M8.90967 2.26845C8.72355 2.44121 8.59123 2.6557 8.51572 2.79723C8.34241 3.12208 7.93857 3.24493 7.61372 3.07162C7.28887 2.89831 7.16603 2.49447 7.33934 2.16962C7.44659 1.96859 7.66136 1.60796 8.00258 1.29123C8.34954 0.969165 8.85774 0.666504 9.52545 0.666504C10.2757 0.666504 10.9788 0.910288 11.4358 1.45962C11.9003 2.01796 12.0053 2.76471 11.8107 3.54299C11.5653 4.52469 10.9627 5.34917 10.2832 5.97207C9.60352 6.59507 8.80599 7.05469 8.09776 7.29077C7.74847 7.4072 7.37092 7.21843 7.25449 6.86913C7.13806 6.51983 7.32683 6.14229 7.67612 6.02586C8.19677 5.85231 8.83294 5.49268 9.38218 4.9892C9.93154 4.48563 10.353 3.87642 10.5172 3.21961C10.6368 2.74122 10.5369 2.4639 10.4108 2.31234C10.2773 2.15178 10.0041 1.99984 9.52545 1.99984C9.28942 1.99984 9.09004 2.10103 8.90967 2.26845Z" fill="white"/>
<path fill-rule="evenodd" clip-rule="evenodd" d="M6.32146 1.99984C6.76158 1.99984 7.09104 2.37591 7.29489 2.7316C7.47796 3.05105 7.88534 3.1616 8.20479 2.97853C8.52424 2.79545 8.63479 2.38808 8.45171 2.06863C8.22628 1.67526 7.55485 0.666504 6.32146 0.666504C5.57123 0.666504 4.86806 0.910288 4.41106 1.45962C3.94657 2.01796 3.84162 2.76471 4.03619 3.54299C4.27427 4.49529 4.84848 5.29945 5.50187 5.91458C6.15561 6.53005 6.92445 6.99077 7.61819 7.24494C7.96391 7.3716 8.34685 7.19402 8.47351 6.8483C8.60017 6.50258 8.42259 6.11965 8.07687 5.99298C7.5563 5.80226 6.94148 5.43866 6.41583 4.94378C5.88981 4.44856 5.48889 3.85632 5.32972 3.21961C5.21012 2.74122 5.30998 2.4639 5.43607 2.31234C5.56964 2.15178 5.84281 1.99984 6.32146 1.99984Z" fill="white"/>
<path d="M12.9997 6.99984L11.1641 6.6665" stroke="white" stroke-width="1.4" stroke-linecap="round" stroke-linejoin="round"/>
<path d="M2.66602 7.33317L4.60953 6.6665" stroke="white" stroke-width="1.4" stroke-linecap="round" stroke-linejoin="round"/>
<path fill-rule="evenodd" clip-rule="evenodd" d="M13.2115 6.33317C13.5797 6.33317 13.8781 6.63164 13.8781 6.99983V12.2088C13.8781 12.4688 13.727 12.7051 13.4909 12.8141L8.16571 15.2718C7.98845 15.3536 7.78423 15.3536 7.60697 15.2718L2.28183 12.8141C2.04573 12.7051 1.89453 12.4688 1.89453 12.2088V7.6665C1.89453 7.29831 2.19301 6.99983 2.5612 6.99983C2.92939 6.99983 3.22786 7.29831 3.22786 7.6665V11.7822L7.88634 13.9323L12.5448 11.7822V6.99983C12.5448 6.63164 12.8433 6.33317 13.2115 6.33317Z" fill="white"/>
<path fill-rule="evenodd" clip-rule="evenodd" d="M7.88639 8.66651C8.25458 8.66651 8.55306 8.96499 8.55306 9.33318V14.6665C8.55306 15.0347 8.25458 15.3332 7.88639 15.3332C7.5182 15.3332 7.21973 15.0347 7.21973 14.6665V9.33318C7.21973 8.96499 7.5182 8.66651 7.88639 8.66651Z" fill="white"/>
<path fill-rule="evenodd" clip-rule="evenodd" d="M13.618 6.75226C13.7548 7.09411 13.5885 7.48209 13.2466 7.61884L8.24662 9.61884C8.10423 9.67579 7.94655 9.68192 7.80017 9.63617L2.46684 7.96951C2.11541 7.85968 1.91955 7.48576 2.02937 7.13434C2.13919 6.78291 2.51311 6.58704 2.86454 6.69687L7.97157 8.29281L12.7514 6.38087C13.0933 6.24413 13.4813 6.4104 13.618 6.75226Z" fill="white"/>
</svg>
