<svg width="16" height="16" viewBox="0 0 16 16" fill="none" xmlns="http://www.w3.org/2000/svg">
<path fill-rule="evenodd" clip-rule="evenodd" d="M6.70078 2.6998V5.9998C6.70078 6.3864 6.38738 6.6998 6.00078 6.6998H2.70078V9.2998H6.00078C6.38738 9.2998 6.70078 9.6132 6.70078 9.9998V13.2998H9.30078V9.9998C9.30078 9.6132 9.61418 9.2998 10.0008 9.2998H13.3008V6.6998H10.0008C9.61418 6.6998 9.30078 6.3864 9.30078 5.9998V2.6998H6.70078ZM5.65225 1.65128C5.8773 1.42623 6.18252 1.2998 6.50078 1.2998H9.50078C9.81904 1.2998 10.1243 1.42623 10.3493 1.65128C10.5744 1.87632 10.7008 2.18155 10.7008 2.4998V5.2998H13.5008C13.819 5.2998 14.1243 5.42623 14.3493 5.65128C14.5744 5.87632 14.7008 6.18155 14.7008 6.4998V9.4998C14.7008 9.81806 14.5744 10.1233 14.3493 10.3483C14.1243 10.5734 13.819 10.6998 13.5008 10.6998H10.7008V13.4998C10.7008 13.8181 10.5744 14.1233 10.3493 14.3483C10.1243 14.5734 9.81904 14.6998 9.50078 14.6998H6.50078C6.18252 14.6998 5.8773 14.5734 5.65225 14.3483C5.42721 14.1233 5.30078 13.8181 5.30078 13.4998V10.6998H2.50078C2.18252 10.6998 1.8773 10.5734 1.65225 10.3483C1.42721 10.1233 1.30078 9.81806 1.30078 9.4998V6.4998C1.30078 6.18154 1.42721 5.87632 1.65225 5.65128C1.8773 5.42623 2.18252 5.2998 2.50078 5.2998H5.30078V2.4998C5.30078 2.18154 5.42721 1.87632 5.65225 1.65128Z" fill="white"/>
</svg>
