<svg width="16" height="16" viewBox="0 0 16 16" fill="none" xmlns="http://www.w3.org/2000/svg">
<path fill-rule="evenodd" clip-rule="evenodd" d="M8.00078 8.7998C8.38738 8.7998 8.70078 9.11321 8.70078 9.4998V12.4998C8.70078 12.8864 8.38738 13.1998 8.00078 13.1998C7.61418 13.1998 7.30078 12.8864 7.30078 12.4998V9.4998C7.30078 9.11321 7.61418 8.7998 8.00078 8.7998Z" fill="white"/>
<path fill-rule="evenodd" clip-rule="evenodd" d="M12.0008 8.18164C12.3874 8.18164 12.7008 8.49504 12.7008 8.88164V11.8817C12.7008 12.2683 12.3874 12.5817 12.0008 12.5817C11.6142 12.5817 11.3008 12.2683 11.3008 11.8817V8.88164C11.3008 8.49504 11.6142 8.18164 12.0008 8.18164Z" fill="white"/>
<path fill-rule="evenodd" clip-rule="evenodd" d="M4.00078 8.18164C4.38738 8.18164 4.70078 8.49504 4.70078 8.88164V11.8817C4.70078 12.2683 4.38738 12.5817 4.00078 12.5817C3.61418 12.5817 3.30078 12.2683 3.30078 11.8817V8.88164C3.30078 8.49504 3.61418 8.18164 4.00078 8.18164Z" fill="white"/>
<path fill-rule="evenodd" clip-rule="evenodd" d="M1.50078 5.7998C1.88738 5.7998 2.20078 6.11321 2.20078 6.4998V9.4998C2.20078 9.84254 2.51429 10.4114 3.56383 10.9362C4.56846 11.4385 6.08018 11.7998 8.00078 11.7998C9.92139 11.7998 11.4331 11.4385 12.4377 10.9362C13.4873 10.4114 13.8008 9.84254 13.8008 9.4998V6.4998C13.8008 6.11321 14.1142 5.7998 14.5008 5.7998C14.8874 5.7998 15.2008 6.11321 15.2008 6.4998V9.4998C15.2008 10.6571 14.2643 11.5882 13.0638 12.1884C11.8185 12.8111 10.0802 13.1998 8.00078 13.1998C5.92139 13.1998 4.18311 12.8111 2.93773 12.1884C1.73728 11.5882 0.800781 10.6571 0.800781 9.4998V6.4998C0.800781 6.11321 1.11418 5.7998 1.50078 5.7998Z" fill="white"/>
<path fill-rule="evenodd" clip-rule="evenodd" d="M3.69793 5.01406C2.57339 5.53307 2.20078 6.109 2.20078 6.4998C2.20078 6.89061 2.57339 7.46654 3.69793 7.98555C4.763 8.47712 6.28358 8.7998 8.00078 8.7998C9.71798 8.7998 11.2386 8.47712 12.3036 7.98555C13.4282 7.46654 13.8008 6.89061 13.8008 6.4998C13.8008 6.109 13.4282 5.53307 12.3036 5.01406C11.2386 4.52248 9.71798 4.1998 8.00078 4.1998C6.28358 4.1998 4.763 4.52248 3.69793 5.01406ZM3.11125 3.74291C4.39871 3.1487 6.12813 2.7998 8.00078 2.7998C9.87343 2.7998 11.6028 3.1487 12.8903 3.74291C14.1183 4.30968 15.2008 5.23376 15.2008 6.4998C15.2008 7.76585 14.1183 8.68993 12.8903 9.2567C11.6028 9.85091 9.87343 10.1998 8.00078 10.1998C6.12813 10.1998 4.39871 9.85091 3.11125 9.2567C1.88324 8.68993 0.800781 7.76585 0.800781 6.4998C0.800781 5.23376 1.88324 4.30968 3.11125 3.74291Z" fill="white"/>
</svg>
