<svg width="18" height="18" viewBox="0 0 18 18" fill="none" xmlns="http://www.w3.org/2000/svg">
<path d="M13.7975 6.94955L8.3961 2.14925C8.28658 2.05305 8.14578 2 8 2C7.85422 2 7.71342 2.05305 7.6039 2.14925L2.20251 6.94955C2.11071 7.03075 2.04597 7.13809 2.017 7.25716C1.98804 7.37623 1.99622 7.50132 2.04047 7.6156C2.08399 7.72836 2.16056 7.82536 2.26016 7.89389C2.35975 7.96241 2.47772 7.99926 2.59861 7.99962H3.19877V13.4C3.19877 13.5591 3.262 13.7117 3.37455 13.8243C3.4871 13.9368 3.63975 14 3.79892 14H12.2011C12.3602 14 12.5129 13.9368 12.6255 13.8243C12.738 13.7117 12.8012 13.5591 12.8012 13.4V7.99962H13.4014C13.5223 7.99926 13.6403 7.96241 13.7398 7.89389C13.8394 7.82536 13.916 7.72836 13.9595 7.6156C14.0038 7.50132 14.012 7.37623 13.983 7.25716C13.954 7.13809 13.8893 7.03075 13.7975 6.94955ZM8.60015 12.7999H7.39985V10.9998C7.39985 10.8407 7.46308 10.688 7.57563 10.5755C7.68818 10.463 7.84083 10.3998 8 10.3998C8.15917 10.3998 8.31182 10.463 8.42437 10.5755C8.53692 10.688 8.60015 10.8407 8.60015 10.9998V12.7999ZM11.6009 12.7999H9.80046V10.9998C9.80046 10.5224 9.61077 10.0645 9.27312 9.72694C8.93547 9.38935 8.47751 9.1997 8 9.1997C7.52249 9.1997 7.06453 9.38935 6.72688 9.72694C6.38923 10.0645 6.19954 10.5224 6.19954 10.9998V12.7999H4.39908V7.99962H11.6009V12.7999ZM4.17702 6.79954L8 3.40333L11.823 6.79954H4.17702Z" fill="white"/>
</svg>
