<svg width="18" height="16" viewBox="0 0 18 16" fill="none" xmlns="http://www.w3.org/2000/svg">
<path fill-rule="evenodd" clip-rule="evenodd" d="M12.3931 2.15263C12.5849 1.81697 13.0125 1.70035 13.3482 1.89215L16.4375 3.65748C16.7038 3.80967 16.9018 4.05806 16.9907 4.35163C17.0796 4.64521 17.0526 4.96168 16.9155 5.23603L15.7652 7.53658C15.6655 7.73591 15.5123 7.90354 15.3228 8.02071C15.1332 8.13787 14.9147 8.19992 14.6919 8.19992H13.0009C12.6143 8.19992 12.3009 7.88652 12.3009 7.49992C12.3009 7.11333 12.6143 6.79992 13.0009 6.79992H14.5683L15.5787 4.77916L12.6536 3.10769C12.3179 2.91589 12.2013 2.48829 12.3931 2.15263Z" fill="white"/>
<path fill-rule="evenodd" clip-rule="evenodd" d="M5.60801 2.15263C5.79982 2.48829 5.6832 2.91589 5.34754 3.10769L2.42248 4.77916L3.43287 6.79992H5.00024C5.38684 6.79992 5.70024 7.11333 5.70024 7.49992C5.70024 7.88652 5.38684 8.19992 5.00024 8.19992H3.30926C3.08641 8.19992 2.86795 8.13787 2.67838 8.02071C2.48881 7.90354 2.33561 7.73591 2.23595 7.53658L1.08567 5.23603C0.948496 4.96168 0.921588 4.64521 1.01048 4.35163C1.09936 4.05806 1.2973 3.80967 1.56362 3.65748L4.65295 1.89215C4.98861 1.70035 5.41621 1.81697 5.60801 2.15263Z" fill="white"/>
<path fill-rule="evenodd" clip-rule="evenodd" d="M4.30078 2.4998C4.30078 2.11321 4.61418 1.7998 5.00078 1.7998H7.00078C7.38738 1.7998 7.70078 2.11321 7.70078 2.4998C7.70078 2.84459 7.83775 3.17525 8.08154 3.41904C8.32534 3.66284 8.656 3.7998 9.00078 3.7998C9.34556 3.7998 9.67622 3.66284 9.92002 3.41904C10.1638 3.17525 10.3008 2.84459 10.3008 2.4998C10.3008 2.11321 10.6142 1.7998 11.0008 1.7998H13.0008C13.3874 1.7998 13.7008 2.11321 13.7008 2.4998V12.9998C13.7008 13.3181 13.5744 13.6233 13.3493 13.8483C13.1243 14.0734 12.819 14.1998 12.5008 14.1998H5.50078C5.18252 14.1998 4.8773 14.0734 4.65225 13.8483C4.42721 13.6233 4.30078 13.3181 4.30078 12.9998V2.4998ZM5.70078 3.1998V12.7998H12.3008V3.1998H11.6085C11.4867 3.65324 11.2477 4.07125 10.91 4.40899C10.4036 4.91534 9.71687 5.1998 9.00078 5.1998C8.2847 5.1998 7.59794 4.91534 7.09159 4.40899C6.75385 4.07125 6.51483 3.65324 6.39309 3.1998H5.70078Z" fill="white"/>
</svg>
