<svg width="18" height="18" viewBox="0 0 18 18" fill="none" xmlns="http://www.w3.org/2000/svg">
<path d="M5.3 10.4C5.53869 10.4 5.76761 10.3052 5.9364 10.1364C6.10518 9.96761 6.2 9.7387 6.2 9.5C6.20293 9.47007 6.20293 9.43993 6.2 9.41L7.874 7.736H8.012H8.15L9.116 8.702C9.116 8.702 9.116 8.732 9.116 8.75C9.116 8.9887 9.21082 9.21761 9.3796 9.3864C9.54839 9.55518 9.7773 9.65 10.016 9.65C10.2547 9.65 10.4836 9.55518 10.6524 9.3864C10.8212 9.21761 10.916 8.9887 10.916 8.75V8.702L13.1 6.5C13.278 6.5 13.452 6.44722 13.6 6.34832C13.748 6.24943 13.8634 6.10887 13.9315 5.94442C13.9996 5.77996 14.0174 5.599 13.9827 5.42442C13.948 5.24984 13.8623 5.08947 13.7364 4.9636C13.6105 4.83774 13.4502 4.75202 13.2756 4.71729C13.101 4.68257 12.92 4.70039 12.7556 4.76851C12.5911 4.83663 12.4506 4.95198 12.3517 5.09999C12.2528 5.24799 12.2 5.422 12.2 5.6C12.1971 5.62993 12.1971 5.66007 12.2 5.69L10.034 7.856H9.938L8.9 6.8C8.9 6.56131 8.80518 6.33239 8.6364 6.1636C8.46761 5.99482 8.23869 5.9 8 5.9C7.76131 5.9 7.53239 5.99482 7.3636 6.1636C7.19482 6.33239 7.1 6.56131 7.1 6.8L5.3 8.6C5.06131 8.6 4.83239 8.69482 4.6636 8.8636C4.49482 9.03239 4.4 9.26131 4.4 9.5C4.4 9.7387 4.49482 9.96761 4.6636 10.1364C4.83239 10.3052 5.06131 10.4 5.3 10.4ZM13.4 12.8H3.2V2.6C3.2 2.44087 3.13679 2.28826 3.02426 2.17574C2.91174 2.06321 2.75913 2 2.6 2C2.44087 2 2.28826 2.06321 2.17574 2.17574C2.06321 2.28826 2 2.44087 2 2.6V13.4C2 13.5591 2.06321 13.7117 2.17574 13.8243C2.28826 13.9368 2.44087 14 2.6 14H13.4C13.5591 14 13.7117 13.9368 13.8243 13.8243C13.9368 13.7117 14 13.5591 14 13.4C14 13.2409 13.9368 13.0883 13.8243 12.9757C13.7117 12.8632 13.5591 12.8 13.4 12.8Z" fill="white"/>
</svg>
