<svg width="16" height="16" viewBox="0 0 16 16" fill="none" xmlns="http://www.w3.org/2000/svg">
<path fill-rule="evenodd" clip-rule="evenodd" d="M8.00078 2.6998C5.07367 2.6998 2.70078 5.0727 2.70078 7.9998C2.70078 10.9269 5.07367 13.2998 8.00078 13.2998C10.9279 13.2998 13.3008 10.9269 13.3008 7.9998C13.3008 5.0727 10.9279 2.6998 8.00078 2.6998ZM1.30078 7.9998C1.30078 4.2995 4.30047 1.2998 8.00078 1.2998C11.7011 1.2998 14.7008 4.2995 14.7008 7.9998C14.7008 11.7001 11.7011 14.6998 8.00078 14.6998C4.30047 14.6998 1.30078 11.7001 1.30078 7.9998Z" fill="white"/>
<ellipse cx="10.5" cy="7" rx="1.5" ry="1" fill="white"/>
<ellipse cx="8.5" cy="10" rx="1.5" ry="1" fill="white"/>
<ellipse cx="5.5" cy="7" rx="1.5" ry="1" fill="white"/>
</svg>
