<svg width="16" height="16" viewBox="0 0 16 16" fill="none" xmlns="http://www.w3.org/2000/svg">
<g clip-path="url(#clip0_496_29990)">
<mask id="path-1-inside-1_496_29990" fill="white">
<rect x="2" y="9.3623" width="2.61224" height="4.57143" rx="1"/>
</mask>
<rect x="2" y="9.3623" width="2.61224" height="4.57143" rx="1" stroke="white" stroke-width="2.61224" stroke-linecap="round" stroke-linejoin="round" mask="url(#path-1-inside-1_496_29990)"/>
<path d="M4.625 10.0156H5.68145C5.83669 10.0156 5.98981 10.0518 6.12866 10.1212L7.8767 10.9952H9.50935C9.83589 10.9952 10.4048 10.8113 10.666 11.3337" stroke="white" stroke-width="1.6" stroke-linecap="round" stroke-linejoin="round"/>
<path d="M7.55046 12.3012H8.53005L12.775 10.6685C12.9926 10.5597 13.4933 10.4726 13.7545 10.995C14.0811 11.6481 14.0811 11.9746 13.7545 12.3012C13.5962 12.4595 12.1505 13.1855 10.6242 13.9268C8.90276 14.7628 6.88404 14.6983 5.20403 13.7819L4.28516 13.2807" stroke="white" stroke-width="1.6" stroke-linecap="round" stroke-linejoin="round"/>
<path d="M8.83789 9.36231C9.93273 9.36231 12.1224 9.02757 12.1224 6.80769C12.1224 4.61801 10.7843 3.64482 9.93273 3.15823C10.2694 2.82157 10.6222 2.38787 10.8373 2.01099C11.0507 1.63717 10.7372 1.3335 10.3068 1.3335H8.83789" stroke="white" stroke-width="1.6" stroke-linecap="round" stroke-linejoin="round"/>
<path d="M9.20312 9.36231C8.10829 9.36231 5.91861 9.02757 5.91861 6.80769C5.91861 4.61801 7.25675 3.64482 8.10829 3.15823C7.77163 2.82157 7.4188 2.38787 7.20367 2.01099C6.99029 1.63717 7.30378 1.3335 7.73421 1.3335H9.20312" stroke="white" stroke-width="1.6" stroke-linecap="round" stroke-linejoin="round"/>
<path fill-rule="evenodd" clip-rule="evenodd" d="M9.0662 4.79102C9.23652 4.79102 9.37459 4.92909 9.37459 5.09941V5.53996C9.37459 5.71028 9.23652 5.84835 9.0662 5.84835C8.89588 5.84835 8.75781 5.71028 8.75781 5.53996V5.09941C8.75781 4.92909 8.89588 4.79102 9.0662 4.79102Z" fill="white" stroke="white" stroke-width="0.2" stroke-linecap="round" stroke-linejoin="round"/>
<path fill-rule="evenodd" clip-rule="evenodd" d="M9.0662 7.43408C9.23652 7.43408 9.37459 7.57215 9.37459 7.74247V8.18303C9.37459 8.35335 9.23652 8.49142 9.0662 8.49142C8.89588 8.49142 8.75781 8.35335 8.75781 8.18303V7.74247C8.75781 7.57215 8.89588 7.43408 9.0662 7.43408Z" fill="white" stroke="white" stroke-width="0.2" stroke-linecap="round" stroke-linejoin="round"/>
<path fill-rule="evenodd" clip-rule="evenodd" d="M8.73604 5.84823C8.67178 5.84823 8.61014 5.87375 8.5647 5.9192C8.51926 5.96464 8.49373 6.02627 8.49373 6.09053C8.49373 6.1548 8.51926 6.21643 8.5647 6.26187C8.61014 6.30731 8.67178 6.33284 8.73604 6.33284H9.39688C9.62472 6.33284 9.84323 6.42335 10.0043 6.58446C10.1655 6.74557 10.256 6.96408 10.256 7.19192C10.256 7.41977 10.1655 7.63828 10.0043 7.79939C9.84323 7.9605 9.62472 8.05101 9.39688 8.05101H8.40562C8.2353 8.05101 8.09723 7.91294 8.09723 7.74262C8.09723 7.5723 8.2353 7.43423 8.40562 7.43423H9.39688C9.46114 7.43423 9.52277 7.4087 9.56821 7.36326C9.61365 7.31782 9.63918 7.25619 9.63918 7.19192C9.63918 7.12766 9.61365 7.06603 9.56821 7.02059C9.52277 6.97515 9.46114 6.94962 9.39688 6.94962H8.73604C8.5082 6.94962 8.28968 6.85911 8.12857 6.698C7.96746 6.53689 7.87695 6.31838 7.87695 6.09053C7.87695 5.86269 7.96746 5.64418 8.12857 5.48307C8.28968 5.32196 8.5082 5.23145 8.73604 5.23145H9.72729C9.89761 5.23145 10.0357 5.36952 10.0357 5.53984C10.0357 5.71015 9.89761 5.84823 9.72729 5.84823H8.73604Z" fill="white" stroke="white" stroke-width="0.2" stroke-linecap="round" stroke-linejoin="round"/>
</g>
<defs>
<clipPath id="clip0_496_29990">
<rect width="16" height="16" fill="white"/>
</clipPath>
</defs>
</svg>
