<svg width="16" height="16" viewBox="0 0 16 16" fill="none" xmlns="http://www.w3.org/2000/svg">
<path fill-rule="evenodd" clip-rule="evenodd" d="M2.70078 3.6998V11.8672L3.68773 11.3737C3.8848 11.2752 4.11676 11.2752 4.31383 11.3737L6.00078 12.2172L7.68773 11.3737C7.8848 11.2752 8.11676 11.2752 8.31383 11.3737L10.0008 12.2172L11.6877 11.3737C11.8848 11.2752 12.1168 11.2752 12.3138 11.3737L13.3008 11.8672V3.6998H2.70078ZM1.65225 2.65128C1.8773 2.42623 2.18252 2.2998 2.50078 2.2998H13.5008C13.819 2.2998 14.1243 2.42623 14.3493 2.65128C14.5744 2.87632 14.7008 3.18155 14.7008 3.4998V12.9998C14.7008 13.2424 14.5752 13.4677 14.3688 13.5953C14.1624 13.7228 13.9047 13.7344 13.6877 13.6259L12.0008 12.7824L10.3138 13.6259C10.1168 13.7244 9.8848 13.7244 9.68773 13.6259L8.00078 12.7824L6.31383 13.6259C6.11676 13.7244 5.8848 13.7244 5.68773 13.6259L4.00078 12.7824L2.31383 13.6259C2.09684 13.7344 1.83914 13.7228 1.63277 13.5953C1.4264 13.4677 1.30078 13.2424 1.30078 12.9998V3.4998C1.30078 3.18154 1.42721 2.87632 1.65225 2.65128ZM4.05078 6.4998C4.05078 6.11321 4.36418 5.7998 4.75078 5.7998H11.2508C11.6374 5.7998 11.9508 6.11321 11.9508 6.4998C11.9508 6.8864 11.6374 7.1998 11.2508 7.1998H4.75078C4.36418 7.1998 4.05078 6.8864 4.05078 6.4998ZM4.05078 8.4998C4.05078 8.1132 4.36418 7.7998 4.75078 7.7998H11.2508C11.6374 7.7998 11.9508 8.1132 11.9508 8.4998C11.9508 8.8864 11.6374 9.1998 11.2508 9.1998H4.75078C4.36418 9.1998 4.05078 8.8864 4.05078 8.4998Z" fill="white"/>
</svg>
