<svg width="16" height="16" viewBox="0 0 16 16" fill="none" xmlns="http://www.w3.org/2000/svg">
<path fill-rule="evenodd" clip-rule="evenodd" d="M0.798828 6.05303C0.798828 5.66643 1.11223 5.35303 1.49883 5.35303H14.4988C14.8854 5.35303 15.1988 5.66643 15.1988 6.05303C15.1988 6.43963 14.8854 6.75303 14.4988 6.75303H1.49883C1.11223 6.75303 0.798828 6.43963 0.798828 6.05303Z" fill="white"/>
<path fill-rule="evenodd" clip-rule="evenodd" d="M2.19883 4.1998V11.7998H13.7988V4.1998H2.19883ZM0.798828 3.9998C0.798828 3.33706 1.33609 2.7998 1.99883 2.7998H13.9988C14.6616 2.7998 15.1988 3.33706 15.1988 3.9998V11.9998C15.1988 12.6625 14.6616 13.1998 13.9988 13.1998H1.99883C1.33609 13.1998 0.798828 12.6625 0.798828 11.9998V3.9998Z" fill="white"/>
<path fill-rule="evenodd" clip-rule="evenodd" d="M9.79883 10.4998C9.79883 10.1132 10.1122 9.7998 10.4988 9.7998H12.4988C12.8854 9.7998 13.1988 10.1132 13.1988 10.4998C13.1988 10.8864 12.8854 11.1998 12.4988 11.1998H10.4988C10.1122 11.1998 9.79883 10.8864 9.79883 10.4998Z" fill="white"/>
<path fill-rule="evenodd" clip-rule="evenodd" d="M6.79883 10.4998C6.79883 10.1132 7.11223 9.7998 7.49883 9.7998H8.49883C8.88543 9.7998 9.19883 10.1132 9.19883 10.4998C9.19883 10.8864 8.88543 11.1998 8.49883 11.1998H7.49883C7.11223 11.1998 6.79883 10.8864 6.79883 10.4998Z" fill="white"/>
</svg>
