<svg width="18" height="16" viewBox="0 0 18 16" fill="none" xmlns="http://www.w3.org/2000/svg">
<path fill-rule="evenodd" clip-rule="evenodd" d="M5.20078 4.1998V11.7998H6.30078V4.1998H5.20078ZM3.80078 3.9998C3.80078 3.33706 4.33804 2.7998 5.00078 2.7998H6.50078C7.16352 2.7998 7.70078 3.33706 7.70078 3.9998V11.9998C7.70078 12.6625 7.16352 13.1998 6.50078 13.1998H5.00078C4.33804 13.1998 3.80078 12.6625 3.80078 11.9998V3.9998Z" fill="white"/>
<path fill-rule="evenodd" clip-rule="evenodd" d="M11.7008 4.1998V11.7998H12.8008V4.1998H11.7008ZM10.3008 3.9998C10.3008 3.33706 10.838 2.7998 11.5008 2.7998H13.0008C13.6635 2.7998 14.2008 3.33706 14.2008 3.9998V11.9998C14.2008 12.6625 13.6635 13.1998 13.0008 13.1998H11.5008C10.838 13.1998 10.3008 12.6625 10.3008 11.9998V3.9998Z" fill="white"/>
<path fill-rule="evenodd" clip-rule="evenodd" d="M12.8008 4.9998C12.8008 4.61321 13.1142 4.2998 13.5008 4.2998H15.0008C15.319 4.2998 15.6243 4.42623 15.8493 4.65128C16.0744 4.87632 16.2008 5.18155 16.2008 5.4998V10.4998C16.2008 10.8181 16.0744 11.1233 15.8493 11.3483C15.6243 11.5734 15.319 11.6998 15.0008 11.6998H13.5008C13.1142 11.6998 12.8008 11.3864 12.8008 10.9998C12.8008 10.6132 13.1142 10.2998 13.5008 10.2998H14.8008V5.6998H13.5008C13.1142 5.6998 12.8008 5.3864 12.8008 4.9998Z" fill="white"/>
<path fill-rule="evenodd" clip-rule="evenodd" d="M3.20078 5.6998H4.50078C4.88738 5.6998 5.20078 5.3864 5.20078 4.9998C5.20078 4.61321 4.88738 4.2998 4.50078 4.2998H3.00078C2.68252 4.2998 2.3773 4.42623 2.15225 4.65128C1.92721 4.87632 1.80078 5.18155 1.80078 5.4998V10.4998C1.80078 10.8181 1.92721 11.1233 2.15225 11.3483C2.3773 11.5734 2.68252 11.6998 3.00078 11.6998H4.50078C4.88738 11.6998 5.20078 11.3864 5.20078 10.9998C5.20078 10.6132 4.88738 10.2998 4.50078 10.2998H3.20078V5.6998Z" fill="white"/>
<path fill-rule="evenodd" clip-rule="evenodd" d="M6.30078 7.9998C6.30078 7.6132 6.61418 7.2998 7.00078 7.2998H11.0008C11.3874 7.2998 11.7008 7.6132 11.7008 7.9998C11.7008 8.3864 11.3874 8.6998 11.0008 8.6998H7.00078C6.61418 8.6998 6.30078 8.3864 6.30078 7.9998Z" fill="white"/>
<path fill-rule="evenodd" clip-rule="evenodd" d="M14.8008 7.9998C14.8008 7.6132 15.1142 7.2998 15.5008 7.2998H16.5008C16.8874 7.2998 17.2008 7.6132 17.2008 7.9998C17.2008 8.3864 16.8874 8.6998 16.5008 8.6998H15.5008C15.1142 8.6998 14.8008 8.3864 14.8008 7.9998Z" fill="white"/>
<path fill-rule="evenodd" clip-rule="evenodd" d="M0.800781 7.9998C0.800781 7.6132 1.11418 7.2998 1.50078 7.2998H2.50078C2.88738 7.2998 3.20078 7.6132 3.20078 7.9998C3.20078 8.3864 2.88738 8.6998 2.50078 8.6998H1.50078C1.11418 8.6998 0.800781 8.3864 0.800781 7.9998Z" fill="white"/>
</svg>
