<svg width="16" height="16" viewBox="0 0 16 16" fill="none" xmlns="http://www.w3.org/2000/svg">
<path d="M13.0571 2.97283C13.131 2.78798 13.1085 2.57849 12.9968 2.41362C12.8852 2.24876 12.6991 2.15 12.5 2.15C11.0905 2.15 10.2398 2.74259 9.86036 3.32164L7.3582 3.65526L4.5457 4.03026C4.47991 4.03904 4.41604 4.05866 4.35667 4.08834C4.32126 4.10605 4.28143 4.12538 4.23776 4.14658C3.85452 4.3326 3.17564 4.66211 2.59037 5.29616C1.91831 6.02422 1.4 7.11021 1.4 8.75C1.4 11.4468 3.25655 12.6746 4.50952 13.012L4.79291 14.1455C4.85969 14.4126 5.09968 14.6 5.375 14.6H6.875C7.15032 14.6 7.39031 14.4126 7.45709 14.1455L7.71847 13.1H8.65653L8.91791 14.1455C8.98469 14.4126 9.22468 14.6 9.5 14.6H11C11.2753 14.6 11.5153 14.4126 11.5821 14.1455L11.8707 12.991C13.1219 12.5932 13.7853 11.5907 14.0698 10.85H14.75C15.0814 10.85 15.35 10.5814 15.35 10.25V7.625C15.35 7.29363 15.0814 7.025 14.75 7.025H14.1704C14.0494 6.3628 13.7423 5.79246 13.4001 5.34081C13.1096 4.9573 12.7808 4.64164 12.4835 4.40689L13.0571 2.97283Z" stroke="white" stroke-width="1.2" stroke-linecap="round" stroke-linejoin="round"/>
<path d="M11 6.875V7.625" stroke="white" stroke-width="1.2" stroke-linecap="round" stroke-linejoin="round"/>
<circle cx="7.25" cy="3.875" r="1.875" fill="white" stroke="white" stroke-width="1.2" stroke-linecap="round" stroke-linejoin="round"/>
</svg>
