<svg width="18" height="18" viewBox="0 0 18 18" fill="none" xmlns="http://www.w3.org/2000/svg">
<path d="M11.4028 8.5825V3.55C11.4028 3.40413 11.3438 3.26424 11.2387 3.16109C11.1336 3.05795 10.9912 3 10.8426 3C10.694 3 10.5515 3.05795 10.4465 3.16109C10.3414 3.26424 10.2824 3.40413 10.2824 3.55V8.5825C9.79726 8.72081 9.37103 9.01015 9.06792 9.40695C8.76481 9.80375 8.60124 10.2865 8.60185 10.7825C8.60185 11.91 9.45333 13.9725 10.8426 13.9725C12.2318 13.9725 13.0833 11.91 13.0833 10.7825C13.0839 10.2865 12.9204 9.80375 12.6173 9.40695C12.3141 9.01015 11.8879 8.72081 11.4028 8.5825ZM10.8426 12.9C10.3944 12.9 9.72222 11.6515 9.72222 10.81C9.7085 10.504 9.81859 10.205 10.0285 9.97834C10.2383 9.75167 10.531 9.61567 10.8426 9.6C11.1542 9.61567 11.4468 9.75167 11.6567 9.97834C11.8666 10.205 11.9767 10.504 11.963 10.81C11.963 11.6515 11.2907 12.9 10.8426 12.9ZM6.9213 3C6.77273 3 6.63024 3.05795 6.52518 3.16109C6.42013 3.26424 6.36111 3.40413 6.36111 3.55V6.553L5.80093 6.9215V3.55C5.80093 3.40413 5.74191 3.26424 5.63685 3.16109C5.5318 3.05795 5.38931 3 5.24074 3C5.09217 3 4.94968 3.05795 4.84463 3.16109C4.73957 3.26424 4.68056 3.40413 4.68056 3.55V6.9215L4.12037 6.553V3.55C4.12037 3.40413 4.06135 3.26424 3.9563 3.16109C3.85124 3.05795 3.70876 3 3.56019 3C3.41161 3 3.26913 3.05795 3.16407 3.16109C3.05902 3.26424 3 3.40413 3 3.55V6.85C3.00048 6.94059 3.02374 7.02966 3.06771 7.1093C3.11169 7.18894 3.17502 7.25668 3.25208 7.3065L4.68056 8.247V13.45C4.68056 13.5959 4.73957 13.7358 4.84463 13.8389C4.94968 13.9421 5.09217 14 5.24074 14C5.38931 14 5.5318 13.9421 5.63685 13.8389C5.74191 13.7358 5.80093 13.5959 5.80093 13.45V8.247L7.2294 7.3065C7.30646 7.25668 7.36979 7.18894 7.41377 7.1093C7.45774 7.02966 7.481 6.94059 7.48148 6.85V3.55C7.48148 3.40413 7.42246 3.26424 7.31741 3.16109C7.21235 3.05795 7.06987 3 6.9213 3Z" fill="white"/>
</svg>
