<svg width="16" height="16" viewBox="0 0 16 16" fill="none" xmlns="http://www.w3.org/2000/svg">
<g clip-path="url(#clip0_482_30354)">
<path d="M8 8C7.62242 8 7.25331 8.10557 6.93937 8.30336C6.62542 8.50114 6.38072 8.78226 6.23623 9.11117C6.09174 9.44008 6.05393 9.802 6.12759 10.1512C6.20125 10.5003 6.38308 10.8211 6.65007 11.0728C6.91706 11.3245 7.25723 11.496 7.62755 11.5654C7.99788 11.6349 8.38174 11.5992 8.73058 11.463C9.07942 11.3267 9.37758 11.096 9.58735 10.8C9.79712 10.504 9.90909 10.156 9.90909 9.8C9.90909 9.32261 9.70796 8.86477 9.34993 8.52721C8.99191 8.18964 8.50632 8 8 8ZM8 10.4C7.87414 10.4 7.7511 10.3648 7.64645 10.2989C7.54181 10.233 7.46024 10.1392 7.41208 10.0296C7.36391 9.91997 7.35131 9.79933 7.37586 9.68295C7.40042 9.56656 7.46103 9.45965 7.55002 9.37574C7.63902 9.29182 7.75241 9.23468 7.87585 9.21153C7.99929 9.18838 8.12725 9.20026 8.24353 9.24567C8.35981 9.29109 8.45919 9.36799 8.52912 9.46666C8.59904 9.56533 8.63636 9.68133 8.63636 9.8C8.63636 9.95913 8.56932 10.1117 8.44998 10.2243C8.33064 10.3368 8.16877 10.4 8 10.4ZM7.54818 6.626C7.6087 6.68062 7.68007 6.72344 7.75818 6.752C7.83435 6.78374 7.91672 6.80014 8 6.80014C8.08328 6.80014 8.16565 6.78374 8.24182 6.752C8.31993 6.72344 8.3913 6.68062 8.45182 6.626L9.90909 5.276C10.0323 5.15984 10.1015 5.00228 10.1015 4.838C10.1015 4.67372 10.0323 4.51617 9.90909 4.4C9.78589 4.28384 9.61878 4.21857 9.44455 4.21857C9.27031 4.21857 9.1032 4.28384 8.98 4.4L8.63636 4.754V2.6C8.63636 2.44087 8.56932 2.28826 8.44998 2.17574C8.33064 2.06321 8.16877 2 8 2C7.83123 2 7.66936 2.06321 7.55002 2.17574C7.43068 2.28826 7.36364 2.44087 7.36364 2.6V4.754L7.02 4.4C6.89679 4.28384 6.72969 4.21857 6.55545 4.21857C6.38122 4.21857 6.21411 4.28384 6.09091 4.4C5.9677 4.51617 5.89849 4.67372 5.89849 4.838C5.89849 5.00228 5.9677 5.15984 6.09091 5.276L7.54818 6.626ZM12.4545 9.8C12.4545 9.68133 12.4172 9.56533 12.3473 9.46666C12.2774 9.36799 12.178 9.29109 12.0617 9.24567C11.9454 9.20026 11.8175 9.18838 11.694 9.21153C11.5706 9.23468 11.4572 9.29182 11.3682 9.37574C11.2792 9.45965 11.2186 9.56656 11.194 9.68295C11.1695 9.79933 11.1821 9.91997 11.2303 10.0296C11.2784 10.1392 11.36 10.233 11.4646 10.2989C11.5693 10.3648 11.6923 10.4 11.8182 10.4C11.987 10.4 12.1488 10.3368 12.2682 10.2243C12.3875 10.1117 12.4545 9.95913 12.4545 9.8ZM13.0909 5.6H11.1818C11.013 5.6 10.8512 5.66321 10.7318 5.77574C10.6125 5.88826 10.5455 6.04087 10.5455 6.2C10.5455 6.35913 10.6125 6.51174 10.7318 6.62426C10.8512 6.73679 11.013 6.8 11.1818 6.8H13.0909C13.2597 6.8 13.4215 6.86321 13.5409 6.97574C13.6602 7.08826 13.7273 7.24087 13.7273 7.4V12.2C13.7273 12.3591 13.6602 12.5117 13.5409 12.6243C13.4215 12.7368 13.2597 12.8 13.0909 12.8H2.90909C2.74032 12.8 2.57846 12.7368 2.45911 12.6243C2.33977 12.5117 2.27273 12.3591 2.27273 12.2V7.4C2.27273 7.24087 2.33977 7.08826 2.45911 6.97574C2.57846 6.86321 2.74032 6.8 2.90909 6.8H4.81818C4.98696 6.8 5.14882 6.73679 5.26816 6.62426C5.3875 6.51174 5.45455 6.35913 5.45455 6.2C5.45455 6.04087 5.3875 5.88826 5.26816 5.77574C5.14882 5.66321 4.98696 5.6 4.81818 5.6H2.90909C2.40277 5.6 1.91718 5.78964 1.55916 6.12721C1.20114 6.46477 1 6.92261 1 7.4V12.2C1 12.6774 1.20114 13.1352 1.55916 13.4728C1.91718 13.8104 2.40277 14 2.90909 14H13.0909C13.5972 14 14.0828 13.8104 14.4408 13.4728C14.7989 13.1352 15 12.6774 15 12.2V7.4C15 6.92261 14.7989 6.46477 14.4408 6.12721C14.0828 5.78964 13.5972 5.6 13.0909 5.6ZM3.54545 9.8C3.54545 9.91867 3.58278 10.0347 3.6527 10.1333C3.72263 10.232 3.82201 10.3089 3.93829 10.3543C4.05457 10.3997 4.18252 10.4116 4.30597 10.3885C4.42941 10.3653 4.5428 10.3082 4.63179 10.2243C4.72079 10.1404 4.7814 10.0334 4.80595 9.91705C4.83051 9.80067 4.81791 9.68003 4.76974 9.57039C4.72158 9.46075 4.64001 9.36705 4.53536 9.30112C4.43071 9.23519 4.30768 9.2 4.18182 9.2C4.01304 9.2 3.85118 9.26321 3.73184 9.37574C3.6125 9.48826 3.54545 9.64087 3.54545 9.8Z" fill="white"/>
</g>
<defs>
<clipPath id="clip0_482_30354">
<rect width="16" height="16" fill="white"/>
</clipPath>
</defs>
</svg>
