<svg width="16" height="16" viewBox="0 0 16 16" fill="none" xmlns="http://www.w3.org/2000/svg">
<path d="M13.0954 5.02531L10.9922 7.00019L12.9922 12.5002L11.4922 14.0002L8.5042 9.62648L6.99219 11.0002V12.5002L5.49219 14.0002L4.60516 11.3843L1.99219 10.5002L3.49219 9.00019H4.99219L6.49219 7.50019L1.99219 4.50019L3.49219 3.00019L8.99219 5.00019L10.9741 2.90399L10.9315 2.93953C11.0708 2.79999 11.2361 2.68926 11.4182 2.61368C11.6002 2.53809 11.7954 2.49913 11.9925 2.49902C12.1897 2.49892 12.3849 2.53766 12.567 2.61305C12.7491 2.68843 12.9146 2.79898 13.054 2.93836C13.1934 3.07775 13.3039 3.24324 13.3793 3.42538C13.4547 3.60752 13.4935 3.80273 13.4934 3.99985C13.4932 4.19697 13.4543 4.39214 13.3787 4.57419C13.3031 4.75625 13.1924 4.92162 13.0528 5.06085L13.0954 5.02531Z" stroke="white" stroke-width="1.2" stroke-linecap="round" stroke-linejoin="round"/>
</svg>
