<svg width="18" height="18" viewBox="0 0 18 18" fill="none" xmlns="http://www.w3.org/2000/svg">
<path d="M13.79 2.14467C13.7246 2.08854 13.6479 2.04717 13.565 2.02336C13.4822 1.99955 13.3952 1.99386 13.31 2.00668L5.51 3.20661C5.36796 3.22816 5.23836 3.29996 5.14477 3.40895C5.05118 3.51795 4.99981 3.65691 5 3.80057V10.0102C4.71966 9.8733 4.41199 9.80152 4.1 9.80024C3.68466 9.80024 3.27865 9.92339 2.9333 10.1541C2.58796 10.3849 2.3188 10.7128 2.15985 11.0965C2.00091 11.4802 1.95932 11.9024 2.04035 12.3098C2.12138 12.7171 2.32139 13.0913 2.61508 13.385C2.90877 13.6786 3.28295 13.8786 3.69031 13.9597C4.09767 14.0407 4.51991 13.9991 4.90364 13.8402C5.28736 13.6812 5.61534 13.4121 5.84609 13.0667C6.07684 12.7214 6.2 12.3154 6.2 11.9001V7.31638L12.8 6.30243V8.81029C12.5197 8.67337 12.212 8.60158 11.9 8.6003C11.4847 8.6003 11.0786 8.72346 10.7333 8.9542C10.388 9.18494 10.1188 9.51289 9.95985 9.8966C9.80091 10.2803 9.75932 10.7025 9.84035 11.1099C9.92138 11.5172 10.1214 11.8914 10.4151 12.185C10.7088 12.4787 11.083 12.6787 11.4903 12.7597C11.8977 12.8407 12.3199 12.7992 12.7036 12.6402C13.0874 12.4813 13.4153 12.2121 13.6461 11.8668C13.8768 11.5215 14 11.1155 14 10.7002V2.60064C14 2.51398 13.9812 2.42835 13.945 2.34964C13.9087 2.27092 13.8559 2.201 13.79 2.14467ZM4.1 12.8001C3.922 12.8001 3.74799 12.7473 3.59999 12.6484C3.45198 12.5495 3.33663 12.409 3.26851 12.2445C3.20039 12.0801 3.18257 11.8991 3.21729 11.7245C3.25202 11.55 3.33774 11.3896 3.4636 11.2638C3.58947 11.1379 3.74984 11.0522 3.92442 11.0175C4.099 10.9827 4.27996 11.0006 4.44442 11.0687C4.60887 11.1368 4.74943 11.2521 4.84832 11.4001C4.94722 11.5481 5 11.7221 5 11.9001C5 12.1388 4.90518 12.3677 4.7364 12.5365C4.56761 12.7053 4.3387 12.8001 4.1 12.8001ZM11.9 11.6001C11.722 11.6001 11.548 11.5474 11.4 11.4485C11.252 11.3496 11.1366 11.209 11.0685 11.0446C11.0004 10.8801 10.9826 10.6992 11.0173 10.5246C11.052 10.35 11.1377 10.1897 11.2636 10.0638C11.3895 9.93796 11.5498 9.85225 11.7244 9.81753C11.899 9.7828 12.08 9.80063 12.2444 9.86874C12.4089 9.93686 12.5494 10.0522 12.6483 10.2002C12.7472 10.3482 12.8 10.5222 12.8 10.7002C12.8 10.9389 12.7052 11.1678 12.5364 11.3365C12.3676 11.5053 12.1387 11.6001 11.9 11.6001ZM12.8 5.0845L6.2 6.09844V4.29855L12.8 3.3026V5.0845Z" fill="white"/>
</svg>
