<svg width="16" height="16" viewBox="0 0 16 16" fill="none" xmlns="http://www.w3.org/2000/svg">
<path fill-rule="evenodd" clip-rule="evenodd" d="M8.00078 2.4498C6.86035 2.4498 5.76663 2.90284 4.96022 3.70925C4.15382 4.51565 3.70078 5.60937 3.70078 6.7498V9.2498C3.70078 10.3902 4.15382 11.484 4.96022 12.2904C5.76663 13.0968 6.86035 13.5498 8.00078 13.5498C9.14121 13.5498 10.2349 13.0968 11.0413 12.2904C11.8477 11.484 12.3008 10.3902 12.3008 9.2498V6.7498C12.3008 5.60937 11.8477 4.51565 11.0413 3.70925C10.2349 2.90284 9.14121 2.4498 8.00078 2.4498ZM3.97027 2.7193C5.03923 1.65034 6.48905 1.0498 8.00078 1.0498C9.51252 1.0498 10.9623 1.65034 12.0313 2.7193C13.1002 3.78825 13.7008 5.23807 13.7008 6.7498V9.2498C13.7008 10.7615 13.1002 12.2114 12.0313 13.2803C10.9623 14.3493 9.51252 14.9498 8.00078 14.9498C6.48905 14.9498 5.03923 14.3493 3.97027 13.2803C2.90132 12.2114 2.30078 10.7615 2.30078 9.2498V6.7498C2.30078 5.23807 2.90132 3.78825 3.97027 2.7193Z" fill="white"/>
<path fill-rule="evenodd" clip-rule="evenodd" d="M2.30078 7.9998C2.30078 7.61321 2.61418 7.2998 3.00078 7.2998H12.5008C12.8874 7.2998 13.2008 7.61321 13.2008 7.9998C13.2008 8.3864 12.8874 8.6998 12.5008 8.6998H3.00078C2.61418 8.6998 2.30078 8.3864 2.30078 7.9998Z" fill="white"/>
<path d="M9.75 6.5C10.1642 6.5 10.5 6.16421 10.5 5.75C10.5 5.33579 10.1642 5 9.75 5C9.33579 5 9 5.33579 9 5.75C9 6.16421 9.33579 6.5 9.75 6.5Z" fill="white"/>
<path d="M6.25 6.5C6.66421 6.5 7 6.16421 7 5.75C7 5.33579 6.66421 5 6.25 5C5.83579 5 5.5 5.33579 5.5 5.75C5.5 6.16421 5.83579 6.5 6.25 6.5Z" fill="white"/>
</svg>
