<svg width="16" height="16" viewBox="0 0 16 16" fill="none" xmlns="http://www.w3.org/2000/svg">
<path fill-rule="evenodd" clip-rule="evenodd" d="M5.2987 2.29772C5.61751 1.97891 6.04991 1.7998 6.50078 1.7998H9.50078C9.95165 1.7998 10.3841 1.97891 10.7029 2.29772C11.0217 2.61653 11.2008 3.04894 11.2008 3.4998V4.4998C11.2008 4.8864 10.8874 5.1998 10.5008 5.1998C10.1142 5.1998 9.80078 4.8864 9.80078 4.4998V3.4998C9.80078 3.42024 9.76917 3.34393 9.71291 3.28767C9.65665 3.23141 9.58035 3.1998 9.50078 3.1998H6.50078C6.42122 3.1998 6.34491 3.23141 6.28865 3.28767C6.23239 3.34393 6.20078 3.42024 6.20078 3.4998V4.4998C6.20078 4.8864 5.88738 5.1998 5.50078 5.1998C5.11418 5.1998 4.80078 4.8864 4.80078 4.4998V3.4998C4.80078 3.04894 4.97989 2.61653 5.2987 2.29772Z" fill="white"/>
<path fill-rule="evenodd" clip-rule="evenodd" d="M2.70078 5.1998V12.7998H13.3008V5.1998H2.70078ZM1.30078 4.9998C1.30078 4.33706 1.83804 3.7998 2.50078 3.7998H13.5008C14.1635 3.7998 14.7008 4.33706 14.7008 4.9998V12.9998C14.7008 13.6625 14.1635 14.1998 13.5008 14.1998H2.50078C1.83804 14.1998 1.30078 13.6625 1.30078 12.9998V4.9998Z" fill="white"/>
<path fill-rule="evenodd" clip-rule="evenodd" d="M8.00078 6.5498C8.38738 6.5498 8.70078 6.86321 8.70078 7.2498V10.7498C8.70078 11.1364 8.38738 11.4498 8.00078 11.4498C7.61418 11.4498 7.30078 11.1364 7.30078 10.7498V7.2498C7.30078 6.86321 7.61418 6.5498 8.00078 6.5498Z" fill="white"/>
<path fill-rule="evenodd" clip-rule="evenodd" d="M5.55078 8.9998C5.55078 8.61321 5.86418 8.2998 6.25078 8.2998H9.75078C10.1374 8.2998 10.4508 8.61321 10.4508 8.9998C10.4508 9.3864 10.1374 9.6998 9.75078 9.6998H6.25078C5.86418 9.6998 5.55078 9.3864 5.55078 8.9998Z" fill="white"/>
</svg>
