<svg width="24" height="24" viewBox="0 0 24 24" fill="none" xmlns="http://www.w3.org/2000/svg">
<g clip-path="url(#clip0_6012_255753)">
<mask id="path-1-inside-1_6012_255753" fill="white">
<rect x="3" y="14.043" width="3.91837" height="6.85714" rx="1"/>
</mask>
<rect x="3" y="14.043" width="3.91837" height="6.85714" rx="1" stroke="white" stroke-width="3.2" stroke-linecap="round" stroke-linejoin="round" mask="url(#path-1-inside-1_6012_255753)"/>
<path d="M6.9375 15.0225H8.64021C8.79545 15.0225 8.94857 15.0586 9.08742 15.128L11.8151 16.4918H14.264C14.7538 16.4918 15.6072 16.216 15.999 16.9996" stroke="white" stroke-width="1.6" stroke-linecap="round" stroke-linejoin="round"/>
<path d="M11.3257 18.4508H12.7951L19.1624 16.0018C19.489 15.8385 20.24 15.7079 20.6318 16.4916C21.1216 17.4712 21.1216 17.961 20.6318 18.4508C20.3469 18.7356 17.2828 20.2462 14.5647 21.5515C12.8396 22.3799 10.8225 22.3173 9.14253 21.4009L6.42773 19.9201" stroke="white" stroke-width="1.6" stroke-linecap="round" stroke-linejoin="round"/>
<path d="M13.2559 14.0432C14.8981 14.0432 18.1826 13.5411 18.1826 10.2113C18.1826 6.92677 16.1754 5.46699 14.8981 4.7371C15.5019 4.13327 16.1405 3.32131 16.4191 2.69581C16.5942 2.30262 16.25 2 15.8196 2H13.2559" stroke="white" stroke-width="1.6" stroke-linecap="round" stroke-linejoin="round"/>
<path d="M13.8027 14.0432C12.1605 14.0432 8.87596 13.5411 8.87596 10.2113C8.87596 6.92677 10.8832 5.46699 12.1605 4.7371C11.5567 4.13327 10.9181 3.32131 10.6395 2.69581C10.4644 2.30262 10.8085 2 11.239 2H13.8027" stroke="white" stroke-width="1.6" stroke-linecap="round" stroke-linejoin="round"/>
<path fill-rule="evenodd" clip-rule="evenodd" d="M13.5993 7.18652C13.8548 7.18652 14.0619 7.39363 14.0619 7.64911V8.30994C14.0619 8.56542 13.8548 8.77253 13.5993 8.77253C13.3438 8.77253 13.1367 8.56542 13.1367 8.30994V7.64911C13.1367 7.39363 13.3438 7.18652 13.5993 7.18652Z" fill="white" stroke="white" stroke-width="0.2" stroke-linecap="round" stroke-linejoin="round"/>
<path fill-rule="evenodd" clip-rule="evenodd" d="M13.5993 11.1514C13.8548 11.1514 14.0619 11.3585 14.0619 11.614V12.2748C14.0619 12.5303 13.8548 12.7374 13.5993 12.7374C13.3438 12.7374 13.1367 12.5303 13.1367 12.2748V11.614C13.1367 11.3585 13.3438 11.1514 13.5993 11.1514Z" fill="white" stroke="white" stroke-width="0.2" stroke-linecap="round" stroke-linejoin="round"/>
<path fill-rule="evenodd" clip-rule="evenodd" d="M13.1031 8.77283C13.0067 8.77283 12.9142 8.81112 12.8461 8.87928C12.7779 8.94744 12.7396 9.03989 12.7396 9.13629C12.7396 9.23268 12.7779 9.32513 12.8461 9.39329C12.9142 9.46145 13.0067 9.49975 13.1031 9.49975H14.0943C14.4361 9.49975 14.7639 9.63551 15.0055 9.87718C15.2472 10.1188 15.383 10.4466 15.383 10.7884C15.383 11.1301 15.2472 11.4579 15.0055 11.6996C14.7639 11.9412 14.4361 12.077 14.0943 12.077H12.6075C12.352 12.077 12.1449 11.8699 12.1449 11.6144C12.1449 11.3589 12.352 11.1518 12.6075 11.1518H14.0943C14.1907 11.1518 14.2832 11.1135 14.3513 11.0454C14.4195 10.9772 14.4578 10.8848 14.4578 10.7884C14.4578 10.692 14.4195 10.5995 14.3513 10.5314C14.2832 10.4632 14.1907 10.4249 14.0943 10.4249H13.1031C12.7613 10.4249 12.4335 10.2891 12.1919 10.0475C11.9502 9.80582 11.8145 9.47805 11.8145 9.13629C11.8145 8.79452 11.9502 8.46675 12.1919 8.22509C12.4335 7.98342 12.7613 7.84766 13.1031 7.84766H14.59C14.8454 7.84766 15.0525 8.05476 15.0525 8.31024C15.0525 8.56572 14.8454 8.77283 14.59 8.77283H13.1031Z" fill="white" stroke="white" stroke-width="0.2" stroke-linecap="round" stroke-linejoin="round"/>
</g>
<defs>
<clipPath id="clip0_6012_255753">
<rect width="24" height="24" fill="white"/>
</clipPath>
</defs>
</svg>
