<svg width="24" height="24" viewBox="0 0 24 24" fill="none" xmlns="http://www.w3.org/2000/svg">
<path fill-rule="evenodd" clip-rule="evenodd" d="M11.9992 4.0502C7.60855 4.0502 4.04922 7.60953 4.04922 12.0002C4.04922 16.3909 7.60855 19.9502 11.9992 19.9502C16.3899 19.9502 19.9492 16.3909 19.9492 12.0002C19.9492 7.60953 16.3899 4.0502 11.9992 4.0502ZM1.94922 12.0002C1.94922 6.44973 6.44876 1.9502 11.9992 1.9502C17.5497 1.9502 22.0492 6.44973 22.0492 12.0002C22.0492 17.5507 17.5497 22.0502 11.9992 22.0502C6.44876 22.0502 1.94922 17.5507 1.94922 12.0002Z" fill="white"/>
<ellipse cx="15" cy="10.5" rx="2" ry="1.5" fill="white"/>
<ellipse cx="12" cy="15.5" rx="2" ry="1.5" fill="white"/>
<ellipse cx="9" cy="10.5" rx="2" ry="1.5" fill="white"/>
</svg>
