<svg width="18" height="12" viewBox="0 0 18 12" fill="none" xmlns="http://www.w3.org/2000/svg">
<path d="M15.3 4.00001H15.012L13.887 1.50401C13.6861 1.06021 13.3405 0.679918 12.8947 0.411933C12.4489 0.143948 11.9232 0.000502963 11.385 9.8382e-06H5.985C5.35976 -0.00158084 4.75328 0.189763 4.26907 0.54138C3.78487 0.892997 3.45296 1.38309 3.33 1.92801L2.862 4.00001H2.7C1.98392 4.00001 1.29716 4.25286 0.790812 4.70295C0.284464 5.15304 0 5.76349 0 6.4V8.8C0 9.01218 0.0948211 9.21566 0.263604 9.36569C0.432387 9.51572 0.661305 9.6 0.9 9.6H1.8C1.8 10.2365 2.08446 10.847 2.59081 11.2971C3.09716 11.7471 3.78392 12 4.5 12C5.21608 12 5.90284 11.7471 6.40919 11.2971C6.91554 10.847 7.2 10.2365 7.2 9.6H10.8C10.8 10.2365 11.0845 10.847 11.5908 11.2971C12.0972 11.7471 12.7839 12 13.5 12C14.2161 12 14.9028 11.7471 15.4092 11.2971C15.9155 10.847 16.2 10.2365 16.2 9.6H17.1C17.3387 9.6 17.5676 9.51572 17.7364 9.36569C17.9052 9.21566 18 9.01218 18 8.8V6.4C18 5.76349 17.7155 5.15304 17.2092 4.70295C16.7028 4.25286 16.0161 4.00001 15.3 4.00001V4.00001ZM9.9 1.60001H11.385C11.5637 1.60145 11.7379 1.65015 11.8854 1.73991C12.0328 1.82966 12.1469 1.95642 12.213 2.10401L13.068 4.00001H9.9V1.60001ZM5.094 2.24001C5.13608 2.05659 5.24918 1.89209 5.41363 1.77515C5.57807 1.65821 5.78345 1.59623 5.994 1.60001H8.1V4.00001H4.698L5.094 2.24001ZM4.5 10.4C4.322 10.4 4.14799 10.3531 3.99999 10.2652C3.85198 10.1773 3.73663 10.0523 3.66851 9.90615C3.60039 9.75997 3.58257 9.59911 3.61729 9.44393C3.65202 9.28874 3.73774 9.1462 3.8636 9.03432C3.98947 8.92244 4.14984 8.84624 4.32442 8.81537C4.499 8.78451 4.67996 8.80035 4.84441 8.8609C5.00887 8.92145 5.14943 9.02399 5.24832 9.15555C5.34722 9.28711 5.4 9.44178 5.4 9.6C5.4 9.81218 5.30518 10.0157 5.1364 10.1657C4.96761 10.3157 4.73869 10.4 4.5 10.4ZM13.5 10.4C13.322 10.4 13.148 10.3531 13 10.2652C12.852 10.1773 12.7366 10.0523 12.6685 9.90615C12.6004 9.75997 12.5826 9.59911 12.6173 9.44393C12.652 9.28874 12.7377 9.1462 12.8636 9.03432C12.9895 8.92244 13.1498 8.84624 13.3244 8.81537C13.499 8.78451 13.68 8.80035 13.8444 8.8609C14.0089 8.92145 14.1494 9.02399 14.2483 9.15555C14.3472 9.28711 14.4 9.44178 14.4 9.6C14.4 9.81218 14.3052 10.0157 14.1364 10.1657C13.9676 10.3157 13.7387 10.4 13.5 10.4ZM16.2 8H15.498C15.2449 7.75252 14.9365 7.55478 14.5924 7.41947C14.2483 7.28416 13.8762 7.21426 13.5 7.21426C13.1238 7.21426 12.7517 7.28416 12.4076 7.41947C12.0635 7.55478 11.7551 7.75252 11.502 8H6.498C6.24494 7.75252 5.93648 7.55478 5.5924 7.41947C5.24833 7.28416 4.87624 7.21426 4.5 7.21426C4.12376 7.21426 3.75167 7.28416 3.4076 7.41947C3.06352 7.55478 2.75506 7.75252 2.502 8H1.8V6.4C1.8 6.18783 1.89482 5.98435 2.0636 5.83432C2.23239 5.68429 2.46131 5.60001 2.7 5.60001H15.3C15.5387 5.60001 15.7676 5.68429 15.9364 5.83432C16.1052 5.98435 16.2 6.18783 16.2 6.4V8Z" fill="white"/>
</svg>
