<svg width="24" height="24" viewBox="0 0 24 24" fill="none" xmlns="http://www.w3.org/2000/svg">
<g clip-path="url(#clip0_2799_22110)">
<path d="M12 12C11.4336 12 10.88 12.1584 10.409 12.455C9.93813 12.7517 9.57109 13.1734 9.35434 13.6668C9.1376 14.1601 9.08089 14.703 9.19139 15.2267C9.30188 15.7505 9.57462 16.2316 9.9751 16.6092C10.3756 16.9868 10.8858 17.2439 11.4413 17.3481C11.9968 17.4523 12.5726 17.3988 13.0959 17.1945C13.6191 16.9901 14.0664 16.6441 14.381 16.2C14.6957 15.756 14.8636 15.234 14.8636 14.7C14.8636 13.9839 14.5619 13.2972 14.0249 12.7908C13.4879 12.2845 12.7595 12 12 12ZM12 15.6C11.8112 15.6 11.6267 15.5472 11.4697 15.4483C11.3127 15.3494 11.1904 15.2089 11.1181 15.0444C11.0459 14.88 11.027 14.699 11.0638 14.5244C11.1006 14.3498 11.1915 14.1895 11.325 14.0636C11.4585 13.9377 11.6286 13.852 11.8138 13.8173C11.9989 13.7826 12.1909 13.8004 12.3653 13.8685C12.5397 13.9366 12.6888 14.052 12.7937 14.2C12.8986 14.348 12.9545 14.522 12.9545 14.7C12.9545 14.9387 12.854 15.1676 12.675 15.3364C12.496 15.5052 12.2532 15.6 12 15.6ZM11.3223 9.939C11.4131 10.0209 11.5201 10.0852 11.6373 10.128C11.7515 10.1756 11.8751 10.2002 12 10.2002C12.1249 10.2002 12.2485 10.1756 12.3627 10.128C12.4799 10.0852 12.5869 10.0209 12.6777 9.939L14.8636 7.914C15.0484 7.73975 15.1523 7.50342 15.1523 7.257C15.1523 7.01058 15.0484 6.77425 14.8636 6.6C14.6788 6.42575 14.4282 6.32786 14.1668 6.32786C13.9055 6.32786 13.6548 6.42575 13.47 6.6L12.9545 7.131V3.9C12.9545 3.66131 12.854 3.43239 12.675 3.2636C12.496 3.09482 12.2532 3 12 3C11.7468 3 11.504 3.09482 11.325 3.2636C11.146 3.43239 11.0455 3.66131 11.0455 3.9V7.131L10.53 6.6C10.3452 6.42575 10.0945 6.32786 9.83318 6.32786C9.57182 6.32786 9.32117 6.42575 9.13636 6.6C8.95156 6.77425 8.84773 7.01058 8.84773 7.257C8.84773 7.50342 8.95156 7.73975 9.13636 7.914L11.3223 9.939ZM18.6818 14.7C18.6818 14.522 18.6258 14.348 18.5209 14.2C18.4161 14.052 18.267 13.9366 18.0926 13.8685C17.9181 13.8004 17.7262 13.7826 17.541 13.8173C17.3559 13.852 17.1858 13.9377 17.0523 14.0636C16.9188 14.1895 16.8279 14.3498 16.7911 14.5244C16.7542 14.699 16.7731 14.88 16.8454 15.0444C16.9176 15.2089 17.04 15.3494 17.197 15.4483C17.3539 15.5472 17.5385 15.6 17.7273 15.6C17.9804 15.6 18.2232 15.5052 18.4022 15.3364C18.5813 15.1676 18.6818 14.9387 18.6818 14.7ZM19.6364 8.4H16.7727C16.5196 8.4 16.2768 8.49482 16.0978 8.6636C15.9187 8.83239 15.8182 9.0613 15.8182 9.3C15.8182 9.53869 15.9187 9.76761 16.0978 9.9364C16.2768 10.1052 16.5196 10.2 16.7727 10.2H19.6364C19.8895 10.2 20.1323 10.2948 20.3113 10.4636C20.4903 10.6324 20.5909 10.8613 20.5909 11.1V18.3C20.5909 18.5387 20.4903 18.7676 20.3113 18.9364C20.1323 19.1052 19.8895 19.2 19.6364 19.2H4.36364C4.11048 19.2 3.86768 19.1052 3.68867 18.9364C3.50966 18.7676 3.40909 18.5387 3.40909 18.3V11.1C3.40909 10.8613 3.50966 10.6324 3.68867 10.4636C3.86768 10.2948 4.11048 10.2 4.36364 10.2H7.22727C7.48043 10.2 7.72323 10.1052 7.90224 9.9364C8.08125 9.76761 8.18182 9.53869 8.18182 9.3C8.18182 9.0613 8.08125 8.83239 7.90224 8.6636C7.72323 8.49482 7.48043 8.4 7.22727 8.4H4.36364C3.60415 8.4 2.87578 8.68446 2.33874 9.19081C1.8017 9.69716 1.5 10.3839 1.5 11.1V18.3C1.5 19.0161 1.8017 19.7028 2.33874 20.2092C2.87578 20.7155 3.60415 21 4.36364 21H19.6364C20.3958 21 21.1242 20.7155 21.6613 20.2092C22.1983 19.7028 22.5 19.0161 22.5 18.3V11.1C22.5 10.3839 22.1983 9.69716 21.6613 9.19081C21.1242 8.68446 20.3958 8.4 19.6364 8.4ZM5.31818 14.7C5.31818 14.878 5.37416 15.052 5.47905 15.2C5.58394 15.348 5.73302 15.4634 5.90744 15.5315C6.08186 15.5996 6.27379 15.6174 6.45895 15.5827C6.64411 15.548 6.8142 15.4623 6.94769 15.3364C7.08119 15.2105 7.1721 15.0502 7.20893 14.8756C7.24576 14.701 7.22686 14.52 7.15461 14.3556C7.08236 14.1911 6.96002 14.0506 6.80304 13.9517C6.64607 13.8528 6.46152 13.8 6.27273 13.8C6.01957 13.8 5.77677 13.8948 5.59776 14.0636C5.41875 14.2324 5.31818 14.4613 5.31818 14.7Z" fill="white"/>
</g>
<defs>
<clipPath id="clip0_2799_22110">
<rect width="24" height="24" fill="white"/>
</clipPath>
</defs>
</svg>
