<svg width="26" height="24" viewBox="0 0 26 24" fill="none" xmlns="http://www.w3.org/2000/svg">
<path fill-rule="evenodd" clip-rule="evenodd" d="M18.0877 3.22943C18.3755 2.72594 19.0169 2.55101 19.5203 2.83872L24.1543 5.48671C24.5538 5.71499 24.8507 6.08757 24.9841 6.52794C25.1174 6.96831 25.077 7.44301 24.8713 7.85454L23.1458 11.3054C22.9963 11.6044 22.7665 11.8558 22.4822 12.0315C22.1978 12.2073 21.8702 12.3004 21.5359 12.3004H18.9994C18.4195 12.3004 17.9494 11.8303 17.9494 11.2504C17.9494 10.6705 18.4195 10.2004 18.9994 10.2004H21.3505L22.866 7.16922L18.4785 4.66203C17.975 4.37432 17.8 3.73292 18.0877 3.22943Z" fill="white"/>
<path fill-rule="evenodd" clip-rule="evenodd" d="M7.91104 3.22943C8.19875 3.73292 8.02383 4.37432 7.52033 4.66203L3.13275 7.16922L4.64832 10.2004H6.99939C7.57929 10.2004 8.04939 10.6705 8.04939 11.2504C8.04939 11.8303 7.57929 12.3004 6.99939 12.3004H4.46291C4.12863 12.3004 3.80095 12.2073 3.5166 12.0315C3.23224 11.8558 3.00244 11.6044 2.85294 11.3054L1.12753 7.85454C0.921768 7.44301 0.881405 6.9683 1.01474 6.52794C1.14807 6.08758 1.44497 5.71499 1.84445 5.48671L6.47844 2.83872C6.98194 2.55101 7.62333 2.72594 7.91104 3.22943Z" fill="white"/>
<path fill-rule="evenodd" clip-rule="evenodd" d="M5.94922 3.7502C5.94922 3.1703 6.41932 2.7002 6.99922 2.7002H9.99922C10.5791 2.7002 11.0492 3.1703 11.0492 3.7502C11.0492 4.26737 11.2547 4.76336 11.6204 5.12905C11.9861 5.49475 12.482 5.7002 12.9992 5.7002C13.5164 5.7002 14.0124 5.49475 14.3781 5.12905C14.7438 4.76336 14.9492 4.26737 14.9492 3.7502C14.9492 3.1703 15.4193 2.7002 15.9992 2.7002H18.9992C19.5791 2.7002 20.0492 3.1703 20.0492 3.7502V19.5002C20.0492 19.9776 19.8596 20.4354 19.522 20.773C19.1844 21.1106 18.7266 21.3002 18.2492 21.3002H7.74922C7.27183 21.3002 6.81399 21.1106 6.47643 20.773C6.13886 20.4354 5.94922 19.9776 5.94922 19.5002V3.7502ZM8.04922 4.8002V19.2002H17.9492V4.8002H16.9107C16.7281 5.48035 16.3696 6.10736 15.863 6.61398C15.1035 7.3735 14.0733 7.8002 12.9992 7.8002C11.9251 7.8002 10.895 7.3735 10.1354 6.61398C9.62882 6.10736 9.27029 5.48035 9.08769 4.8002H8.04922Z" fill="white"/>
</svg>
