<svg width="24" height="24" viewBox="0 0 24 24" fill="none" xmlns="http://www.w3.org/2000/svg">
<path fill-rule="evenodd" clip-rule="evenodd" d="M3.29922 6.3002V17.7002H20.6992V6.3002H3.29922ZM1.19922 6.0002C1.19922 5.00608 2.00511 4.2002 2.99922 4.2002H20.9992C21.9933 4.2002 22.7992 5.00608 22.7992 6.0002V18.0002C22.7992 18.9943 21.9933 19.8002 20.9992 19.8002H2.99922C2.00511 19.8002 1.19922 18.9943 1.19922 18.0002V6.0002Z" fill="white"/>
<path fill-rule="evenodd" clip-rule="evenodd" d="M14.6992 15.7502C14.6992 15.1703 15.1693 14.7002 15.7492 14.7002H18.7492C19.3291 14.7002 19.7992 15.1703 19.7992 15.7502C19.7992 16.3301 19.3291 16.8002 18.7492 16.8002H15.7492C15.1693 16.8002 14.6992 16.3301 14.6992 15.7502Z" fill="white"/>
<path fill-rule="evenodd" clip-rule="evenodd" d="M10.1992 15.7502C10.1992 15.1703 10.6693 14.7002 11.2492 14.7002H12.7492C13.3291 14.7002 13.7992 15.1703 13.7992 15.7502C13.7992 16.3301 13.3291 16.8002 12.7492 16.8002H11.2492C10.6693 16.8002 10.1992 16.3301 10.1992 15.7502Z" fill="white"/>
<path fill-rule="evenodd" clip-rule="evenodd" d="M1.19922 9.08027C1.19922 8.50037 1.66932 8.03027 2.24922 8.03027H21.7492C22.3291 8.03027 22.7992 8.50037 22.7992 9.08027C22.7992 9.66017 22.3291 10.1303 21.7492 10.1303H2.24922C1.66932 10.1303 1.19922 9.66017 1.19922 9.08027Z" fill="white"/>
</svg>
