<svg width="24" height="24" viewBox="0 0 24 24" fill="none" xmlns="http://www.w3.org/2000/svg">
<path fill-rule="evenodd" clip-rule="evenodd" d="M11.9992 5.7002C12.5791 5.7002 13.0492 6.1703 13.0492 6.7502V8.2502C13.0492 8.83009 12.5791 9.3002 11.9992 9.3002C11.4193 9.3002 10.9492 8.83009 10.9492 8.2502V6.7502C10.9492 6.1703 11.4193 5.7002 11.9992 5.7002Z" fill="white"/>
<path fill-rule="evenodd" clip-rule="evenodd" d="M11.9992 14.7002C12.5791 14.7002 13.0492 15.1703 13.0492 15.7502V17.2502C13.0492 17.8301 12.5791 18.3002 11.9992 18.3002C11.4193 18.3002 10.9492 17.8301 10.9492 17.2502V15.7502C10.9492 15.1703 11.4193 14.7002 11.9992 14.7002Z" fill="white"/>
<path fill-rule="evenodd" clip-rule="evenodd" d="M11.9992 4.0502C7.60855 4.0502 4.04922 7.60953 4.04922 12.0002C4.04922 16.3909 7.60855 19.9502 11.9992 19.9502C16.3899 19.9502 19.9492 16.3909 19.9492 12.0002C19.9492 7.60953 16.3899 4.0502 11.9992 4.0502ZM1.94922 12.0002C1.94922 6.44973 6.44876 1.9502 11.9992 1.9502C17.5497 1.9502 22.0492 6.44973 22.0492 12.0002C22.0492 17.5507 17.5497 22.0502 11.9992 22.0502C6.44876 22.0502 1.94922 17.5507 1.94922 12.0002Z" fill="white"/>
<path fill-rule="evenodd" clip-rule="evenodd" d="M10.8742 9.3002C10.6554 9.3002 10.4456 9.38711 10.2909 9.54183C10.1361 9.69655 10.0492 9.90639 10.0492 10.1252C10.0492 10.344 10.1361 10.5538 10.2909 10.7086C10.4456 10.8633 10.6554 10.9502 10.8742 10.9502H13.1242C13.9 10.9502 14.644 11.2584 15.1925 11.8069C15.741 12.3555 16.0492 13.0994 16.0492 13.8752C16.0492 14.651 15.741 15.3949 15.1925 15.9435C14.644 16.492 13.9 16.8002 13.1242 16.8002H9.74922C9.16932 16.8002 8.69922 16.3301 8.69922 15.7502C8.69922 15.1703 9.16932 14.7002 9.74922 14.7002H13.1242C13.343 14.7002 13.5529 14.6133 13.7076 14.4586C13.8623 14.3038 13.9492 14.094 13.9492 13.8752C13.9492 13.6564 13.8623 13.4465 13.7076 13.2918C13.5529 13.1371 13.343 13.0502 13.1242 13.0502H10.8742C10.0985 13.0502 9.35448 12.742 8.80593 12.1935C8.25739 11.6449 7.94922 10.901 7.94922 10.1252C7.94922 9.34944 8.25739 8.60545 8.80593 8.05691C9.35448 7.50836 10.0985 7.2002 10.8742 7.2002H14.2492C14.8291 7.2002 15.2992 7.6703 15.2992 8.2502C15.2992 8.83009 14.8291 9.3002 14.2492 9.3002H10.8742Z" fill="white"/>
</svg>
