<svg width="27" height="27" viewBox="0 0 27 27" fill="none" xmlns="http://www.w3.org/2000/svg">
<path d="M17.1042 12.8737V5.325C17.1042 5.1062 17.0156 4.89635 16.8581 4.74164C16.7005 4.58692 16.4867 4.5 16.2639 4.5C16.041 4.5 15.8273 4.58692 15.6697 4.74164C15.5121 4.89635 15.4236 5.1062 15.4236 5.325V12.8737C14.6959 13.0812 14.0565 13.5152 13.6019 14.1104C13.1472 14.7056 12.9019 15.4298 12.9028 16.1737C12.9028 17.865 14.18 20.9588 16.2639 20.9588C18.3478 20.9588 19.625 17.865 19.625 16.1737C19.6259 15.4298 19.3806 14.7056 18.9259 14.1104C18.4712 13.5152 17.8319 13.0812 17.1042 12.8737V12.8737ZM16.2639 19.35C15.5917 19.35 14.5833 17.4773 14.5833 16.215C14.5628 15.7559 14.7279 15.3075 15.0427 14.9675C15.3575 14.6275 15.7965 14.4235 16.2639 14.4C16.7313 14.4235 17.1703 14.6275 17.4851 14.9675C17.7999 15.3075 17.965 15.7559 17.9444 16.215C17.9444 17.4773 16.9361 19.35 16.2639 19.35ZM10.3819 4.5C10.1591 4.5 9.94536 4.58692 9.78778 4.74164C9.63019 4.89635 9.54167 5.1062 9.54167 5.325V9.8295L8.70139 10.3823V5.325C8.70139 5.1062 8.61286 4.89635 8.45528 4.74164C8.29769 4.58692 8.08397 4.5 7.86111 4.5C7.63825 4.5 7.42453 4.58692 7.26694 4.74164C7.10936 4.89635 7.02083 5.1062 7.02083 5.325V10.3823L6.18056 9.8295V5.325C6.18056 5.1062 6.09203 4.89635 5.93444 4.74164C5.77686 4.58692 5.56313 4.5 5.34028 4.5C5.11742 4.5 4.90369 4.58692 4.74611 4.74164C4.58853 4.89635 4.5 5.1062 4.5 5.325V10.275C4.50072 10.4109 4.53561 10.5445 4.60157 10.6639C4.66754 10.7834 4.76254 10.885 4.87812 10.9597L7.02083 12.3705V20.175C7.02083 20.3938 7.10936 20.6036 7.26694 20.7584C7.42453 20.9131 7.63825 21 7.86111 21C8.08397 21 8.29769 20.9131 8.45528 20.7584C8.61286 20.6036 8.70139 20.3938 8.70139 20.175V12.3705L10.8441 10.9597C10.9597 10.885 11.0547 10.7834 11.1206 10.6639C11.1866 10.5445 11.2215 10.4109 11.2222 10.275V5.325C11.2222 5.1062 11.1337 4.89635 10.9761 4.74164C10.8185 4.58692 10.6048 4.5 10.3819 4.5V4.5Z" fill="white"/>
</svg>
