<svg width="19" height="22" viewBox="0 0 19 22" fill="none" xmlns="http://www.w3.org/2000/svg">
<path fill-rule="evenodd" clip-rule="evenodd" d="M11.3651 2.40292C11.0859 2.66206 10.8875 2.9838 10.7742 3.19609C10.5142 3.68336 9.90847 3.86763 9.4212 3.60767C8.93392 3.3477 8.74965 2.74194 9.00962 2.25467C9.17049 1.95313 9.49265 1.41218 10.0045 0.937086C10.5249 0.453991 11.2872 0 12.2888 0C13.4141 0 14.4689 0.365677 15.1544 1.18968C15.8511 2.02718 16.0085 3.14731 15.7167 4.31473C15.3485 5.78728 14.4446 7.024 13.4253 7.95835C12.4059 8.89285 11.2096 9.58228 10.1473 9.93639C9.62331 10.111 9.05699 9.82788 8.88234 9.30394C8.70769 8.77999 8.99085 8.21368 9.5148 8.03903C10.2958 7.77871 11.25 7.23926 12.0739 6.48404C12.8979 5.72868 13.5301 4.81487 13.7764 3.82966C13.9558 3.11207 13.806 2.6961 13.6169 2.46876C13.4165 2.22791 13.0068 2 12.2888 2C11.9347 2 11.6357 2.15178 11.3651 2.40292Z" fill="white"/>
<path fill-rule="evenodd" clip-rule="evenodd" d="M7.4828 2C8.14298 2 8.63717 2.5641 8.94294 3.09765C9.21756 3.57682 9.82862 3.74265 10.3078 3.46803C10.787 3.19342 10.9528 2.58236 10.6782 2.10319C10.34 1.51314 9.33289 0 7.4828 0C6.35745 0 5.3027 0.365677 4.6172 1.18968C3.92046 2.02718 3.76305 3.14731 4.0549 4.31473C4.41201 5.74318 5.27334 6.94941 6.25341 7.87211C7.23402 8.79532 8.38729 9.4864 9.4279 9.86765C9.94648 10.0576 10.5209 9.79127 10.7109 9.2727C10.9009 8.75412 10.6345 8.17971 10.1159 7.98972C9.33507 7.70364 8.41284 7.15824 7.62436 6.41591C6.83533 5.67308 6.23395 4.78473 5.99519 3.82966C5.81579 3.11207 5.96559 2.6961 6.15471 2.46876C6.35508 2.22791 6.76483 2 7.4828 2Z" fill="white"/>
<path d="M17.5 9.5L14.7466 9" stroke="white" stroke-width="2" stroke-linecap="round" stroke-linejoin="round"/>
<path d="M2 10L4.91528 9" stroke="white" stroke-width="2" stroke-linecap="round" stroke-linejoin="round"/>
<path fill-rule="evenodd" clip-rule="evenodd" d="M17.8188 8.50024C18.3711 8.50024 18.8188 8.94795 18.8188 9.50024V17.3136C18.8188 17.7037 18.592 18.0581 18.2379 18.2216L10.2502 21.9082C9.98426 22.031 9.67793 22.031 9.41204 21.9082L1.42433 18.2216C1.07018 18.0581 0.843384 17.7037 0.843384 17.3136V10.5002C0.843384 9.94795 1.2911 9.50024 1.84338 9.50024C2.39567 9.50024 2.84338 9.94795 2.84338 10.5002V16.6738L9.83109 19.8989L16.8188 16.6738V9.50024C16.8188 8.94795 17.2665 8.50024 17.8188 8.50024Z" fill="white"/>
<path fill-rule="evenodd" clip-rule="evenodd" d="M9.83118 12.0003C10.3835 12.0003 10.8312 12.448 10.8312 13.0003V21.0002C10.8312 21.5525 10.3835 22.0002 9.83118 22.0002C9.27889 22.0002 8.83118 21.5525 8.83118 21.0002V13.0003C8.83118 12.448 9.27889 12.0003 9.83118 12.0003Z" fill="white"/>
<path fill-rule="evenodd" clip-rule="evenodd" d="M18.4286 9.12888C18.6337 9.64166 18.3843 10.2236 17.8715 10.4287L10.3715 13.4287C10.1579 13.5142 9.92142 13.5234 9.70185 13.4547L1.70185 10.9547C1.1747 10.79 0.880909 10.2291 1.04564 9.70199C1.21037 9.17485 1.77125 8.88105 2.2984 9.04579L9.95894 11.4397L17.1287 8.57179C17.6415 8.36668 18.2235 8.61609 18.4286 9.12888Z" fill="white"/>
</svg>
