<svg width="27" height="27" viewBox="0 0 27 27" fill="none" xmlns="http://www.w3.org/2000/svg">
<path d="M20.2421 3.1691C19.5978 3.05922 18.9454 3.00266 18.2917 3C16.0611 2.99819 13.8771 3.6315 12 4.82444C10.118 3.64717 7.93438 3.0294 5.70835 3.0445C5.0546 3.04715 4.4022 3.10372 3.75794 3.2136C3.5469 3.24962 3.35579 3.35907 3.21902 3.52223C3.08225 3.68539 3.00881 3.89155 3.01193 4.10357V14.7832C3.01 14.914 3.03721 15.0436 3.0916 15.1627C3.146 15.2819 3.22626 15.3877 3.32666 15.4727C3.42707 15.5577 3.54515 15.6197 3.67251 15.6544C3.79987 15.689 3.93338 15.6954 4.06353 15.6732C5.35154 15.4524 6.67115 15.489 7.94464 15.7809C9.21813 16.0729 10.4197 16.6142 11.4787 17.373L11.5865 17.4353H11.6854C11.7851 17.4765 11.892 17.4976 12 17.4976C12.108 17.4976 12.2149 17.4765 12.3146 17.4353H12.4135L12.5213 17.373C13.5729 16.5972 14.771 16.0384 16.0448 15.7296C17.3185 15.4208 18.6419 15.3683 19.9365 15.5753C20.0666 15.5975 20.2001 15.5911 20.3275 15.5565C20.4548 15.5218 20.5729 15.4598 20.6733 15.3748C20.7737 15.2898 20.854 15.184 20.9084 15.0648C20.9628 14.9457 20.99 14.8161 20.9881 14.6853V4.00567C20.9787 3.80289 20.8996 3.60938 20.764 3.45722C20.6283 3.30505 20.4441 3.20339 20.2421 3.1691ZM11.1012 14.9968C9.43829 14.1306 7.58732 13.6785 5.70835 13.6797C5.41174 13.6797 5.11513 13.6797 4.80954 13.6797V4.77995C5.10889 4.76286 5.40899 4.76286 5.70835 4.77995C7.62585 4.77785 9.50151 5.33501 11.1012 6.38189V14.9968ZM19.1905 13.7152C18.8849 13.7152 18.5883 13.7152 18.2917 13.7152C16.4127 13.7141 14.5617 14.1662 12.8988 15.0324V6.38189C14.4985 5.33501 16.3741 4.77785 18.2917 4.77995C18.591 4.76286 18.8911 4.76286 19.1905 4.77995V13.7152ZM20.2421 17.4086C19.5978 17.2987 18.9454 17.2422 18.2917 17.2395C16.0611 17.2377 13.8771 17.871 12 19.064C10.1229 17.871 7.93886 17.2377 5.70835 17.2395C5.0546 17.2422 4.4022 17.2987 3.75794 17.4086C3.64094 17.427 3.52876 17.4681 3.42786 17.5296C3.32696 17.591 3.23932 17.6716 3.17 17.7668C3.10067 17.8619 3.05101 17.9696 3.02388 18.0838C2.99676 18.198 2.99269 18.3164 3.01193 18.4321C3.0576 18.6632 3.19393 18.867 3.39103 18.9988C3.58814 19.1305 3.82997 19.1796 4.06353 19.1352C5.35154 18.9144 6.67115 18.951 7.94464 19.2429C9.21813 19.5349 10.4197 20.0762 11.4787 20.835C11.6309 20.9423 11.8131 21 12 21C12.1869 21 12.3691 20.9423 12.5213 20.835C13.5803 20.0762 14.7819 19.5349 16.0554 19.2429C17.3288 18.951 18.6485 18.9144 19.9365 19.1352C20.17 19.1796 20.4119 19.1305 20.609 18.9988C20.8061 18.867 20.9424 18.6632 20.9881 18.4321C21.0073 18.3164 21.0032 18.198 20.9761 18.0838C20.949 17.9696 20.8993 17.8619 20.83 17.7668C20.7607 17.6716 20.673 17.591 20.5721 17.5296C20.4712 17.4681 20.3591 17.427 20.2421 17.4086V17.4086Z" fill="white"/>
</svg>
