<svg width="27" height="27" viewBox="0 0 27 27" fill="none" xmlns="http://www.w3.org/2000/svg">
<path d="M20.685 3.217C20.5869 3.13282 20.4718 3.07075 20.3476 3.03504C20.2233 2.99932 20.0928 2.99078 19.965 3.01001L8.265 4.80991C8.05193 4.84224 7.85754 4.94994 7.71716 5.11343C7.57677 5.27693 7.49972 5.48537 7.5 5.70086V15.0153C7.07949 14.81 6.61799 14.7023 6.15 14.7004C5.52699 14.7004 4.91797 14.8851 4.39996 15.2312C3.88194 15.5773 3.4782 16.0692 3.23978 16.6448C3.00136 17.2203 2.93898 17.8537 3.06053 18.4647C3.18207 19.0757 3.48208 19.6369 3.92262 20.0774C4.36315 20.5179 4.92443 20.8179 5.53547 20.9395C6.14651 21.061 6.77987 20.9986 7.35545 20.7602C7.93104 20.5218 8.423 20.1181 8.76913 19.6001C9.11526 19.0821 9.3 18.4732 9.3 17.8502V10.9746L19.2 9.45365V13.2154C18.7795 13.0101 18.318 12.9024 17.85 12.9005C17.227 12.9005 16.618 13.0852 16.1 13.4313C15.5819 13.7774 15.1782 14.2693 14.9398 14.8449C14.7014 15.4204 14.639 16.0538 14.7605 16.6648C14.8821 17.2758 15.1821 17.837 15.6226 18.2775C16.0631 18.7181 16.6244 19.018 17.2355 19.1396C17.8465 19.2611 18.4799 19.1987 19.0555 18.9603C19.631 18.7219 20.123 18.3182 20.4691 17.8002C20.8153 17.2822 21 16.6733 21 16.0503V3.90096C21 3.77097 20.9719 3.64253 20.9175 3.52446C20.8631 3.40638 20.7838 3.3015 20.685 3.217ZM6.15 19.2001C5.883 19.2001 5.62199 19.1209 5.39998 18.9726C5.17798 18.8243 5.00494 18.6134 4.90276 18.3668C4.80059 18.1201 4.77385 17.8487 4.82594 17.5868C4.87803 17.325 5.00661 17.0844 5.19541 16.8956C5.38421 16.7068 5.62476 16.5783 5.88663 16.5262C6.1485 16.4741 6.41994 16.5008 6.66662 16.603C6.9133 16.7052 7.12414 16.8782 7.27248 17.1002C7.42082 17.3222 7.5 17.5832 7.5 17.8502C7.5 18.2082 7.35777 18.5516 7.1046 18.8047C6.85142 19.0579 6.50804 19.2001 6.15 19.2001ZM17.85 17.4002C17.583 17.4002 17.322 17.321 17.1 17.1727C16.878 17.0244 16.7049 16.8135 16.6028 16.5669C16.5006 16.3202 16.4739 16.0488 16.5259 15.7869C16.578 15.5251 16.7066 15.2845 16.8954 15.0957C17.0842 14.9069 17.3248 14.7784 17.5866 14.7263C17.8485 14.6742 18.1199 14.7009 18.3666 14.8031C18.6133 14.9053 18.8241 15.0783 18.9725 15.3003C19.1208 15.5223 19.2 15.7833 19.2 16.0503C19.2 16.4083 19.0578 16.7517 18.8046 17.0048C18.5514 17.258 18.208 17.4002 17.85 17.4002ZM19.2 7.62675L9.3 9.14767V6.44782L19.2 4.9539V7.62675Z" fill="white"/>
</svg>
