<svg width="24" height="24" viewBox="0 0 24 24" fill="none" xmlns="http://www.w3.org/2000/svg">
<path fill-rule="evenodd" clip-rule="evenodd" d="M4.04922 5.5502V17.8013L5.52964 17.061C5.82525 16.9132 6.17319 16.9132 6.46879 17.061L8.99922 18.3263L11.5296 17.061C11.8252 16.9132 12.1732 16.9132 12.4688 17.061L14.9992 18.3263L17.5296 17.061C17.8252 16.9132 18.1732 16.9132 18.4688 17.061L19.9492 17.8013V5.5502H4.04922ZM2.47643 3.9774C2.81399 3.63984 3.27183 3.4502 3.74922 3.4502H20.2492C20.7266 3.4502 21.1844 3.63984 21.522 3.9774C21.8596 4.31497 22.0492 4.77281 22.0492 5.2502V19.5002C22.0492 19.8641 21.8608 20.2021 21.5512 20.3934C21.2417 20.5847 20.8551 20.6021 20.5296 20.4393L17.9992 19.1741L15.4688 20.4393C15.1732 20.5871 14.8252 20.5871 14.5296 20.4393L11.9992 19.1741L9.46879 20.4393C9.17319 20.5871 8.82525 20.5871 8.52964 20.4393L5.99922 19.1741L3.46879 20.4393C3.14331 20.6021 2.75676 20.5847 2.4472 20.3934C2.13764 20.2021 1.94922 19.8641 1.94922 19.5002V5.2502C1.94922 4.77281 2.13886 4.31497 2.47643 3.9774ZM6.07422 9.7502C6.07422 9.1703 6.54432 8.7002 7.12422 8.7002H16.8742C17.4541 8.7002 17.9242 9.1703 17.9242 9.7502C17.9242 10.3301 17.4541 10.8002 16.8742 10.8002H7.12422C6.54432 10.8002 6.07422 10.3301 6.07422 9.7502ZM6.07422 12.7502C6.07422 12.1703 6.54432 11.7002 7.12422 11.7002H16.8742C17.4541 11.7002 17.9242 12.1703 17.9242 12.7502C17.9242 13.3301 17.4541 13.8002 16.8742 13.8002H7.12422C6.54432 13.8002 6.07422 13.3301 6.07422 12.7502Z" fill="white"/>
</svg>
