<svg width="24" height="24" viewBox="0 0 24 24" fill="none" xmlns="http://www.w3.org/2000/svg">
<path fill-rule="evenodd" clip-rule="evenodd" d="M4.04922 7.8002V19.2002H19.9492V7.8002H4.04922ZM1.94922 7.5002C1.94922 6.50608 2.75511 5.7002 3.74922 5.7002H20.2492C21.2433 5.7002 22.0492 6.50608 22.0492 7.5002V19.5002C22.0492 20.4943 21.2433 21.3002 20.2492 21.3002H3.74922C2.75511 21.3002 1.94922 20.4943 1.94922 19.5002V7.5002Z" fill="white"/>
<path fill-rule="evenodd" clip-rule="evenodd" d="M7.9461 3.44707C8.42431 2.96886 9.07292 2.7002 9.74922 2.7002H14.2492C14.9255 2.7002 15.5741 2.96886 16.0523 3.44707C16.5306 3.92529 16.7992 4.57389 16.7992 5.2502V6.7502C16.7992 7.33009 16.3291 7.8002 15.7492 7.8002C15.1693 7.8002 14.6992 7.33009 14.6992 6.7502V5.2502C14.6992 5.13085 14.6518 5.01639 14.5674 4.932C14.483 4.84761 14.3686 4.8002 14.2492 4.8002H9.74922C9.62987 4.8002 9.51541 4.84761 9.43102 4.932C9.34663 5.01639 9.29922 5.13085 9.29922 5.2502V6.7502C9.29922 7.33009 8.82912 7.8002 8.24922 7.8002C7.66932 7.8002 7.19922 7.33009 7.19922 6.7502V5.2502C7.19922 4.57389 7.46788 3.92529 7.9461 3.44707Z" fill="white"/>
<path fill-rule="evenodd" clip-rule="evenodd" d="M11.9992 9.8252C12.5791 9.8252 13.0492 10.2953 13.0492 10.8752V16.1252C13.0492 16.7051 12.5791 17.1752 11.9992 17.1752C11.4193 17.1752 10.9492 16.7051 10.9492 16.1252V10.8752C10.9492 10.2953 11.4193 9.8252 11.9992 9.8252Z" fill="white"/>
<path fill-rule="evenodd" clip-rule="evenodd" d="M8.32422 13.5002C8.32422 12.9203 8.79432 12.4502 9.37422 12.4502H14.6242C15.2041 12.4502 15.6742 12.9203 15.6742 13.5002C15.6742 14.0801 15.2041 14.5502 14.6242 14.5502H9.37422C8.79432 14.5502 8.32422 14.0801 8.32422 13.5002Z" fill="white"/>
</svg>
