<svg width="24" height="24" viewBox="0 0 24 24" fill="none" xmlns="http://www.w3.org/2000/svg">
<path fill-rule="evenodd" clip-rule="evenodd" d="M13.2012 10.1252C13.2012 9.5453 13.6713 9.0752 14.2512 9.0752H17.2512C17.8311 9.0752 18.3012 9.5453 18.3012 10.1252C18.3012 10.7051 17.8311 11.1752 17.2512 11.1752H14.2512C13.6713 11.1752 13.2012 10.7051 13.2012 10.1252Z" fill="white"/>
<path fill-rule="evenodd" clip-rule="evenodd" d="M5.70117 10.1252C5.70117 9.5453 6.17127 9.0752 6.75117 9.0752H9.75117C10.3311 9.0752 10.8012 9.5453 10.8012 10.1252C10.8012 10.7051 10.3311 11.1752 9.75117 11.1752H6.75117C6.17127 11.1752 5.70117 10.7051 5.70117 10.1252Z" fill="white"/>
<path fill-rule="evenodd" clip-rule="evenodd" d="M8.25117 7.5752C8.83107 7.5752 9.30117 8.0453 9.30117 8.6252V11.6252C9.30117 12.2051 8.83107 12.6752 8.25117 12.6752C7.67127 12.6752 7.20117 12.2051 7.20117 11.6252V8.6252C7.20117 8.0453 7.67127 7.5752 8.25117 7.5752Z" fill="white"/>
<path fill-rule="evenodd" clip-rule="evenodd" d="M16.1274 4.17578C17.6988 4.17578 19.2059 4.80002 20.317 5.91117C21.4282 7.02233 22.0524 8.52937 22.0524 10.1008C22.0524 11.6722 21.4282 13.1792 20.317 14.2904C19.2064 15.401 17.7003 16.0252 16.1298 16.0258C16.129 16.0258 16.1282 16.0258 16.1274 16.0258L10.5034 16.0483L6.77682 20.1678C6.76029 20.1868 6.74297 20.2055 6.72485 20.2236C6.17215 20.7762 5.45769 21.1382 4.68523 21.257C3.91277 21.3759 3.12254 21.2454 2.4293 20.8845C1.73606 20.5236 1.17592 19.9511 0.830233 19.2502C0.484543 18.5492 0.371304 17.7563 0.506965 16.9867L0.510169 16.9685L0.510328 16.9685L2.03658 9.1189C2.03777 9.11123 2.03903 9.10356 2.04039 9.09588C2.28265 7.72415 3.00036 6.48158 4.06752 5.58631C5.13427 4.69138 6.48206 4.20065 7.87445 4.20018L7.87302 4.20018L7.87613 5.25018L7.87605 4.20018M16.1274 4.17578V5.22578ZM16.1274 6.27578L7.87923 6.30017L7.8762 6.30018C6.97683 6.30024 6.10622 6.6171 5.41721 7.19514C4.73755 7.76533 4.27743 8.5537 4.11493 9.42509C4.11239 9.4431 4.10938 9.4611 4.10589 9.47905L2.57371 17.3591C2.51773 17.6865 2.56666 18.0233 2.71364 18.3213C2.8618 18.6217 3.10188 18.8671 3.399 19.0218C3.69612 19.1765 4.03482 19.2324 4.36589 19.1814C4.68826 19.1318 4.98706 18.9834 5.22123 18.757L9.25697 14.2958C9.45505 14.0768 9.73617 13.9514 10.0314 13.9502L16.1232 13.9258L16.1274 13.9258C17.1419 13.9258 18.1148 13.5228 18.8321 12.8055C19.5494 12.0881 19.9524 11.1152 19.9524 10.1008C19.9524 9.08633 19.5494 8.11342 18.8321 7.3961C18.1151 6.67912 17.1428 6.27617 16.1289 6.27578C16.1284 6.27578 16.1279 6.27578 16.1274 6.27578Z" fill="white"/>
<path fill-rule="evenodd" clip-rule="evenodd" d="M20.7292 8.22345C21.2985 8.11319 21.8494 8.48532 21.9597 9.05464L23.4959 16.9867C23.6316 17.7564 23.5182 18.5493 23.1725 19.2502C22.8268 19.9512 22.2667 20.5237 21.5735 20.8845C20.8802 21.2454 20.09 21.3759 19.3175 21.2571C18.5451 21.1382 17.8306 20.7762 17.2779 20.2236C17.2592 20.2049 17.2414 20.1857 17.2244 20.166L13.1898 15.6872C12.8017 15.2564 12.8363 14.5925 13.2672 14.2043C13.698 13.8162 14.3619 13.8508 14.7501 14.2817L18.7821 18.7577C19.0162 18.9837 19.3148 19.1319 19.6369 19.1815C19.9679 19.2324 20.3066 19.1765 20.6038 19.0218C20.9009 18.8672 21.141 18.6218 21.2891 18.3214C21.4362 18.0232 21.4851 17.6863 21.429 17.3588L19.898 9.45395C19.7877 8.88463 20.1599 8.33372 20.7292 8.22345Z" fill="white"/>
</svg>
