<svg width="24" height="24" viewBox="0 0 24 24" fill="none" xmlns="http://www.w3.org/2000/svg">
<path fill-rule="evenodd" clip-rule="evenodd" d="M5.24922 6.3002C5.12987 6.3002 5.01541 6.34761 4.93102 6.432C4.84663 6.51639 4.79922 6.63085 4.79922 6.7502V16.5002C4.79922 17.0801 4.32912 17.5502 3.74922 17.5502C3.16932 17.5502 2.69922 17.0801 2.69922 16.5002V6.7502C2.69922 6.07389 2.96788 5.42529 3.4461 4.94707C3.92431 4.46886 4.57292 4.2002 5.24922 4.2002H18.7492C19.4255 4.2002 20.0741 4.46886 20.5523 4.94707C21.0306 5.42529 21.2992 6.07389 21.2992 6.7502V16.5002C21.2992 17.0801 20.8291 17.5502 20.2492 17.5502C19.6693 17.5502 19.1992 17.0801 19.1992 16.5002V6.7502C19.1992 6.63085 19.1518 6.51639 19.0674 6.432C18.983 6.34761 18.8686 6.3002 18.7492 6.3002H5.24922Z" fill="white"/>
<path fill-rule="evenodd" clip-rule="evenodd" d="M1.19922 16.5002C1.19922 15.9203 1.66932 15.4502 2.24922 15.4502H21.7492C22.3291 15.4502 22.7992 15.9203 22.7992 16.5002V18.0002C22.7992 18.6765 22.5306 19.3251 22.0523 19.8033C21.5741 20.2815 20.9255 20.5502 20.2492 20.5502H3.74922C3.07292 20.5502 2.42431 20.2815 1.9461 19.8033C1.46788 19.3251 1.19922 18.6765 1.19922 18.0002V16.5002ZM3.29922 17.5502V18.0002C3.29922 18.1195 3.34663 18.234 3.43102 18.3184C3.51541 18.4028 3.62987 18.4502 3.74922 18.4502H20.2492C20.3686 18.4502 20.483 18.4028 20.5674 18.3184C20.6518 18.234 20.6992 18.1195 20.6992 18.0002V17.5502H3.29922Z" fill="white"/>
<path fill-rule="evenodd" clip-rule="evenodd" d="M9.44922 8.2502C9.44922 7.6703 9.91932 7.2002 10.4992 7.2002H13.4992C14.0791 7.2002 14.5492 7.6703 14.5492 8.2502C14.5492 8.83009 14.0791 9.3002 13.4992 9.3002H10.4992C9.91932 9.3002 9.44922 8.83009 9.44922 8.2502Z" fill="white"/>
</svg>
