<svg width="24" height="24" viewBox="0 0 24 24" fill="none" xmlns="http://www.w3.org/2000/svg">
<path fill-rule="evenodd" clip-rule="evenodd" d="M10.0492 4.0502V9.00019C10.0492 9.58009 9.57912 10.0502 8.99922 10.0502H4.04922V13.9502H8.99922C9.57912 13.9502 10.0492 14.4203 10.0492 15.0002V19.9502H13.9492V15.0002C13.9492 14.4203 14.4193 13.9502 14.9992 13.9502H19.9492V10.0502H14.9992C14.4193 10.0502 13.9492 9.58009 13.9492 9.00019V4.0502H10.0492ZM8.47643 2.4774C8.81399 2.13984 9.27183 1.9502 9.74922 1.9502H14.2492C14.7266 1.9502 15.1844 2.13984 15.522 2.4774C15.8596 2.81497 16.0492 3.27281 16.0492 3.7502V7.95019H20.2492C20.7266 7.95019 21.1844 8.13984 21.522 8.4774C21.8596 8.81497 22.0492 9.27281 22.0492 9.75019V14.2502C22.0492 14.7276 21.8596 15.1854 21.522 15.523C21.1844 15.8606 20.7266 16.0502 20.2492 16.0502H16.0492V20.2502C16.0492 20.7276 15.8596 21.1854 15.522 21.523C15.1844 21.8606 14.7266 22.0502 14.2492 22.0502H9.74922C9.27183 22.0502 8.81399 21.8606 8.47643 21.523C8.13886 21.1854 7.94922 20.7276 7.94922 20.2502V16.0502H3.74922C3.27183 16.0502 2.81399 15.8606 2.47643 15.523C2.13886 15.1854 1.94922 14.7276 1.94922 14.2502V9.75019C1.94922 9.2728 2.13886 8.81497 2.47643 8.4774C2.81399 8.13984 3.27183 7.95019 3.74922 7.95019H7.94922V3.7502C7.94922 3.2728 8.13886 2.81497 8.47643 2.4774Z" fill="white"/>
</svg>
