<svg width="24" height="24" viewBox="0 0 24 24" fill="none" xmlns="http://www.w3.org/2000/svg">
<path d="M15.6016 4.875V3.75C15.6016 2.92157 14.93 2.25 14.1016 2.25H5.10156C4.27314 2.25 3.60156 2.92157 3.60156 3.75V20.25C3.60156 21.0784 4.27314 21.75 5.10156 21.75H14.1016C14.93 21.75 15.6016 21.0784 15.6016 20.25V18.75" stroke="white" stroke-width="1.8" stroke-linecap="round" stroke-linejoin="round"/>
<path d="M3.60156 5.25H15.6016" stroke="white" stroke-width="1.8" stroke-linecap="round" stroke-linejoin="round"/>
<path d="M3.60156 18.75H15.6016" stroke="white" stroke-width="1.8" stroke-linecap="round" stroke-linejoin="round"/>
<path d="M15 9.375V10.125" stroke="white" stroke-width="1.3" stroke-linecap="round" stroke-linejoin="round"/>
<path d="M15 13.875V14.625" stroke="white" stroke-width="1.3" stroke-linecap="round" stroke-linejoin="round"/>
<path d="M15 16.5C17.4853 16.5 19.5 14.4853 19.5 12C19.5 9.51472 17.4853 7.5 15 7.5C12.5147 7.5 10.5 9.51472 10.5 12C10.5 14.4853 12.5147 16.5 15 16.5Z" stroke="white" stroke-width="1.3" stroke-linecap="round" stroke-linejoin="round"/>
<path d="M13.875 13.875H15.5625C15.8111 13.875 16.0496 13.7762 16.2254 13.6004C16.4012 13.4246 16.5 13.1861 16.5 12.9375C16.5 12.6889 16.4012 12.4504 16.2254 12.2746C16.0496 12.0988 15.8111 12 15.5625 12H14.4375C14.1889 12 13.9504 11.9012 13.7746 11.7254C13.5988 11.5496 13.5 11.3111 13.5 11.0625C13.5 10.8139 13.5988 10.5754 13.7746 10.3996C13.9504 10.2238 14.1889 10.125 14.4375 10.125H16.125" stroke="white" stroke-width="1.3" stroke-linecap="round" stroke-linejoin="round"/>
</svg>
