<svg width="23" height="24" viewBox="0 0 23 24" fill="none" xmlns="http://www.w3.org/2000/svg">
<path d="M2.00112 4.34213C1.81162 5.28964 1.54632 7.29835 2.00112 7.75316M2.00112 7.75316C2.45593 8.20796 4.46471 7.37416 5.41225 7.18465M2.00112 7.75316C3.60629 4.00987 7.3248 1.38792 11.6557 1.38792C16.0748 1.38792 19.8563 4.11786 21.4057 7.98329M20.964 16.7512C19.2099 20.1017 15.6998 22.3879 11.6557 22.3879C7.94729 22.3879 4.68787 20.4654 2.81977 17.5627" stroke="white" stroke-width="1.8" stroke-linecap="round" stroke-linejoin="round"/>
<path d="M21.7488 19.5C21.9383 18.5525 22.2036 16.5438 21.7488 16.089C21.294 15.6342 19.2852 16.468 18.3377 16.6575" stroke="white" stroke-width="1.8" stroke-linecap="round" stroke-linejoin="round"/>
<path d="M12 8.5V9.5" stroke="white" stroke-width="1.8" stroke-linecap="round" stroke-linejoin="round"/>
<path d="M12 14.5V15.5" stroke="white" stroke-width="1.8" stroke-linecap="round" stroke-linejoin="round"/>
<path d="M12 18C15.3137 18 18 15.3137 18 12C18 8.68629 15.3137 6 12 6C8.68629 6 6 8.68629 6 12C6 15.3137 8.68629 18 12 18Z" stroke="white" stroke-width="1.8" stroke-linecap="round" stroke-linejoin="round"/>
<path d="M10.5 14.5H12.75C13.0815 14.5 13.3995 14.3683 13.6339 14.1339C13.8683 13.8995 14 13.5815 14 13.25C14 12.9185 13.8683 12.6005 13.6339 12.3661C13.3995 12.1317 13.0815 12 12.75 12H11.25C10.9185 12 10.6005 11.8683 10.3661 11.6339C10.1317 11.3995 10 11.0815 10 10.75C10 10.4185 10.1317 10.1005 10.3661 9.86612C10.6005 9.6317 10.9185 9.5 11.25 9.5H13.5" stroke="white" stroke-width="1.8" stroke-linecap="round" stroke-linejoin="round"/>
</svg>
