<svg width="24" height="24" viewBox="0 0 24 24" fill="none" xmlns="http://www.w3.org/2000/svg">
<path fill-rule="evenodd" clip-rule="evenodd" d="M8.24922 6.3002C6.13673 6.3002 4.42422 8.01271 4.42422 10.1252C4.42422 12.2377 6.13673 13.9502 8.24922 13.9502C10.3617 13.9502 12.0742 12.2377 12.0742 10.1252C12.0742 8.01271 10.3617 6.3002 8.24922 6.3002ZM2.32422 10.1252C2.32422 6.85291 4.97693 4.2002 8.24922 4.2002C11.5215 4.2002 14.1742 6.85291 14.1742 10.1252C14.1742 13.3975 11.5215 16.0502 8.24922 16.0502C4.97693 16.0502 2.32422 13.3975 2.32422 10.1252Z" fill="white"/>
<path fill-rule="evenodd" clip-rule="evenodd" d="M16.4727 6.34355C15.9324 6.26058 15.3807 6.29435 14.8546 6.44258C14.2964 6.59984 13.7164 6.27485 13.5591 5.71668C13.4019 5.15851 13.7269 4.57854 14.285 4.42128C15.1 4.19167 15.9546 4.13937 16.7915 4.26788C17.6283 4.3964 18.4279 4.70275 19.1364 5.16631C19.8448 5.62987 20.4457 6.23986 20.8986 6.95521C21.3515 7.67056 21.6458 8.47465 21.7617 9.31332C21.8777 10.152 21.8126 11.0058 21.5707 11.8172C21.3289 12.6285 20.9161 13.3787 20.3599 14.0171C19.8038 14.6554 19.1173 15.1672 18.3467 15.518C17.5761 15.8687 16.7393 16.0502 15.8927 16.0503C15.3128 16.0504 14.8426 15.5804 14.8426 15.0005C14.8425 14.4206 15.3126 13.9504 15.8925 13.9503C16.4391 13.9503 16.9793 13.8331 17.4768 13.6066C17.9743 13.3802 18.4175 13.0498 18.7765 12.6377C19.1356 12.2255 19.4021 11.7412 19.5582 11.2174C19.7143 10.6936 19.7564 10.1423 19.6815 9.6009C19.6067 9.05945 19.4167 8.54033 19.1243 8.0785C18.8319 7.61666 18.444 7.22285 17.9866 6.92358C17.5292 6.6243 17.013 6.42652 16.4727 6.34355Z" fill="white"/>
<path fill-rule="evenodd" clip-rule="evenodd" d="M8.24943 16.0502C7.09403 16.0502 5.95561 16.3283 4.93027 16.8608C3.90493 17.3934 3.02277 18.1648 2.35828 19.11C2.02477 19.5844 1.36983 19.6986 0.89543 19.3651C0.421033 19.0316 0.306823 18.3767 0.640336 17.9023C1.49859 16.6814 2.63799 15.6851 3.96232 14.9972C5.28665 14.3094 6.75704 13.9503 8.24935 13.9502C9.74165 13.9501 11.2121 14.3091 12.5365 14.9969C13.8608 15.6846 15.0003 16.6809 15.8587 17.9017C16.1922 18.376 16.078 19.031 15.6037 19.3645C15.1293 19.6981 14.4744 19.5839 14.1408 19.1096C13.4762 18.1644 12.594 17.3931 11.5686 16.8606C10.5433 16.3281 9.40482 16.0502 8.24943 16.0502Z" fill="white"/>
<path fill-rule="evenodd" clip-rule="evenodd" d="M19.2115 16.8593C18.1863 16.3269 17.0478 16.0494 15.8926 16.0502C15.3127 16.0506 14.8422 15.5809 14.8418 15.001C14.8414 14.4211 15.3111 13.9506 15.891 13.9502C17.3837 13.9491 18.8547 14.3077 20.1794 14.9957C21.5041 15.6836 22.6435 16.6806 23.5012 17.9023C23.8344 18.3769 23.7198 19.0318 23.2451 19.365C22.7705 19.6982 22.1157 19.5836 21.7825 19.1089C21.1187 18.1634 20.2368 17.3918 19.2115 16.8593Z" fill="white"/>
</svg>
