<svg width="24" height="24" viewBox="0 0 24 24" fill="none" xmlns="http://www.w3.org/2000/svg">
<path d="M19.875 12C20.9105 12 21.75 11.1605 21.75 10.125C21.75 9.08947 20.9105 8.25 19.875 8.25C18.8395 8.25 18 9.08947 18 10.125C18 11.1605 18.8395 12 19.875 12Z" stroke="white" stroke-width="2" stroke-linecap="round" stroke-linejoin="round"/>
<path d="M4.125 12C5.16053 12 6 11.1605 6 10.125C6 9.08947 5.16053 8.25 4.125 8.25C3.08947 8.25 2.25 9.08947 2.25 10.125C2.25 11.1605 3.08947 12 4.125 12Z" stroke="white" stroke-width="2" stroke-linecap="round" stroke-linejoin="round"/>
<path d="M8.625 7.5C9.66053 7.5 10.5 6.66053 10.5 5.625C10.5 4.58947 9.66053 3.75 8.625 3.75C7.58947 3.75 6.75 4.58947 6.75 5.625C6.75 6.66053 7.58947 7.5 8.625 7.5Z" stroke="white" stroke-width="2" stroke-linecap="round" stroke-linejoin="round"/>
<path d="M15.375 7.5C16.4105 7.5 17.25 6.66053 17.25 5.625C17.25 4.58947 16.4105 3.75 15.375 3.75C14.3395 3.75 13.5 4.58947 13.5 5.625C13.5 6.66053 14.3395 7.5 15.375 7.5Z" stroke="white" stroke-width="2" stroke-linecap="round" stroke-linejoin="round"/>
<path d="M17.1774 14.6113C16.2367 14.0888 15.5404 13.216 15.2399 12.1828L15.2398 12.1829C15.0358 11.4812 14.6096 10.8646 14.0252 10.4259C13.4408 9.98718 12.7298 9.75 11.9991 9.75C11.2683 9.75 10.5573 9.98718 9.9729 10.4259C9.3885 10.8646 8.96229 11.4812 8.75833 12.1829L8.75824 12.1828C8.45773 13.216 7.76139 14.0888 6.82071 14.6113C6.14309 14.9786 5.6328 15.5925 5.39562 16.3259C5.15843 17.0593 5.21253 17.8558 5.54671 18.5503C5.8809 19.2449 6.46953 19.7842 7.19059 20.0565C7.91165 20.3288 8.70984 20.3132 9.41971 20.0129C11.0725 19.3352 12.9256 19.3352 14.5784 20.0129C15.2883 20.3135 16.0867 20.3294 16.808 20.0571C17.5293 19.7849 18.1181 19.2455 18.4524 18.5508C18.7866 17.8561 18.8407 17.0594 18.6033 16.3259C18.3659 15.5924 17.8553 14.9784 17.1774 14.6113H17.1774Z" stroke="white" stroke-width="2" stroke-linecap="round" stroke-linejoin="round"/>
</svg>
