<svg width="25" height="24" viewBox="0 0 25 24" fill="none" xmlns="http://www.w3.org/2000/svg">
<path d="M18.75 3.125C16.6376 3.125 15.3336 4.00211 14.7323 4.88935L11.0241 5.38377L6.80534 5.94627C6.69569 5.96089 6.58923 5.9936 6.49029 6.04307C6.43779 6.06932 6.37846 6.0981 6.31318 6.12977C5.73867 6.40846 4.70362 6.91056 3.81207 7.87641C2.78572 8.98828 2 10.642 2 13.125C2 17.1865 4.7701 19.0615 6.68139 19.5987L7.09236 21.2425C7.20365 21.6877 7.60363 22 8.0625 22H10.3125C10.7714 22 11.1714 21.6877 11.2826 21.2425L11.6558 19.75H12.9067L13.2799 21.2425C13.3911 21.6877 13.7911 22 14.25 22H16.5C16.9589 22 17.3589 21.6877 17.4701 21.2425L17.8896 19.5647C19.7328 18.9573 20.7287 17.4894 21.1727 16.375H22.125C22.6773 16.375 23.125 15.9273 23.125 15.375V11.4375C23.125 10.8852 22.6773 10.4375 22.125 10.4375H21.3383C21.1435 9.45991 20.6856 8.61841 20.1799 7.95083C19.7577 7.3935 19.2823 6.93034 18.8456 6.57849L19.6785 4.49639C19.8017 4.1883 19.7641 3.83914 19.5781 3.56437C19.392 3.2896 19.0818 3.125 18.75 3.125Z" stroke="white" stroke-width="2" stroke-linecap="round" stroke-linejoin="round"/>
<path d="M16.5 10.3135V11.4385" stroke="white" stroke-width="2" stroke-linecap="round" stroke-linejoin="round"/>
</svg>
