<svg width="14" height="14" viewBox="0 0 14 14" fill="none" xmlns="http://www.w3.org/2000/svg">
<path d="M7 13C10.3137 13 13 10.3137 13 7C13 3.68629 10.3137 1 7 1C3.68629 1 1 3.68629 1 7C1 10.3137 3.68629 13 7 13Z" stroke="white" stroke-width="1.2" stroke-linecap="round" stroke-linejoin="round"/>
<path d="M7 11C7.41421 11 7.75 10.6642 7.75 10.25C7.75 9.83579 7.41421 9.5 7 9.5C6.58579 9.5 6.25 9.83579 6.25 10.25C6.25 10.6642 6.58579 11 7 11Z" fill="white"/>
<path d="M7 8.00049V7.50049C7.34612 7.50049 7.68446 7.39785 7.97225 7.20556C8.26003 7.01327 8.48434 6.73996 8.61679 6.42019C8.74924 6.10041 8.7839 5.74855 8.71637 5.40908C8.64885 5.06961 8.48218 4.75779 8.23744 4.51305C7.9927 4.26831 7.68088 4.10164 7.34141 4.03411C7.00194 3.96659 6.65007 4.00125 6.3303 4.1337C6.01053 4.26615 5.73722 4.49046 5.54493 4.77824C5.35264 5.06603 5.25 5.40437 5.25 5.75049" stroke="white" stroke-width="1.2" stroke-linecap="round" stroke-linejoin="round"/>
</svg>
