<svg width="27" height="27" viewBox="0 0 27 27" fill="none" xmlns="http://www.w3.org/2000/svg">
<path d="M20.6962 10.4243L12.5942 3.22388C12.4299 3.07958 12.2187 3 12 3C11.7813 3 11.5701 3.07958 11.4058 3.22388L3.30377 10.4243C3.16606 10.5461 3.06896 10.7071 3.02551 10.8857C2.98205 11.0644 2.99434 11.252 3.06071 11.4234C3.12599 11.5925 3.24085 11.738 3.39023 11.8408C3.53962 11.9436 3.71658 11.9989 3.89792 11.9994H4.79815V20.0999C4.79815 20.3387 4.893 20.5676 5.06182 20.7364C5.23065 20.9052 5.45963 21 5.69838 21H18.3016C18.5404 21 18.7693 20.9052 18.9382 20.7364C19.107 20.5676 19.2018 20.3387 19.2018 20.0999V11.9994H20.1021C20.2834 11.9989 20.4604 11.9436 20.6098 11.8408C20.7592 11.738 20.874 11.5925 20.9393 11.4234C21.0057 11.252 21.0179 11.0644 20.9745 10.8857C20.931 10.7071 20.8339 10.5461 20.6962 10.4243V10.4243ZM12.9002 19.1999H11.0998V16.4997C11.0998 16.261 11.1946 16.0321 11.3634 15.8633C11.5323 15.6945 11.7612 15.5997 12 15.5997C12.2388 15.5997 12.4677 15.6945 12.6366 15.8633C12.8054 16.0321 12.9002 16.261 12.9002 16.4997V19.1999ZM17.4014 19.1999H14.7007V16.4997C14.7007 15.7836 14.4162 15.0968 13.9097 14.5904C13.4032 14.084 12.7163 13.7995 12 13.7995C11.2837 13.7995 10.5968 14.084 10.0903 14.5904C9.58384 15.0968 9.29931 15.7836 9.29931 16.4997V19.1999H6.59861V11.9994H17.4014V19.1999ZM6.26553 10.1993L12 5.10499L17.7345 10.1993H6.26553Z" fill="white"/>
</svg>
