<svg width="24" height="24" viewBox="0 0 24 24" fill="none" xmlns="http://www.w3.org/2000/svg">
<path d="M2.41846 21.5739C2.6303 21.5756 2.84049 21.5359 3.03709 21.4568C3.23458 21.3774 3.41456 21.2598 3.56658 21.1106L3.56659 21.1106L3.57013 21.1071L17.4182 7.32428C17.6105 7.14013 17.8683 7.03752 18.1367 7.03948C18.4066 7.04144 18.6642 7.149 18.8541 7.33789C19.0439 7.52667 19.1509 7.78148 19.1531 8.04713C19.1552 8.31277 19.0523 8.56923 18.8656 8.76098L18.8595 8.76726L18.8535 8.77369C18.569 9.08096 18.4143 9.48646 18.4227 9.90553C18.4312 10.3246 18.602 10.7235 18.8987 11.0191C19.1952 11.3146 19.5943 11.484 20.0124 11.4929C20.4305 11.5018 20.8365 11.3495 21.1453 11.0669L21.158 11.0553L21.17 11.0432C21.9621 10.2437 22.4051 9.16427 22.4012 8.04009C22.3974 6.91591 21.947 5.83952 21.1495 5.04548C20.3521 4.25155 19.2723 3.80423 18.1458 3.80003C17.0193 3.79583 15.9362 4.23508 15.1328 5.02303L15.1328 5.02302L15.1293 5.02651L1.27531 18.8085L1.2738 18.81C1.04746 19.0365 0.893158 19.325 0.830845 19.6394C0.768528 19.9538 0.801102 20.2794 0.924325 20.5753C1.04753 20.871 1.2557 21.1234 1.52209 21.3009C1.7877 21.4778 2.09951 21.5727 2.41846 21.5739ZM2.41846 21.5739C2.41751 21.5739 2.41656 21.5738 2.4156 21.5738L2.42266 20.8739L2.42118 21.5739C2.42027 21.5739 2.41937 21.5739 2.41846 21.5739Z" stroke="white" stroke-width="1.4" stroke-miterlimit="10"/>
<path d="M4.5 16.8223L5.82556 18.1416" stroke="white" stroke-width="1.4" stroke-miterlimit="10" stroke-linecap="round"/>
</svg>
