<svg width="24" height="24" viewBox="0 0 24 24" fill="none" xmlns="http://www.w3.org/2000/svg">
<path fill-rule="evenodd" clip-rule="evenodd" d="M4.05117 7.8002V19.2002H19.9512V7.8002H4.05117ZM1.95117 7.5002C1.95117 6.50608 2.75706 5.7002 3.75117 5.7002H20.2512C21.2453 5.7002 22.0512 6.50608 22.0512 7.5002V19.5002C22.0512 20.4943 21.2453 21.3002 20.2512 21.3002H3.75117C2.75706 21.3002 1.95117 20.4943 1.95117 19.5002V7.5002Z" fill="white"/>
<path fill-rule="evenodd" clip-rule="evenodd" d="M7.9461 3.44707C8.42431 2.96886 9.07292 2.7002 9.74922 2.7002H14.2492C14.9255 2.7002 15.5741 2.96886 16.0523 3.44707C16.5306 3.92529 16.7992 4.57389 16.7992 5.2502V6.7502C16.7992 7.33009 16.3291 7.8002 15.7492 7.8002C15.1693 7.8002 14.6992 7.33009 14.6992 6.7502V5.2502C14.6992 5.13085 14.6518 5.01639 14.5674 4.932C14.483 4.84761 14.3686 4.8002 14.2492 4.8002H9.74922C9.62987 4.8002 9.51541 4.84761 9.43102 4.932C9.34663 5.01639 9.29922 5.13085 9.29922 5.2502V6.7502C9.29922 7.33009 8.82912 7.8002 8.24922 7.8002C7.66932 7.8002 7.19922 7.33009 7.19922 6.7502V5.2502C7.19922 4.57389 7.46788 3.92529 7.9461 3.44707Z" fill="white"/>
<path fill-rule="evenodd" clip-rule="evenodd" d="M21.9103 11.3154C22.2007 11.8173 22.0293 12.4596 21.5273 12.75C18.6321 14.4251 15.3455 15.3047 12.0007 15.2997C8.65652 15.3047 5.37044 14.4254 2.47561 12.7509C1.97364 12.4605 1.80209 11.8182 2.09245 11.3162C2.38281 10.8143 3.02512 10.6427 3.52709 10.9331C6.10183 12.4224 9.02463 13.2044 11.9991 13.1997H12.0024C14.9773 13.2044 17.9006 12.4221 20.4757 10.9323C20.9776 10.6419 21.6199 10.8134 21.9103 11.3154Z" fill="white"/>
<path fill-rule="evenodd" clip-rule="evenodd" d="M9.82422 11.2502C9.82422 10.6703 10.2943 10.2002 10.8742 10.2002H13.1242C13.7041 10.2002 14.1742 10.6703 14.1742 11.2502C14.1742 11.8301 13.7041 12.3002 13.1242 12.3002H10.8742C10.2943 12.3002 9.82422 11.8301 9.82422 11.2502Z" fill="white"/>
</svg>
