<svg width="16" height="20" viewBox="0 0 16 20" fill="none" xmlns="http://www.w3.org/2000/svg">
<path d="M14.5625 5.375H11.75V4.4C11.75 3.36566 11.3549 2.37368 10.6517 1.64228C9.94839 0.910892 8.99456 0.5 8 0.5C7.00544 0.5 6.05161 0.910892 5.34835 1.64228C4.64509 2.37368 4.25 3.36566 4.25 4.4V5.375H1.4375C1.18886 5.375 0.950403 5.47772 0.774588 5.66057C0.598772 5.84342 0.5 6.09141 0.5 6.35V17.075C0.5 17.8508 0.796316 18.5947 1.32376 19.1433C1.85121 19.6918 2.56658 20 3.3125 20H12.6875C13.4334 20 14.1488 19.6918 14.6762 19.1433C15.2037 18.5947 15.5 17.8508 15.5 17.075V6.35C15.5 6.09141 15.4012 5.84342 15.2254 5.66057C15.0496 5.47772 14.8111 5.375 14.5625 5.375ZM6.125 4.4C6.125 3.88283 6.32254 3.38684 6.67418 3.02114C7.02581 2.65545 7.50272 2.45 8 2.45C8.49728 2.45 8.97419 2.65545 9.32582 3.02114C9.67746 3.38684 9.875 3.88283 9.875 4.4V5.375H6.125V4.4ZM13.625 17.075C13.625 17.3336 13.5262 17.5816 13.3504 17.7644C13.1746 17.9473 12.9361 18.05 12.6875 18.05H3.3125C3.06386 18.05 2.8254 17.9473 2.64959 17.7644C2.47377 17.5816 2.375 17.3336 2.375 17.075V7.325H4.25V8.3C4.25 8.55859 4.34877 8.80658 4.52459 8.98943C4.7004 9.17228 4.93886 9.275 5.1875 9.275C5.43614 9.275 5.6746 9.17228 5.85041 8.98943C6.02623 8.80658 6.125 8.55859 6.125 8.3V7.325H9.875V8.3C9.875 8.55859 9.97377 8.80658 10.1496 8.98943C10.3254 9.17228 10.5639 9.275 10.8125 9.275C11.0611 9.275 11.2996 9.17228 11.4754 8.98943C11.6512 8.80658 11.75 8.55859 11.75 8.3V7.325H13.625V17.075Z" fill="white"/>
</svg>
