<svg width="24" height="24" viewBox="0 0 24 24" fill="none" xmlns="http://www.w3.org/2000/svg">
<path d="M22.5673 11.4172L20.25 12.5759L17.25 6.83067L19.5909 5.66024C19.7667 5.5723 19.9701 5.55695 20.1572 5.61749C20.3443 5.67802 20.5001 5.80961 20.5911 5.9839L22.8967 10.3992C22.9428 10.4875 22.9708 10.5841 22.9792 10.6834C22.9876 10.7826 22.9761 10.8825 22.9454 10.9773C22.9148 11.0721 22.8655 11.1598 22.8006 11.2353C22.7357 11.3108 22.6564 11.3727 22.5673 11.4172V11.4172Z" stroke="white" stroke-width="2" stroke-linecap="round" stroke-linejoin="round"/>
<path d="M3.74945 12.4753L1.43217 11.3166C1.34308 11.2721 1.26376 11.2103 1.19883 11.1347C1.13391 11.0592 1.08467 10.9715 1.05401 10.8767C1.02334 10.782 1.01186 10.682 1.02023 10.5828C1.0286 10.4835 1.05666 10.387 1.10276 10.2987L3.40835 5.88332C3.49936 5.70902 3.65518 5.57744 3.84226 5.5169C4.02934 5.45636 4.23271 5.47171 4.40858 5.55965L6.74945 6.73008L3.74945 12.4753Z" stroke="white" stroke-width="2" stroke-linecap="round" stroke-linejoin="round"/>
<path d="M20.25 12.5761L18.75 14.3309L15.3003 17.7806C15.2087 17.8722 15.095 17.9385 14.9701 17.9731C14.8453 18.0076 14.7137 18.0093 14.588 17.9779L9.15458 16.6195C9.05266 16.594 8.95724 16.5474 8.87448 16.4827L3.75 12.4756" stroke="white" stroke-width="2" stroke-linecap="round" stroke-linejoin="round"/>
<path d="M18.7508 14.3311L14.6258 11.3311L13.4258 12.2311C12.9065 12.6205 12.2749 12.8311 11.6258 12.8311C10.9767 12.8311 10.3451 12.6205 9.82577 12.2311L9.31758 11.8499C9.23161 11.7854 9.16051 11.7032 9.10908 11.6089C9.05764 11.5146 9.02708 11.4103 9.01947 11.3031C9.01185 11.1959 9.02735 11.0883 9.06493 10.9877C9.1025 10.887 9.16127 10.7956 9.23725 10.7196L12.9061 7.05072C12.9757 6.98108 13.0584 6.92584 13.1494 6.88814C13.2404 6.85045 13.3379 6.83105 13.4364 6.83105H17.2508" stroke="white" stroke-width="2" stroke-linecap="round" stroke-linejoin="round"/>
<path d="M6.80469 6.73047L11.6159 5.32783C11.7878 5.27772 11.9719 5.29075 12.135 5.36455L15.3758 6.83095" stroke="white" stroke-width="2" stroke-linecap="round" stroke-linejoin="round"/>
<path d="M10.5 19.9558L7.67443 19.2494C7.55977 19.2207 7.4535 19.1654 7.3643 19.0878L5.25 17.25" stroke="white" stroke-width="2" stroke-linecap="round" stroke-linejoin="round"/>
</svg>
