<svg width="26" height="24" viewBox="0 0 26 24" fill="none" xmlns="http://www.w3.org/2000/svg">
<path fill-rule="evenodd" clip-rule="evenodd" d="M7.29922 6.3002V17.7002H8.94922V6.3002H7.29922ZM5.19922 6.0002C5.19922 5.00608 6.00511 4.2002 6.99922 4.2002H9.24922C10.2433 4.2002 11.0492 5.00608 11.0492 6.0002V18.0002C11.0492 18.9943 10.2433 19.8002 9.24922 19.8002H6.99922C6.00511 19.8002 5.19922 18.9943 5.19922 18.0002V6.0002Z" fill="white"/>
<path fill-rule="evenodd" clip-rule="evenodd" d="M17.0492 6.3002V17.7002H18.6992V6.3002H17.0492ZM14.9492 6.0002C14.9492 5.00608 15.7551 4.2002 16.7492 4.2002H18.9992C19.9933 4.2002 20.7992 5.00608 20.7992 6.0002V18.0002C20.7992 18.9943 19.9933 19.8002 18.9992 19.8002H16.7492C15.7551 19.8002 14.9492 18.9943 14.9492 18.0002V6.0002Z" fill="white"/>
<path fill-rule="evenodd" clip-rule="evenodd" d="M18.6992 7.5002C18.6992 6.9203 19.1693 6.4502 19.7492 6.4502H21.9992C22.4766 6.4502 22.9344 6.63984 23.272 6.9774C23.6096 7.31497 23.7992 7.77281 23.7992 8.2502V15.7502C23.7992 16.2276 23.6096 16.6854 23.272 17.023C22.9344 17.3606 22.4766 17.5502 21.9992 17.5502H19.7492C19.1693 17.5502 18.6992 17.0801 18.6992 16.5002C18.6992 15.9203 19.1693 15.4502 19.7492 15.4502H21.6992V8.5502H19.7492C19.1693 8.5502 18.6992 8.08009 18.6992 7.5002Z" fill="white"/>
<path fill-rule="evenodd" clip-rule="evenodd" d="M4.29922 8.5502H6.24922C6.82912 8.5502 7.29922 8.08009 7.29922 7.5002C7.29922 6.9203 6.82912 6.4502 6.24922 6.4502H3.99922C3.52183 6.4502 3.06399 6.63984 2.72643 6.9774C2.38886 7.31497 2.19922 7.77281 2.19922 8.2502V15.7502C2.19922 16.2276 2.38886 16.6854 2.72643 17.023C3.06399 17.3606 3.52183 17.5502 3.99922 17.5502H6.24922C6.82912 17.5502 7.29922 17.0801 7.29922 16.5002C7.29922 15.9203 6.82912 15.4502 6.24922 15.4502H4.29922V8.5502Z" fill="white"/>
<path fill-rule="evenodd" clip-rule="evenodd" d="M8.94922 12.0002C8.94922 11.4203 9.41932 10.9502 9.99922 10.9502H15.9992C16.5791 10.9502 17.0492 11.4203 17.0492 12.0002C17.0492 12.5801 16.5791 13.0502 15.9992 13.0502H9.99922C9.41932 13.0502 8.94922 12.5801 8.94922 12.0002Z" fill="white"/>
<path fill-rule="evenodd" clip-rule="evenodd" d="M21.6992 12.0002C21.6992 11.4203 22.1693 10.9502 22.7492 10.9502H24.2492C24.8291 10.9502 25.2992 11.4203 25.2992 12.0002C25.2992 12.5801 24.8291 13.0502 24.2492 13.0502H22.7492C22.1693 13.0502 21.6992 12.5801 21.6992 12.0002Z" fill="white"/>
<path fill-rule="evenodd" clip-rule="evenodd" d="M0.699219 12.0002C0.699219 11.4203 1.16932 10.9502 1.74922 10.9502H3.24922C3.82912 10.9502 4.29922 11.4203 4.29922 12.0002C4.29922 12.5801 3.82912 13.0502 3.24922 13.0502H1.74922C1.16932 13.0502 0.699219 12.5801 0.699219 12.0002Z" fill="white"/>
</svg>
