<svg width="24" height="24" viewBox="0 0 24 24" fill="none" xmlns="http://www.w3.org/2000/svg">
<path fill-rule="evenodd" clip-rule="evenodd" d="M11.449 2.10595C11.7865 1.89828 12.2121 1.89828 12.5496 2.10595L22.2996 8.10595C22.6997 8.35216 22.8876 8.83415 22.7596 9.28616C22.6317 9.73817 22.2191 10.0502 21.7493 10.0502H2.24931C1.77954 10.0502 1.36694 9.73817 1.239 9.28616C1.11106 8.83415 1.29893 8.35216 1.69901 8.10595L11.449 2.10595ZM5.959 7.9502H18.0396L11.9993 4.23308L5.959 7.9502Z" fill="white"/>
<path fill-rule="evenodd" clip-rule="evenodd" d="M5.25117 7.9502C5.83107 7.9502 6.30117 8.4203 6.30117 9.0002V16.5002C6.30117 17.0801 5.83107 17.5502 5.25117 17.5502C4.67127 17.5502 4.20117 17.0801 4.20117 16.5002V9.0002C4.20117 8.4203 4.67127 7.9502 5.25117 7.9502Z" fill="white"/>
<path fill-rule="evenodd" clip-rule="evenodd" d="M9.75117 7.9502C10.3311 7.9502 10.8012 8.4203 10.8012 9.0002V16.5002C10.8012 17.0801 10.3311 17.5502 9.75117 17.5502C9.17127 17.5502 8.70117 17.0801 8.70117 16.5002V9.0002C8.70117 8.4203 9.17127 7.9502 9.75117 7.9502Z" fill="white"/>
<path fill-rule="evenodd" clip-rule="evenodd" d="M14.2512 7.9502C14.8311 7.9502 15.3012 8.4203 15.3012 9.0002V16.5002C15.3012 17.0801 14.8311 17.5502 14.2512 17.5502C13.6713 17.5502 13.2012 17.0801 13.2012 16.5002V9.0002C13.2012 8.4203 13.6713 7.9502 14.2512 7.9502Z" fill="white"/>
<path fill-rule="evenodd" clip-rule="evenodd" d="M18.7512 7.9502C19.3311 7.9502 19.8012 8.4203 19.8012 9.0002V16.5002C19.8012 17.0801 19.3311 17.5502 18.7512 17.5502C18.1713 17.5502 17.7012 17.0801 17.7012 16.5002V9.0002C17.7012 8.4203 18.1713 7.9502 18.7512 7.9502Z" fill="white"/>
<path fill-rule="evenodd" clip-rule="evenodd" d="M1.95117 16.5002C1.95117 15.9203 2.42127 15.4502 3.00117 15.4502H21.0012C21.5811 15.4502 22.0512 15.9203 22.0512 16.5002C22.0512 17.0801 21.5811 17.5502 21.0012 17.5502H3.00117C2.42127 17.5502 1.95117 17.0801 1.95117 16.5002Z" fill="white"/>
<path fill-rule="evenodd" clip-rule="evenodd" d="M0.451172 19.5002C0.451172 18.9203 0.921273 18.4502 1.50117 18.4502H22.5012C23.0811 18.4502 23.5512 18.9203 23.5512 19.5002C23.5512 20.0801 23.0811 20.5502 22.5012 20.5502H1.50117C0.921273 20.5502 0.451172 20.0801 0.451172 19.5002Z" fill="white"/>
</svg>
