<svg width="24" height="24" viewBox="0 0 24 24" fill="none" xmlns="http://www.w3.org/2000/svg">
<path d="M19.6451 7.53748L16.4902 10.4998L19.4902 18.7498L17.2402 20.9998L12.7582 14.4392L10.4902 16.4998V18.7498L8.24023 20.9998L6.90969 17.076L2.99023 15.7498L5.24023 13.4998H7.49023L9.74023 11.2498L2.99023 6.7498L5.24023 4.4998L13.4902 7.4998L16.4631 4.3555L16.3992 4.40881C16.6081 4.1995 16.8562 4.03341 17.1292 3.92003C17.4023 3.80665 17.6951 3.74821 17.9907 3.74805C18.2864 3.74788 18.5792 3.806 18.8524 3.91908C19.1257 4.03216 19.3739 4.19798 19.583 4.40706C19.7921 4.61614 19.9579 4.86438 20.0709 5.13758C20.184 5.41079 20.2421 5.7036 20.242 5.99928C20.2418 6.29497 20.1834 6.58772 20.07 6.8608C19.9566 7.13388 19.7905 7.38194 19.5812 7.59079L19.6451 7.53748Z" stroke="white" stroke-width="2" stroke-linecap="round" stroke-linejoin="round"/>
</svg>
