<svg width="22" height="22" viewBox="0 0 22 22" fill="none" xmlns="http://www.w3.org/2000/svg">
<path d="M11 18.5938C15.1939 18.5938 18.5938 15.1939 18.5938 11C18.5938 6.80609 15.1939 3.40625 11 3.40625C6.80609 3.40625 3.40625 6.80609 3.40625 11C3.40625 15.1939 6.80609 18.5938 11 18.5938Z" stroke="white" stroke-width="2" stroke-linecap="round" stroke-linejoin="round"/>
<path d="M11 16.0625C11.5242 16.0625 11.9492 15.6375 11.9492 15.1133C11.9492 14.589 11.5242 14.1641 11 14.1641C10.4758 14.1641 10.0508 14.589 10.0508 15.1133C10.0508 15.6375 10.4758 16.0625 11 16.0625Z" fill="white"/>
<path d="M11 12.2656V11.6328C11.4381 11.6328 11.8663 11.5029 12.2305 11.2595C12.5947 11.0162 12.8786 10.6703 13.0463 10.2656C13.2139 9.86084 13.2577 9.41551 13.1723 8.98588C13.0868 8.55624 12.8759 8.16159 12.5661 7.85184C12.2564 7.54209 11.8617 7.33114 11.4321 7.24568C11.0025 7.16022 10.5571 7.20408 10.1524 7.37172C9.74771 7.53936 9.4018 7.82324 9.15843 8.18747C8.91506 8.5517 8.78516 8.97992 8.78516 9.41797" stroke="white" stroke-width="2" stroke-linecap="round" stroke-linejoin="round"/>
</svg>
