<svg width="66" height="67" viewBox="0 0 66 67" fill="none" xmlns="http://www.w3.org/2000/svg">
<rect width="67" height="67" fill="#E34848"/>
<path d="M27.3532 15.5047C27.1189 15.2704 26.739 15.2704 26.5047 15.5047C26.2704 15.739 26.2704 16.1189 26.5047 16.3532L27.3532 15.5047ZM40.6468 30.4953C40.8811 30.7296 41.261 30.7296 41.4953 30.4953C41.7296 30.261 41.7296 29.8811 41.4953 29.6468L40.6468 30.4953ZM43.4 23C43.4 28.1915 39.1915 32.4 34 32.4V33.6C39.8542 33.6 44.6 28.8542 44.6 23H43.4ZM34 32.4C28.8085 32.4 24.6 28.1915 24.6 23H23.4C23.4 28.8542 28.1458 33.6 34 33.6V32.4ZM24.6 23C24.6 17.8085 28.8085 13.6 34 13.6V12.4C28.1458 12.4 23.4 17.1458 23.4 23H24.6ZM34 13.6C39.1915 13.6 43.4 17.8085 43.4 23H44.6C44.6 17.1458 39.8542 12.4 34 12.4V13.6ZM26.5047 16.3532L40.6468 30.4953L41.4953 29.6468L27.3532 15.5047L26.5047 16.3532Z" fill="white"/>
<path d="M13.012 47.512H10.552V48.34H12.124V51.016H13.012V47.512ZM13.012 50.536H12.208C11.62 51.052 10.936 51.58 10.396 51.964L10.864 52.864C11.476 52.336 12.064 51.82 12.616 51.304C13.396 52.252 14.488 52.672 16.06 52.744C17.404 52.78 19.936 52.756 21.268 52.708C21.316 52.432 21.448 52.012 21.568 51.808C20.128 51.904 17.38 51.928 16.06 51.892C14.644 51.832 13.588 51.412 13.012 50.536ZM11.068 42.628C11.8 43.036 12.64 43.66 13.036 44.128L13.66 43.516C13.252 43.048 12.388 42.448 11.668 42.076L11.068 42.628ZM10.6 45.076C11.368 45.448 12.256 46.06 12.676 46.516L13.3 45.88C12.856 45.412 11.944 44.836 11.2 44.488L10.6 45.076ZM13.708 43.924V44.596H21.496V43.924H13.708ZM14.644 46.792V47.44H20.644V46.792H14.644ZM14.644 45.376V46.024H20.644V45.376H14.644ZM14.812 42.484V43.132H20.512V42.484H14.812ZM15.424 48.904H19.84V50.32H15.424V48.904ZM14.596 48.244V50.98H20.692V48.244H14.596ZM22.588 46.648V47.344H33.424V46.648H22.588ZM23.56 49.516V50.212H32.452V49.516H23.56ZM22.792 50.968V51.688H33.232V50.968H22.792ZM24.028 45.256V45.94H31.216V48.124H23.932V48.808H32.14V45.256H24.028ZM27.496 44.596V52.96H28.42V44.596H27.496ZM24.1 42.952V43.648H27.892V42.952H24.1ZM28.6 42.952V43.648H33.316V42.952H28.6ZM24.4 41.908C23.98 42.916 23.284 43.936 22.528 44.608C22.744 44.728 23.104 44.956 23.284 45.1C23.98 44.38 24.748 43.252 25.228 42.148L24.4 41.908ZM28.924 41.908C28.492 42.904 27.7 43.816 26.824 44.416C27.04 44.5 27.412 44.728 27.58 44.872C28.42 44.224 29.272 43.216 29.764 42.124L28.924 41.908ZM24.796 43.54C25.12 43.972 25.444 44.56 25.588 44.932L26.368 44.68C26.212 44.308 25.864 43.732 25.552 43.324L24.796 43.54ZM29.452 43.516C29.848 43.924 30.268 44.524 30.46 44.92L31.216 44.584C31.024 44.2 30.58 43.624 30.184 43.216L29.452 43.516ZM34.828 42.772V43.684H45.16V42.772H34.828ZM40.708 46.264C42.136 47.236 43.936 48.64 44.776 49.564L45.508 48.88C44.62 47.956 42.784 46.6 41.38 45.688L40.708 46.264ZM40.48 43.084C39.364 45.34 37.132 47.644 34.528 48.952C34.708 49.144 34.996 49.504 35.14 49.732C37.852 48.304 40.096 45.928 41.464 43.444L40.48 43.084ZM39.496 45.484V52.948H40.468V44.524L39.496 45.484ZM46.672 50.188V50.932H57.376V50.188H46.672ZM49.024 46.528H55.168V47.224H49.024V46.528ZM49.024 47.812H55.168V48.532H49.024V47.812ZM49.024 45.256H55.168V45.952H49.024V45.256ZM48.112 44.644V49.132H56.104V44.644H48.112ZM53.704 48.976V52.948H54.616V48.976H53.704ZM47.956 42.82V43.564H51.832V42.82H47.956ZM52.588 42.82V43.564H57.268V42.82H52.588ZM48.184 41.872C47.812 42.808 47.14 43.744 46.408 44.356C46.624 44.464 46.984 44.716 47.152 44.848C47.848 44.176 48.58 43.144 49.036 42.1L48.184 41.872ZM52.912 41.872C52.576 42.784 51.952 43.66 51.22 44.236C51.448 44.344 51.832 44.548 52.012 44.692C52.696 44.068 53.392 43.096 53.764 42.076L52.912 41.872ZM48.724 43.408C49.024 43.792 49.312 44.344 49.456 44.692L50.236 44.404C50.104 44.056 49.768 43.528 49.48 43.156L48.724 43.408ZM53.776 43.372C54.172 43.756 54.604 44.332 54.796 44.692L55.552 44.344C55.348 43.96 54.892 43.42 54.496 43.048L53.776 43.372ZM49.732 48.964V49.924C49.732 50.644 49.432 51.676 46.864 52.3C47.056 52.48 47.296 52.78 47.428 52.972C50.212 52.18 50.644 50.968 50.644 49.936V48.964H49.732Z" fill="white"/>
</svg>
