<svg width="20" height="20" viewBox="0 0 20 20" fill="none" xmlns="http://www.w3.org/2000/svg">
<path d="M15.8346 5.45459L4.16797 5.4546" stroke="#C4C4C4" stroke-width="1.6" stroke-linecap="round" stroke-linejoin="round"/>
<path d="M8.41016 8.63623V12.8787" stroke="#C4C4C4" stroke-width="1.6" stroke-linecap="round" stroke-linejoin="round"/>
<path d="M11.5938 8.63623V12.8787" stroke="#C4C4C4" stroke-width="1.6" stroke-linecap="round" stroke-linejoin="round"/>
<path d="M14.7759 5.45459V15.5303C14.7759 15.671 14.7201 15.8059 14.6206 15.9053C14.5211 16.0048 14.3863 16.0607 14.2456 16.0607H5.76077C5.62013 16.0607 5.48524 16.0048 5.38579 15.9053C5.28634 15.8059 5.23047 15.671 5.23047 15.5303V5.45459" stroke="#C4C4C4" stroke-width="1.6" stroke-linecap="round" stroke-linejoin="round"/>
<path d="M12.6546 5.45471V4.3941C12.6546 4.11281 12.5429 3.84304 12.3439 3.64414C12.145 3.44524 11.8753 3.3335 11.594 3.3335H8.41217C8.13088 3.3335 7.86111 3.44524 7.66221 3.64414C7.4633 3.84304 7.35156 4.11281 7.35156 4.3941V5.45471" stroke="#C4C4C4" stroke-width="1.6" stroke-linecap="round" stroke-linejoin="round"/>
</svg>
