<svg width="16" height="16" viewBox="0 0 16 16" fill="none" xmlns="http://www.w3.org/2000/svg">
<circle cx="8" cy="8" r="8" fill="#67645F"/>
<path d="M6.47899 5.06642C6.08847 4.6759 5.4553 4.6759 5.06478 5.06642C4.67425 5.45694 4.67425 6.09011 5.06478 6.48063L6.47899 5.06642ZM9.77424 11.1901C10.1648 11.5806 10.7979 11.5806 11.1885 11.1901C11.579 10.7996 11.579 10.1664 11.1885 9.77589L9.77424 11.1901ZM11.1907 6.47834C11.5813 6.08782 11.5813 5.45465 11.1907 5.06413C10.8002 4.67361 10.1671 4.67361 9.77653 5.06413L11.1907 6.47834ZM5.06249 9.77817C4.67196 10.1687 4.67196 10.8019 5.06249 11.1924C5.45301 11.5829 6.08618 11.5829 6.4767 11.1924L5.06249 9.77817ZM5.06478 6.48063L7.41951 8.83537L8.83372 7.42115L6.47899 5.06642L5.06478 6.48063ZM7.41951 8.83537L9.77424 11.1901L11.1885 9.77589L8.83372 7.42115L7.41951 8.83537ZM9.77653 5.06413L7.41951 7.42115L8.83372 8.83537L11.1907 6.47834L9.77653 5.06413ZM7.41951 7.42115L5.06249 9.77817L6.4767 11.1924L8.83372 8.83537L7.41951 7.42115Z" fill="white"/>
</svg>
