<svg width="57" height="61" viewBox="0 0 57 61" fill="none" xmlns="http://www.w3.org/2000/svg">
<path d="M42.1442 22.0683V6C42.1442 3.79086 40.3533 2 38.1442 2H5.5C3.29086 2 1.5 3.79086 1.5 6V48.0349C1.5 49.1502 1.96564 50.2149 2.78458 50.972L10.0537 57.6925C10.7928 58.3758 11.7624 58.7554 12.7691 58.7554H38.1442C40.3533 58.7554 42.1442 56.9645 42.1442 54.7554V46.475" stroke="#9C9C9C" stroke-width="3" stroke-linecap="round" stroke-linejoin="round"/>
<path d="M2.59863 48.5029H8.11889C10.328 48.5029 12.1189 50.2938 12.1189 52.5029V57.657" stroke="#9C9C9C" stroke-width="3" stroke-linecap="round" stroke-linejoin="round"/>
<path d="M11.5 11H32.5" stroke="#9C9C9C" stroke-width="3" stroke-linecap="round" stroke-linejoin="round"/>
<path d="M11.5 18H32.5" stroke="#9C9C9C" stroke-width="3" stroke-linecap="round" stroke-linejoin="round"/>
<path d="M11.5 25H32.5" stroke="#9C9C9C" stroke-width="3" stroke-linecap="round" stroke-linejoin="round"/>
<path d="M11.5 32H23.5" stroke="#9C9C9C" stroke-width="3" stroke-linecap="round" stroke-linejoin="round"/>
<path d="M54.753 25.5609L53.6772 24.5157C53.0999 25.1099 53.1136 26.0595 53.7078 26.6368L54.753 25.5609ZM50.3172 21.275L51.3931 22.3203C51.3985 22.3148 51.4038 22.3092 51.409 22.3036L50.3172 21.275ZM30.1677 42.0155L29.0918 40.9703C28.5146 41.5645 28.5283 42.5141 29.1225 43.0914L30.1677 42.0155ZM34.5918 46.3136L33.5466 47.3895C34.1408 47.9667 35.0904 47.953 35.6677 47.3588L34.5918 46.3136ZM54.7531 25.561L55.829 26.6062C56.4063 26.012 56.3926 25.0624 55.7984 24.4851L54.7531 25.561ZM53.6773 24.5156C53.6772 24.5156 53.6772 24.5156 53.6772 24.5156C53.6772 24.5156 53.6772 24.5157 53.6772 24.5157L55.8289 26.6061C55.8289 26.6061 55.829 26.6061 55.829 26.6061C55.829 26.6061 55.829 26.606 55.829 26.606L53.6773 24.5156ZM52.7719 23.1742C53.2232 23.6127 53.4718 24.0697 53.5595 24.3941C53.657 24.7548 53.5128 24.6849 53.6773 24.5156L55.829 26.606C56.6982 25.7114 56.6968 24.5036 56.4555 23.6112C56.2045 22.6824 55.6327 21.7708 54.8623 21.0224L52.7719 23.1742ZM51.4049 22.308C51.2404 22.4772 51.1664 22.3351 51.5298 22.4221C51.8565 22.5004 52.3205 22.7357 52.7719 23.1742L54.8623 21.0224C54.092 20.274 53.1643 19.7288 52.2286 19.5047C51.3296 19.2893 50.1223 19.3228 49.2531 20.2175L51.4049 22.308ZM51.409 22.3036C51.4076 22.3051 51.4063 22.3065 51.4049 22.308L49.2531 20.2175C49.2438 20.2271 49.2346 20.2367 49.2255 20.2464L51.409 22.3036ZM31.2436 43.0607L51.3931 22.3203L49.2414 20.2298L29.0918 40.9703L31.2436 43.0607ZM35.637 45.2377L31.2129 40.9396L29.1225 43.0914L33.5466 47.3895L35.637 45.2377ZM53.6773 24.5158L33.5159 45.2684L35.6677 47.3588L55.829 26.6062L53.6773 24.5158ZM53.7078 26.6368L53.7079 26.6369L55.7984 24.4851L55.7983 24.485L53.7078 26.6368Z" fill="#9C9C9C"/>
<path d="M28.8874 47.7591L30.3587 41.9325L34.6691 46.12L28.8874 47.7591Z" stroke="#9C9C9C" stroke-width="3" stroke-linecap="round" stroke-linejoin="round"/>
</svg>
