<svg width="24" height="24" viewBox="0 0 24 24" fill="none" xmlns="http://www.w3.org/2000/svg">
<path d="M18 9L20.5858 11.5858C21.3668 12.3668 21.3668 13.6332 20.5858 14.4142L18 17" stroke="#707070" stroke-width="1.4" stroke-linecap="round"/>
<path d="M14 15.6924L14 5.00008C14 3.89551 13.1046 3.00008 12 3.00008L6 3.00008" stroke="#707070" stroke-width="1.4" stroke-linecap="round"/>
<path d="M14 19.1446L14 14.6923V7.40086C14 6.55984 13.4739 5.80868 12.6835 5.52127L5.68349 2.97581C4.37912 2.5015 3 3.46747 3 4.8554L3 16.5991C3 17.4402 3.52613 18.1913 4.31651 18.4787L11.3165 21.0242C12.6209 21.4985 14 20.5325 14 19.1446Z" stroke="#707070" stroke-width="1.4" stroke-linecap="round"/>
<path d="M11 12V13.5" stroke="#707070" stroke-width="1.4" stroke-linecap="round"/>
<path d="M14.5 13L20 13" stroke="#707070" stroke-width="1.4" stroke-linecap="round"/>
</svg>
