<svg width="28" height="14" viewBox="0 0 28 14" fill="none" xmlns="http://www.w3.org/2000/svg">
<path d="M7.154 2.172V3.194H12.32V2.172H7.154ZM0.658 1.122V2.102H7.504V1.122H0.658ZM2.296 3.964V4.93H5.936V3.964H2.296ZM2.296 6.876V7.828H5.936V6.876H2.296ZM12.012 2.172V2.424C11.41 7.338 9.324 10.628 6.552 12.07C6.79 12.266 7.084 12.658 7.252 12.924C10.248 11.188 12.39 7.898 13.062 2.326L12.39 2.144L12.194 2.172H12.012ZM8.428 3.25L7.42 3.446C8.288 7.842 9.898 11.258 12.936 12.98C13.104 12.7 13.44 12.308 13.678 12.098C10.794 10.614 9.17 7.296 8.428 3.25ZM1.75 1.5V10.586H2.758V1.5H1.75ZM5.502 1.5V13.092H6.51V1.5H5.502ZM0.378 10.278L0.574 11.328C2.03 11.104 4.046 10.782 5.964 10.474L5.908 9.508C3.864 9.816 1.75 10.11 0.378 10.278ZM19.768 4.244V5.21H25.9V4.244H19.768ZM19.278 4.244V8.122C19.278 9.522 19.208 11.286 18.494 12.574C18.718 12.686 19.138 13.008 19.292 13.176C20.132 11.776 20.258 9.69 20.258 8.122V4.244H19.278ZM20.44 9.424L20.804 10.334C22.232 9.998 24.122 9.522 25.914 9.06L25.816 8.234C23.856 8.682 21.798 9.158 20.44 9.424ZM20.692 6.806C21.938 7.086 23.52 7.632 24.332 8.066L24.752 7.31C23.926 6.876 22.344 6.372 21.112 6.134L20.692 6.806ZM26.068 0.631999C25.732 1.458 25.088 2.592 24.598 3.306L25.48 3.684C25.984 2.984 26.586 1.962 27.09 1.038L26.068 0.631999ZM18.914 1.108C19.502 1.934 20.104 3.026 20.328 3.754L21.266 3.292C21.028 2.578 20.398 1.5 19.796 0.715999L18.914 1.108ZM25.55 4.244V11.804C25.55 12 25.48 12.056 25.27 12.07C25.046 12.084 24.304 12.084 23.506 12.042C23.646 12.336 23.8 12.77 23.842 13.05C24.906 13.05 25.606 13.05 26.04 12.882C26.446 12.714 26.572 12.392 26.572 11.818V4.244H25.55ZM22.442 0.24V4.86H23.492V0.24H22.442ZM15.26 1.164C16.114 1.668 17.248 2.382 17.808 2.83L18.452 1.976C17.864 1.57 16.702 0.897999 15.876 0.436L15.26 1.164ZM14.504 5.028C15.358 5.476 16.52 6.148 17.094 6.54L17.682 5.686C17.08 5.28 15.904 4.664 15.078 4.258L14.504 5.028ZM14.98 12.224L15.862 12.938C16.688 11.636 17.668 9.886 18.41 8.402L17.64 7.716C16.828 9.312 15.722 11.16 14.98 12.224Z" fill="#4A4A4A"/>
</svg>
