<svg width="16" height="16" viewBox="0 0 16 16" fill="none" xmlns="http://www.w3.org/2000/svg">
<circle cx="8" cy="8" r="8" fill="#242424"/>
<path d="M4.35938 6.99964C3.80709 6.99964 3.35938 7.44736 3.35938 7.99964C3.35938 8.55193 3.80709 8.99964 4.35938 8.99964V6.99964ZM11.625 8.99964C12.1773 8.99964 12.625 8.55193 12.625 7.99964C12.625 7.44736 12.1773 6.99964 11.625 6.99964V8.99964ZM8.99221 4.36328C8.99221 3.811 8.54449 3.36328 7.99221 3.36328C7.43992 3.36328 6.99221 3.811 6.99221 4.36328H8.99221ZM6.99221 11.636C6.99221 12.1883 7.43992 12.636 7.99221 12.636C8.54449 12.636 8.99221 12.1883 8.99221 11.636H6.99221ZM4.35938 8.99964H7.99221V6.99964H4.35938V8.99964ZM7.99221 8.99964H11.625V6.99964H7.99221V8.99964ZM6.99221 4.36328V7.99964H8.99221V4.36328H6.99221ZM6.99221 7.99964V11.636H8.99221V7.99964H6.99221Z" fill="#EDEDED"/>
</svg>
