<svg width="20" height="20" viewBox="0 0 20 20" fill="none" xmlns="http://www.w3.org/2000/svg">
<circle cx="10" cy="10" r="10" fill="#67645F"/>
<path d="M6.26602 13.2009H8.52735C8.59754 13.2013 8.66712 13.1879 8.7321 13.1614C8.79708 13.1348 8.85618 13.0957 8.90602 13.0463L12.5967 9.35139L14.1113 7.86916C14.1613 7.81959 14.201 7.76062 14.2281 7.69565C14.2552 7.63067 14.2691 7.56099 14.2691 7.4906C14.2691 7.42021 14.2552 7.35052 14.2281 7.28555C14.201 7.22058 14.1613 7.16161 14.1113 7.11204L11.85 4.82471C11.8004 4.77473 11.7414 4.73507 11.6765 4.708C11.6115 4.68093 11.5418 4.66699 11.4713 4.66699C11.4009 4.66699 11.3312 4.68093 11.2662 4.708C11.2012 4.73507 11.1423 4.77473 11.0927 4.82471L9.58868 6.3336L5.88735 10.0285C5.83792 10.0784 5.79881 10.1374 5.77227 10.2024C5.74573 10.2674 5.73228 10.3369 5.73268 10.4071V12.6678C5.73268 12.8092 5.78887 12.9448 5.88889 13.0448C5.98891 13.1448 6.12457 13.2009 6.26602 13.2009ZM11.4713 5.95504L12.9807 7.46394L12.2233 8.22105L10.714 6.71216L11.4713 5.95504ZM6.79935 10.6257L9.96202 7.46394L11.4713 8.97284L8.30868 12.1346H6.79935V10.6257ZM14.7993 14.2673H5.19935C5.0579 14.2673 4.92224 14.3235 4.82223 14.4235C4.72221 14.5235 4.66602 14.6591 4.66602 14.8005C4.66602 14.9419 4.72221 15.0775 4.82223 15.1775C4.92224 15.2775 5.0579 15.3337 5.19935 15.3337H14.7993C14.9408 15.3337 15.0765 15.2775 15.1765 15.1775C15.2765 15.0775 15.3327 14.9419 15.3327 14.8005C15.3327 14.6591 15.2765 14.5235 15.1765 14.4235C15.0765 14.3235 14.9408 14.2673 14.7993 14.2673Z" fill="white"/>
</svg>
