<svg width="6" height="6" viewBox="0 0 6 6" fill="none" xmlns="http://www.w3.org/2000/svg">
<path fill-rule="evenodd" clip-rule="evenodd" d="M5.625 1.18538L2.03893 4.875L0.375 3.16301L0.790984 2.72764L2.03893 4.01163L5.20184 0.75L5.625 1.18538Z" fill="#F0FAFD"/>
<path d="M2.03893 4.875L1.85966 5.04924L2.03893 5.23369L2.21821 5.04924L2.03893 4.875ZM5.625 1.18538L5.80427 1.35962L5.97363 1.18538L5.80427 1.01113L5.625 1.18538ZM0.375 3.16301L0.194244 2.99031L0.0278141 3.1645L0.195725 3.33726L0.375 3.16301ZM0.790984 2.72764L0.970258 2.5534L0.789445 2.36736L0.610227 2.55493L0.790984 2.72764ZM2.03893 4.01163L1.85966 4.18587L2.03914 4.37053L2.21841 4.18567L2.03893 4.01163ZM5.20184 0.75L5.38112 0.575757L5.20164 0.391096L5.02237 0.57596L5.20184 0.75ZM2.21821 5.04924L5.80427 1.35962L5.44573 1.01113L1.85966 4.70076L2.21821 5.04924ZM0.195725 3.33726L1.85966 5.04924L2.21821 4.70076L0.554275 2.98877L0.195725 3.33726ZM0.610227 2.55493L0.194244 2.99031L0.555756 3.33572L0.97174 2.90034L0.610227 2.55493ZM2.21821 3.83739L0.970258 2.5534L0.611709 2.90188L1.85966 4.18587L2.21821 3.83739ZM5.02237 0.57596L1.85946 3.83759L2.21841 4.18567L5.38132 0.92404L5.02237 0.57596ZM5.80427 1.01113L5.38112 0.575757L5.02257 0.924243L5.44573 1.35962L5.80427 1.01113Z" fill="white"/>
</svg>
