<svg width="61" height="60" viewBox="0 0 61 60" fill="none" xmlns="http://www.w3.org/2000/svg">
<circle cx="27.5" cy="27" r="25" stroke="#9C9C9C" stroke-width="4"/>
<path d="M46.5 46L58.5 58" stroke="#9C9C9C" stroke-width="4" stroke-linecap="round"/>
<path d="M29.3535 31.459H25.4336C25.4453 30.3691 25.5391 29.4551 25.7148 28.7168C25.8906 27.9668 26.1836 27.2871 26.5938 26.6777C27.0156 26.0684 27.5723 25.4238 28.2637 24.7441C28.8027 24.2285 29.2891 23.7422 29.7227 23.2852C30.1562 22.8164 30.502 22.3242 30.7598 21.8086C31.0176 21.2812 31.1465 20.6777 31.1465 19.998C31.1465 19.2598 31.0234 18.6328 30.7773 18.1172C30.5312 17.6016 30.168 17.209 29.6875 16.9395C29.2188 16.6699 28.6328 16.5352 27.9297 16.5352C27.3438 16.5352 26.793 16.6523 26.2773 16.8867C25.7617 17.1094 25.3457 17.4609 25.0293 17.9414C24.7129 18.4102 24.543 19.0312 24.5195 19.8047H20.2832C20.3066 18.3281 20.6582 17.0859 21.3379 16.0781C22.0176 15.0703 22.9316 14.3145 24.0801 13.8105C25.2285 13.3066 26.5117 13.0547 27.9297 13.0547C29.5 13.0547 30.8418 13.3242 31.9551 13.8633C33.0684 14.3906 33.918 15.1641 34.5039 16.1836C35.1016 17.1914 35.4004 18.4102 35.4004 19.8398C35.4004 20.8711 35.1953 21.8086 34.7852 22.6523C34.375 23.4844 33.8418 24.2637 33.1855 24.9902C32.5293 25.7051 31.8203 26.4199 31.0586 27.1348C30.4023 27.7324 29.957 28.3828 29.7227 29.0859C29.4883 29.7773 29.3652 30.5684 29.3535 31.459ZM25.082 36.9434C25.082 36.3105 25.2988 35.7773 25.7324 35.3438C26.166 34.8984 26.7578 34.6758 27.5078 34.6758C28.2578 34.6758 28.8496 34.8984 29.2832 35.3438C29.7168 35.7773 29.9336 36.3105 29.9336 36.9434C29.9336 37.5762 29.7168 38.1152 29.2832 38.5605C28.8496 38.9941 28.2578 39.2109 27.5078 39.2109C26.7578 39.2109 26.166 38.9941 25.7324 38.5605C25.2988 38.1152 25.082 37.5762 25.082 36.9434Z" fill="#9C9C9C"/>
</svg>
