<svg width="20" height="20" viewBox="0 0 20 20" fill="none" xmlns="http://www.w3.org/2000/svg">
<path d="M6.25478 4.84043C5.86426 4.44991 5.23109 4.44991 4.84057 4.84043C4.45004 5.23096 4.45004 5.86412 4.84057 6.25465L6.25478 4.84043ZM14.2595 15.6736C14.65 16.0641 15.2832 16.0641 15.6737 15.6736C16.0642 15.2831 16.0642 14.6499 15.6737 14.2594L14.2595 15.6736ZM15.6783 6.25007C16.0688 5.85954 16.0688 5.22638 15.6783 4.83586C15.2878 4.44533 14.6546 4.44533 14.2641 4.83586L15.6783 6.25007ZM4.83599 14.2639C4.44546 14.6545 4.44546 15.2876 4.83599 15.6782C5.22651 16.0687 5.85968 16.0687 6.2502 15.6782L4.83599 14.2639ZM4.84057 6.25465L9.55003 10.9641L10.9642 9.5499L6.25478 4.84043L4.84057 6.25465ZM9.55003 10.9641L14.2595 15.6736L15.6737 14.2594L10.9642 9.5499L9.55003 10.9641ZM14.2641 4.83586L9.55003 9.5499L10.9642 10.9641L15.6783 6.25007L14.2641 4.83586ZM9.55003 9.5499L4.83599 14.2639L6.2502 15.6782L10.9642 10.9641L9.55003 9.5499Z" fill="#4A4A4A"/>
</svg>
