<svg width="69" height="68" viewBox="0 0 69 68" fill="none" xmlns="http://www.w3.org/2000/svg">
<path d="M50.1442 26.0683V10C50.1442 7.79086 48.3533 6 46.1442 6H13.5C11.2909 6 9.5 7.79086 9.5 10V52.0349C9.5 53.1502 9.96564 54.2149 10.7846 54.972L18.0537 61.6925C18.7928 62.3758 19.7624 62.7554 20.7691 62.7554H46.1442C48.3533 62.7554 50.1442 60.9645 50.1442 58.7554V50.475" stroke="#C4C4C4" stroke-width="4" stroke-linecap="round" stroke-linejoin="round"/>
<path d="M10.5977 52.5029H16.1179C18.3271 52.5029 20.1179 54.2938 20.1179 56.5029V61.657" stroke="#C4C4C4" stroke-width="4" stroke-linecap="round" stroke-linejoin="round"/>
<path d="M19.5 15H40.5" stroke="#C4C4C4" stroke-width="4" stroke-linecap="round" stroke-linejoin="round"/>
<path d="M19.5 22H40.5" stroke="#C4C4C4" stroke-width="4" stroke-linecap="round" stroke-linejoin="round"/>
<path d="M19.5 29H40.5" stroke="#C4C4C4" stroke-width="4" stroke-linecap="round" stroke-linejoin="round"/>
<path d="M19.5 36H31.5" stroke="#C4C4C4" stroke-width="4" stroke-linecap="round" stroke-linejoin="round"/>
<path d="M62.7534 29.5608L61.3189 28.1672C60.5492 28.9594 60.5675 30.2256 61.3598 30.9953L62.7534 29.5608ZM58.3176 25.2749L59.7521 26.6685C59.7592 26.6612 59.7663 26.6538 59.7733 26.6464L58.3176 25.2749ZM38.1681 46.0154L36.7336 44.6218C35.9639 45.414 35.9822 46.6802 36.7744 47.4499L38.1681 46.0154ZM42.5922 50.3135L41.1986 51.748C41.579 52.1176 42.0907 52.3209 42.6211 52.3133C43.1515 52.3056 43.6571 52.0876 44.0267 51.7071L42.5922 50.3135ZM62.7535 29.5609L64.188 30.9545C64.9577 30.1622 64.9394 28.8961 64.1471 28.1264L62.7535 29.5609ZM61.319 28.1671C61.319 28.1671 61.319 28.1671 61.319 28.1671C61.3189 28.1671 61.3189 28.1671 61.3189 28.1672L64.1879 30.9544C64.1879 30.9544 64.188 30.9544 64.188 30.9544C64.188 30.9544 64.188 30.9543 64.188 30.9543L61.319 28.1671ZM60.4238 27.5327C60.822 27.9195 61.0167 28.3008 61.0772 28.5244C61.1063 28.6323 61.0891 28.6451 61.0994 28.5777C61.1118 28.4966 61.1632 28.3275 61.319 28.1671L64.188 30.9543C65.2295 29.8823 65.2038 28.4617 64.9386 27.4806C64.6603 26.451 64.0346 25.4638 63.2111 24.6637L60.4238 27.5327ZM59.7639 26.6562C59.608 26.8167 59.4404 26.8728 59.3597 26.8876C59.2927 26.8999 59.305 26.8823 59.4136 26.9083C59.6389 26.9622 60.0257 27.1459 60.4238 27.5327L63.2111 24.6637C62.3876 23.8636 61.3826 23.2668 60.3455 23.0183C59.3571 22.7816 57.9363 22.797 56.8949 23.869L59.7639 26.6562ZM59.7733 26.6464C59.7702 26.6497 59.767 26.653 59.7639 26.6562L56.8949 23.869C56.8838 23.8804 56.8728 23.8919 56.8619 23.9034L59.7733 26.6464ZM39.6026 47.409L59.7521 26.6685L56.8831 23.8813L36.7336 44.6218L39.6026 47.409ZM43.9858 48.879L39.5617 44.5809L36.7744 47.4499L41.1986 51.748L43.9858 48.879ZM61.319 28.1672L41.1577 48.9198L44.0267 51.7071L64.188 30.9545L61.319 28.1672ZM61.3598 30.9953L61.3599 30.9954L64.1471 28.1264L64.1471 28.1263L61.3598 30.9953Z" fill="#C4C4C4"/>
<path d="M36.8864 51.7591L38.3578 45.9325L42.6681 50.12L36.8864 51.7591Z" stroke="#C4C4C4" stroke-width="4" stroke-linecap="round" stroke-linejoin="round"/>
</svg>
