<svg width="22" height="22" viewBox="0 0 22 22" fill="none" xmlns="http://www.w3.org/2000/svg">
<ellipse cx="10.9893" cy="11" rx="10.9893" ry="11" fill="#4686A5"/>
<path d="M5.99414 10C5.44186 10 4.99414 10.4477 4.99414 11C4.99414 11.5523 5.44186 12 5.99414 12V10ZM15.9844 12C16.5367 12 16.9844 11.5523 16.9844 11C16.9844 10.4477 16.5367 10 15.9844 10V12ZM11.9893 6C11.9893 5.44772 11.5416 5 10.9893 5C10.437 5 9.98928 5.44772 9.98928 6H11.9893ZM9.98928 16C9.98928 16.5523 10.437 17 10.9893 17C11.5416 17 11.9893 16.5523 11.9893 16H9.98928ZM5.99414 12H10.9893V10H5.99414V12ZM10.9893 12H15.9844V10H10.9893V12ZM9.98928 6V11H11.9893V6H9.98928ZM9.98928 11V16H11.9893V11H9.98928Z" fill="#fff"/>
</svg>
