<svg width="24" height="24" viewBox="0 0 24 24" fill="none" xmlns="http://www.w3.org/2000/svg">
<path fill-rule="evenodd" clip-rule="evenodd" d="M11.9992 7.4502C12.441 7.4502 12.7992 7.80837 12.7992 8.2502V12.0002C12.7992 12.442 12.441 12.8002 11.9992 12.8002C11.5574 12.8002 11.1992 12.442 11.1992 12.0002V8.2502C11.1992 7.80837 11.5574 7.4502 11.9992 7.4502Z" fill="#707070"/>
<path fill-rule="evenodd" clip-rule="evenodd" d="M11.3065 11.6003C11.5274 11.2177 12.0167 11.0866 12.3994 11.3075L15.6469 13.1825C16.0296 13.4034 16.1607 13.8927 15.9398 14.2753C15.7189 14.658 15.2296 14.7891 14.8469 14.5681L11.5994 12.6931C11.2167 12.4722 11.0856 11.983 11.3065 11.6003Z" fill="#707070"/>
<path fill-rule="evenodd" clip-rule="evenodd" d="M19.5148 5.86572C19.9567 5.86572 20.3148 6.22389 20.3148 6.66572V9.79072C20.3148 10.2326 19.9567 10.5907 19.5148 10.5907H16.3898C15.948 10.5907 15.5898 10.2326 15.5898 9.79072C15.5898 9.3489 15.948 8.99072 16.3898 8.99072H18.7148V6.66572C18.7148 6.22389 19.073 5.86572 19.5148 5.86572Z" fill="#707070"/>
<path fill-rule="evenodd" clip-rule="evenodd" d="M13.1844 6.04193C12.006 5.80752 10.7845 5.92783 9.67442 6.38763C8.56436 6.84743 7.61557 7.62608 6.94804 8.62511C6.28051 9.62414 5.92422 10.7987 5.92422 12.0002C5.92422 13.2017 6.28051 14.3763 6.94804 15.3753C7.61557 16.3743 8.56436 17.153 9.67442 17.6128C10.7845 18.0726 12.006 18.1929 13.1844 17.9585C14.3628 17.7241 15.4453 17.1455 16.2949 16.2959C16.6073 15.9835 17.1138 15.9835 17.4263 16.2959C17.7387 16.6083 17.7387 17.1148 17.4263 17.4272C16.3529 18.5006 14.9853 19.2316 13.4965 19.5277C12.0077 19.8239 10.4645 19.6719 9.06212 19.091C7.6597 18.5101 6.46103 17.5263 5.61769 16.2642C4.77435 15.0021 4.32422 13.5182 4.32422 12.0002C4.32422 10.4822 4.77435 8.99834 5.61769 7.7362C6.46103 6.47405 7.6597 5.49033 9.06212 4.90942C10.4645 4.32852 12.0077 4.17653 13.4965 4.47267C14.9853 4.76881 16.3529 5.49979 17.4263 6.57315L20.0779 9.2248C20.3903 9.53722 20.3903 10.0438 20.0779 10.3562C19.7655 10.6686 19.259 10.6686 18.9465 10.3562L16.2949 7.70452C15.4453 6.85492 14.3628 6.27633 13.1844 6.04193Z" fill="#707070"/>
</svg>
