<svg width="69" height="68" viewBox="0 0 69 68" fill="none" xmlns="http://www.w3.org/2000/svg">
<circle cx="32.5" cy="32" r="25" stroke="#C4C4C4" stroke-width="4"/>
<path d="M51.5 51L63.5 63" stroke="#C4C4C4" stroke-width="4" stroke-linecap="round"/>
<path d="M34.3516 36.459H30.4316C30.4434 35.3691 30.5371 34.4551 30.7129 33.7168C30.8887 32.9668 31.1816 32.2871 31.5918 31.6777C32.0137 31.0684 32.5703 30.4238 33.2617 29.7441C33.8008 29.2285 34.2871 28.7422 34.7207 28.2852C35.1543 27.8164 35.5 27.3242 35.7578 26.8086C36.0156 26.2812 36.1445 25.6777 36.1445 24.998C36.1445 24.2598 36.0215 23.6328 35.7754 23.1172C35.5293 22.6016 35.166 22.209 34.6855 21.9395C34.2168 21.6699 33.6309 21.5352 32.9277 21.5352C32.3418 21.5352 31.791 21.6523 31.2754 21.8867C30.7598 22.1094 30.3438 22.4609 30.0273 22.9414C29.7109 23.4102 29.541 24.0312 29.5176 24.8047H25.2812C25.3047 23.3281 25.6562 22.0859 26.3359 21.0781C27.0156 20.0703 27.9297 19.3145 29.0781 18.8105C30.2266 18.3066 31.5098 18.0547 32.9277 18.0547C34.498 18.0547 35.8398 18.3242 36.9531 18.8633C38.0664 19.3906 38.916 20.1641 39.502 21.1836C40.0996 22.1914 40.3984 23.4102 40.3984 24.8398C40.3984 25.8711 40.1934 26.8086 39.7832 27.6523C39.373 28.4844 38.8398 29.2637 38.1836 29.9902C37.5273 30.7051 36.8184 31.4199 36.0566 32.1348C35.4004 32.7324 34.9551 33.3828 34.7207 34.0859C34.4863 34.7773 34.3633 35.5684 34.3516 36.459ZM30.0801 41.9434C30.0801 41.3105 30.2969 40.7773 30.7305 40.3438C31.1641 39.8984 31.7559 39.6758 32.5059 39.6758C33.2559 39.6758 33.8477 39.8984 34.2812 40.3438C34.7148 40.7773 34.9316 41.3105 34.9316 41.9434C34.9316 42.5762 34.7148 43.1152 34.2812 43.5605C33.8477 43.9941 33.2559 44.2109 32.5059 44.2109C31.7559 44.2109 31.1641 43.9941 30.7305 43.5605C30.2969 43.1152 30.0801 42.5762 30.0801 41.9434Z" fill="#C4C4C4"/>
</svg>
