<svg width="96" height="78" viewBox="0 0 96 78" fill="none" xmlns="http://www.w3.org/2000/svg">
<path d="M51.3371 42.5206C51.3371 50.8467 44.5728 57.6032 36.2201 57.6032C27.8674 57.6032 21.103 50.8467 21.103 42.5206C21.103 34.1945 27.8674 27.438 36.2201 27.438C44.5728 27.438 51.3371 34.1945 51.3371 42.5206Z" stroke="#9C9C9C" stroke-width="4" stroke-miterlimit="10" stroke-linecap="round" stroke-linejoin="round"/>
<path d="M69.5264 50.1721L63.6086 45.6325C63.6998 44.7146 63.7461 43.7842 63.7472 42.8413C63.7481 41.5501 63.6596 40.2603 63.4823 38.9813L69.3069 34.6224L65.1914 24.4263L57.6033 25.4189C56.2422 23.7299 54.689 22.2046 52.9751 20.8735L54.0182 13.5894L43.8842 9.28076L39.3054 15.2307C37.0765 14.9577 34.823 14.951 32.5926 15.2109L28.304 9.50334L18.0874 13.6071L19.0148 20.6756C17.1 22.1276 15.3804 23.8194 13.8981 25.7093L7.22953 24.7578L2.91174 34.871L8.25543 38.9698C7.90298 41.5007 7.89748 44.0676 8.23909 46.5999L3.13344 50.4207L7.24632 60.619L13.7351 59.7697C15.3288 61.8422 17.2054 63.6817 19.3102 65.2348L18.419 71.4563L28.5531 75.765L32.6183 70.4836C35.1463 70.7757 37.7024 70.7252 40.2169 70.3333L44.1315 75.5433L54.3503 71.4391L53.4326 64.4538C55.2832 62.9535 56.9344 61.2236 58.3461 59.306L65.2103 60.2853L69.5264 50.1721Z" stroke="#9C9C9C" stroke-width="4" stroke-miterlimit="10" stroke-linecap="round" stroke-linejoin="round"/>
<path d="M66.5449 17.5732C67.998 16.7196 69.6641 16.2686 71.3624 16.269C76.5009 16.269 80.666 20.3137 80.666 25.3028C80.666 27.937 79.5049 30.3078 77.6527 31.9591" stroke="#9C9C9C" stroke-width="4" stroke-miterlimit="10" stroke-linecap="round" stroke-linejoin="round"/>
<path d="M69.5379 42.4669C71.1998 42.6591 72.8801 42.6259 74.5331 42.3682L77.1069 45.7932L83.8249 43.095L83.2212 38.5029C84.4372 37.5171 85.5223 36.3807 86.4504 35.1211L90.9634 35.7646L93.8018 29.116L89.9106 26.1331C89.9695 25.5296 89.9998 24.918 90.0016 24.2983C90.0012 23.4493 89.9422 22.6014 89.8249 21.7605L93.6538 18.8957L90.9502 12.1917L85.962 12.8444C85.0669 11.7343 84.0458 10.7315 82.9192 9.85618L83.6072 5.06666L76.9448 2.23535L73.9356 6.14471C72.4707 5.96531 70.9897 5.96087 69.5237 6.13149L66.7048 2.37947L59.9868 5.07768L60.5984 9.72484C59.3395 10.6792 58.2088 11.7912 57.2341 13.0335" stroke="#9C9C9C" stroke-width="4" stroke-miterlimit="10" stroke-linecap="round" stroke-linejoin="round"/>
</svg>
