<svg width="95" height="80" viewBox="0 0 95 80" fill="none" xmlns="http://www.w3.org/2000/svg">
<path d="M53.9412 79.6765C55.8904 79.6765 57.4706 78.0963 57.4706 76.1471C57.4706 74.1978 55.8904 72.6177 53.9412 72.6177C51.9919 72.6177 50.4117 74.1978 50.4117 76.1471C50.4117 78.0963 51.9919 79.6765 53.9412 79.6765Z" fill="#9C9C9C"/>
<path d="M72.0294 5.26448C66.2941 3.79389 60.2647 3.05859 54.0882 3.05859C34.0882 3.05859 16 10.9998 2.91174 23.9409" stroke="#9C9C9C" stroke-width="5" stroke-miterlimit="10" stroke-linecap="round" stroke-linejoin="round"/>
<path d="M72.1764 29.2354C66.5882 27.0295 60.4117 25.853 53.9411 25.853C39.5294 25.853 26.5882 31.8824 17.3235 41.5883" stroke="#9C9C9C" stroke-width="5" stroke-miterlimit="10" stroke-linecap="round" stroke-linejoin="round"/>
<path d="M73.2059 59.3825C68.5 54.0884 61.5883 50.7061 53.9412 50.7061C46.2942 50.7061 39.3824 54.0884 34.6765 59.3825" stroke="#9C9C9C" stroke-width="5" stroke-miterlimit="10" stroke-linecap="round" stroke-linejoin="round"/>
<path d="M91 2.76465V26.4411" stroke="#9C9C9C" stroke-width="5" stroke-miterlimit="10" stroke-linecap="round" stroke-linejoin="round"/>
<path d="M91.1471 45.5588C93.0963 45.5588 94.6765 43.9787 94.6765 42.0294C94.6765 40.0802 93.0963 38.5 91.1471 38.5C89.1978 38.5 87.6177 40.0802 87.6177 42.0294C87.6177 43.9787 89.1978 45.5588 91.1471 45.5588Z" fill="#9C9C9C"/>
</svg>
