<svg width="49" height="48" viewBox="0 0 49 48" fill="none" xmlns="http://www.w3.org/2000/svg">
<path fill-rule="evenodd" clip-rule="evenodd" d="M45.5 24C45.5 12.4 36.1 3 24.5 3C12.9 3 3.5 12.4 3.5 24C3.5 35.6 12.9 45 24.3 44.8C27.3 44.8 30.3 44 33.1 42.8L32.3 41L31.7 41.4C29.3 42.2 26.9 42.8 24.3 42.8C13.9 42.8 5.3 34.2 5.3 23.8C5.3 13.4 13.9 4.8 24.3 4.8C34.7 4.8 43.3 13.4 43.3 23.8C43.3 26.8 42.7 29.8 41.3 32.4L43.1 33.4L43.5 32.8C44.9 30 45.5 27 45.5 24ZM38.5016 36.8008L39.9016 38.2008L38.5016 39.6008L37.1016 38.2008L38.5016 36.8008ZM42.3008 35.2L40.5008 34L39.3008 35.6L40.9008 36.8L42.3008 35.2ZM35.7016 39.1992L36.7016 40.7992L35.1016 41.9992L34.1016 40.3992L35.7016 39.1992ZM23.5 28V14H25.5V28H23.5ZM23.5 32V30H25.5V32H23.5Z" fill="#4686A5"/>
</svg>
