<svg width="38" height="38" viewBox="0 0 38 38" fill="none" xmlns="http://www.w3.org/2000/svg">
<path fill-rule="evenodd" clip-rule="evenodd" d="M26.1406 36.6126C23.9361 37.5072 21.5256 38 19 38C8.50659 38 0 29.4934 0 19C0 8.50659 8.50659 0 19 0C20.8045 0 22.5758 0.251888 24.2758 0.742313L24.9999 0.96706L24.3687 2.86486C22.653 2.29428 20.8471 2 19 2C9.61116 2 2 9.61116 2 19C2 28.3888 9.61116 36 19 36C21.3496 36 23.5878 35.5233 25.6233 34.6615L26.1406 36.6126ZM34.746 25.4201C35.5544 23.4392 36 21.2716 36 19C36.6896 19.0021 36.7233 19.0004 36.7422 18.9994C36.7554 18.9987 36.7613 18.9984 36.9766 19C37.1598 19.0014 37.2011 19.0017 37.2424 19.0016L37.2818 19.0014C37.3506 19.0009 37.4882 19 38 19C38 21.4683 37.5293 23.8268 36.6728 25.9904L34.746 25.4201ZM33.7947 7.68772L35.2427 9.06732L33.7098 10.6756L16.3399 27.9537L8.26529 19.2085L9.73471 17.8518L16.4 25.07L32.2806 9.27684L33.7947 7.68772ZM29.0553 32.7425L30.1446 34.4198L28.4672 35.5091L27.3779 33.8318L29.0553 32.7425ZM34.0116 27.0575L35.6889 28.1468L34.5996 29.8241L32.9223 28.7348L34.0116 27.0575ZM31.9098 30.1242L33.324 31.5384L31.9098 32.9526L30.4956 31.5384L31.9098 30.1242Z" fill="#04BA00"/>
</svg>
